<?xml version="1.0" encoding="UTF-8" standalone="no"?>
<svg
   width="126.52mm"
   height="79.162mm"
   version="1.1"
   viewBox="0 0 126.52 79.162"
   xml:space="preserve"
   id="svg246"
   sodipodi:docname="bookShelf2.svg"
   inkscape:version="1.2 (dc2aedaf03, 2022-05-15)"
   xmlns:inkscape="http://www.inkscape.org/namespaces/inkscape"
   xmlns:sodipodi="http://sodipodi.sourceforge.net/DTD/sodipodi-0.dtd"
   xmlns="http://www.w3.org/2000/svg"
   xmlns:svg="http://www.w3.org/2000/svg"><sodipodi:namedview
     id="namedview248"
     pagecolor="#ffffff"
     bordercolor="#000000"
     borderopacity="0.25"
     inkscape:showpageshadow="2"
     inkscape:pageopacity="0.0"
     inkscape:pagecheckerboard="0"
     inkscape:deskcolor="#d1d1d1"
     inkscape:document-units="mm"
     showgrid="false"
     inkscape:zoom="1.3697604"
     inkscape:cx="148.56613"
     inkscape:cy="156.59673"
     inkscape:window-width="1600"
     inkscape:window-height="871"
     inkscape:window-x="-9"
     inkscape:window-y="-9"
     inkscape:window-maximized="1"
     inkscape:current-layer="svg246" /><defs
     id="defs116"><filter
       id="am"
       x="-0.028412686"
       y="-0.0055719489"
       width="1.0568263"
       height="1.0111477"
       color-interpolation-filters="sRGB"><feGaussianBlur
         stdDeviation="0.081792898"
         id="feGaussianBlur2" /></filter><filter
       id="ak"
       x="-0.043033972"
       y="-0.012589091"
       width="1.086071"
       height="1.0251821"
       color-interpolation-filters="sRGB"><feGaussianBlur
         stdDeviation="0.081792898"
         id="feGaussianBlur5" /></filter><filter
       id="aj"
       x="-0.048517389"
       y="-0.012511092"
       width="1.0970321"
       height="1.0250272"
       color-interpolation-filters="sRGB"><feGaussianBlur
         stdDeviation="0.081792898"
         id="feGaussianBlur8" /></filter><filter
       id="ai"
       x="-0.038029024"
       y="-0.012530865"
       width="1.0760546"
       height="1.0250587"
       color-interpolation-filters="sRGB"><feGaussianBlur
         stdDeviation="0.081792898"
         id="feGaussianBlur11" /></filter><filter
       id="ah"
       x="-0.038029024"
       y="-0.012530865"
       width="1.0760546"
       height="1.0250587"
       color-interpolation-filters="sRGB"><feGaussianBlur
         stdDeviation="0.081792898"
         id="feGaussianBlur14" /></filter><filter
       id="ag"
       x="-0.084005367"
       y="-0.012500984"
       width="1.1680092"
       height="1.0249875"
       color-interpolation-filters="sRGB"><feGaussianBlur
         stdDeviation="0.081792898"
         id="feGaussianBlur17" /></filter><filter
       id="af"
       x="-0.08400382"
       y="-0.012500984"
       width="1.1680092"
       height="1.0249875"
       color-interpolation-filters="sRGB"><feGaussianBlur
         stdDeviation="0.081792898"
         id="feGaussianBlur20" /></filter><filter
       id="ae"
       x="-0.08400382"
       y="-0.012500984"
       width="1.1680092"
       height="1.0249875"
       color-interpolation-filters="sRGB"><feGaussianBlur
         stdDeviation="0.081792898"
         id="feGaussianBlur23" /></filter><filter
       id="ad"
       x="-0.066014974"
       y="-0.013418694"
       width="1.1320325"
       height="1.0268277"
       color-interpolation-filters="sRGB"><feGaussianBlur
         stdDeviation="0.081792898"
         id="feGaussianBlur26" /></filter><filter
       id="ac"
       x="-0.051335145"
       y="-0.0074863116"
       width="1.1026712"
       height="1.0149817"
       color-interpolation-filters="sRGB"><feGaussianBlur
         stdDeviation="0.081792898"
         id="feGaussianBlur29" /></filter><filter
       id="ab"
       x="-0.051349688"
       y="-0.0074126479"
       width="1.1027003"
       height="1.0148344"
       color-interpolation-filters="sRGB"><feGaussianBlur
         stdDeviation="0.081792898"
         id="feGaussianBlur32" /></filter><filter
       id="aa"
       x="-0.046227669"
       y="-0.0075768193"
       width="1.0924564"
       height="1.0151613"
       color-interpolation-filters="sRGB"><feGaussianBlur
         stdDeviation="0.081792898"
         id="feGaussianBlur35" /></filter><filter
       id="z"
       x="-0.027978633"
       y="-0.0091825506"
       width="1.0559598"
       height="1.0183674"
       color-interpolation-filters="sRGB"><feGaussianBlur
         stdDeviation="0.081792898"
         id="feGaussianBlur38" /></filter><filter
       id="y"
       x="-0.028333934"
       y="-0.0062212931"
       width="1.0566667"
       height="1.012446"
       color-interpolation-filters="sRGB"><feGaussianBlur
         stdDeviation="0.081792898"
         id="feGaussianBlur41" /></filter><filter
       id="x"
       x="-0.028167746"
       y="-0.006680312"
       width="1.0563368"
       height="1.0133638"
       color-interpolation-filters="sRGB"><feGaussianBlur
         stdDeviation="0.081792898"
         id="feGaussianBlur44" /></filter><filter
       id="w"
       x="-0.023214556"
       y="-0.0061406203"
       width="1.0464278"
       height="1.0122789"
       color-interpolation-filters="sRGB"><feGaussianBlur
         stdDeviation="0.081792898"
         id="feGaussianBlur47" /></filter><filter
       id="v"
       x="-0.0064396915"
       y="-0.042343859"
       width="1.0128887"
       height="1.0846873"
       color-interpolation-filters="sRGB"><feGaussianBlur
         stdDeviation="0.081792898"
         id="feGaussianBlur50" /></filter><filter
       id="u"
       x="-0.0064505543"
       y="-0.050721384"
       width="1.012888"
       height="1.1014424"
       color-interpolation-filters="sRGB"><feGaussianBlur
         stdDeviation="0.081792898"
         id="feGaussianBlur53" /></filter><filter
       id="t"
       x="-0.0064499468"
       y="-0.048587062"
       width="1.0128878"
       height="1.0971745"
       color-interpolation-filters="sRGB"><feGaussianBlur
         stdDeviation="0.081792898"
         id="feGaussianBlur56" /></filter><filter
       id="s"
       x="-0.041391956"
       y="-0.0091236544"
       width="1.0827822"
       height="1.0182523"
       color-interpolation-filters="sRGB"><feGaussianBlur
         stdDeviation="0.081792898"
         id="feGaussianBlur59" /></filter><filter
       id="r"
       x="-0.041327805"
       y="-0.0090444234"
       width="1.0826573"
       height="1.0180939"
       color-interpolation-filters="sRGB"><feGaussianBlur
         stdDeviation="0.081792898"
         id="feGaussianBlur62" /></filter><filter
       id="q"
       x="-0.0093223672"
       y="-0.048791836"
       width="1.0186328"
       height="1.0975837"
       color-interpolation-filters="sRGB"><feGaussianBlur
         stdDeviation="0.081792898"
         id="feGaussianBlur65" /></filter><filter
       id="p"
       x="-0.011345239"
       y="-0.048331457"
       width="1.0226806"
       height="1.096663"
       color-interpolation-filters="sRGB"><feGaussianBlur
         stdDeviation="0.081792898"
         id="feGaussianBlur68" /></filter><filter
       id="o"
       x="-0.0096836413"
       y="-0.051261299"
       width="1.0193637"
       height="1.1025219"
       color-interpolation-filters="sRGB"><feGaussianBlur
         stdDeviation="0.081792898"
         id="feGaussianBlur71" /></filter><filter
       id="n"
       x="-0.013844481"
       y="-0.041505349"
       width="1.0276873"
       height="1.0830086"
       color-interpolation-filters="sRGB"><feGaussianBlur
         stdDeviation="0.081792898"
         id="feGaussianBlur74" /></filter><filter
       id="m"
       x="-0.0089918174"
       y="-0.041887499"
       width="1.0179811"
       height="1.0837726"
       color-interpolation-filters="sRGB"><feGaussianBlur
         stdDeviation="0.081792898"
         id="feGaussianBlur77" /></filter><filter
       id="l"
       x="-0.008958309"
       y="-0.040841858"
       width="1.0179208"
       height="1.081683"
       color-interpolation-filters="sRGB"><feGaussianBlur
         stdDeviation="0.081792898"
         id="feGaussianBlur80" /></filter><filter
       id="k"
       x="-0.0089871485"
       y="-0.051598337"
       width="1.0179719"
       height="1.1031966"
       color-interpolation-filters="sRGB"><feGaussianBlur
         stdDeviation="0.081792898"
         id="feGaussianBlur83" /></filter><filter
       id="j"
       x="-0.0089741321"
       y="-0.077529693"
       width="1.0179673"
       height="1.1550593"
       color-interpolation-filters="sRGB"><feGaussianBlur
         stdDeviation="0.081792898"
         id="feGaussianBlur86" /></filter><filter
       id="i"
       x="-0.012576642"
       y="-0.060988863"
       width="1.0251492"
       height="1.1219744"
       color-interpolation-filters="sRGB"><feGaussianBlur
         stdDeviation="0.081792898"
         id="feGaussianBlur89" /></filter><filter
       id="h"
       x="-0.0071003312"
       y="-0.051410247"
       width="1.0141928"
       height="1.1028203"
       color-interpolation-filters="sRGB"><feGaussianBlur
         stdDeviation="0.081792898"
         id="feGaussianBlur92" /></filter><filter
       id="g"
       x="-0.0070664968"
       y="-0.072300779"
       width="1.0141231"
       height="1.1446016"
       color-interpolation-filters="sRGB"><feGaussianBlur
         stdDeviation="0.081792898"
         id="feGaussianBlur95" /></filter><filter
       id="f"
       x="-0.0070741278"
       y="-0.049260538"
       width="1.0141409"
       height="1.0985205"
       color-interpolation-filters="sRGB"><feGaussianBlur
         stdDeviation="0.081792898"
         id="feGaussianBlur98" /></filter><filter
       id="e"
       x="-0.0096836413"
       y="-0.051261299"
       width="1.0193637"
       height="1.1025219"
       color-interpolation-filters="sRGB"><feGaussianBlur
         stdDeviation="0.081792898"
         id="feGaussianBlur101" /></filter><filter
       id="d"
       x="-0.044873039"
       y="-0.0091171905"
       width="1.0897476"
       height="1.0182402"
       color-interpolation-filters="sRGB"><feGaussianBlur
         stdDeviation="0.081792898"
         id="feGaussianBlur104" /></filter><filter
       id="c"
       x="-0.044823581"
       y="-0.0091635185"
       width="1.0896487"
       height="1.0183328"
       color-interpolation-filters="sRGB"><feGaussianBlur
         stdDeviation="0.081792898"
         id="feGaussianBlur107" /></filter><filter
       id="b"
       x="-0.051509592"
       y="-0.011621303"
       width="1.103017"
       height="1.0232366"
       color-interpolation-filters="sRGB"><feGaussianBlur
         stdDeviation="0.081792898"
         id="feGaussianBlur110" /></filter><filter
       id="an"
       x="-0.029929876"
       y="-0.011592859"
       width="1.0598635"
       height="1.0231836"
       color-interpolation-filters="sRGB"><feGaussianBlur
         stdDeviation="0.081792898"
         id="feGaussianBlur113" /></filter></defs><g
     id="g631"
     style="display:none"><g
       fill="#daf0da"
       id="g124"
       transform="translate(-99.838,-88.142)"
       style="stroke:#000000;stroke-width:0.5;stroke-linecap:round;stroke-linejoin:round"><path
         d="m 285.07,63.985 c 0,0 -20.438,7.3536 -31.11,7.6047 -9.6238,0.22641 -28.345,-5.5307 -28.345,-5.5307 0,0 -17.314,25.254 -29.382,34.221 -6.1697,4.5842 -21.086,9.3331 -21.086,9.3331 0,0 38.23,14.571 58.072,13.481 9.0239,-0.4958 25.58,-8.9874 25.58,-8.9874 z"
         id="path118" /><path
         d="m 20.85,93.994 c 0,0 -3.6617,-2.1244 -5.0387,-3.6841 -1.2417,-1.4065 -2.7331,-4.9205 -2.7331,-4.9205 0,0 -5.9387,0.58825 -8.7904,-0.0857 -1.4579,-0.34453 -4.0382,-1.9725 -4.0382,-1.9725 0,0 2.6258,7.5292 5.2789,10.351 1.2066,1.2833 4.5507,2.6859 4.5507,2.6859 z"
         id="path120" /><path
         d="m 287.53,31.382 -16.824,-1.5532 c 0,0 -12.408,18.985 -20.601,26.67 -5.0988,4.7826 -17.383,11.733 -17.383,11.733 l 19.672,22.789 z"
         id="path122" /></g><path
       d="m 114.732,-22.258 c 0,0 5.6176,24.439 12.098,34.913 3.9873,6.4438 15.901,16.246 15.901,16.246 l -31.11,-9.3331 c 0,0 -6.5639,-10.894 -8.2961,-16.938 -4.0213,-14.03 -4.4937,-43.554 -4.4937,-43.554 0,0 4.5463,9.1005 7.9504,12.79 2.2348,2.4219 7.9504,5.8764 7.9504,5.8764 z"
       fill="#ffffef"
       id="path126"
       style="stroke:#000000;stroke-width:0.5;stroke-linecap:round;stroke-linejoin:round" /><path
       d="m -44.211,13.578 c 0,0 8.4166,8.7395 13.713,11.47 3.2588,1.6802 10.642,2.78 10.642,2.78 l -15.23,3.8757 c 0,0 -5.4361,-2.8848 -7.6597,-4.9606 -5.1622,-4.819 -12.711,-16.949 -12.711,-16.949 0,0 4.1523,2.6431 6.4833,3.3258 1.5302,0.4482 4.7616,0.45788 4.7616,0.45788 z"
       fill="#daf0da"
       id="path128"
       style="stroke:#000000;stroke-width:0.5;stroke-linecap:round;stroke-linejoin:round" /><path
       d="m 33.942,-10.145 c 0,0 -9.6296,-2.0645 -14.518,-2.074 -4.1878,-0.008 -12.444,1.7283 -12.444,1.7283 l 3.4567,12.79 c 0,0 8.7348,-1.5153 13.135,-1.3827 3.5028,0.1056 10.37,1.7284 10.37,1.7284 z"
       fill="#daf0da"
       id="path130"
       style="stroke:#000000;stroke-width:0.5;stroke-linecap:round;stroke-linejoin:round" /><path
       d="m -28.904,6.412 c 0,0 7.33,6.5775 11.567,9.0153 3.6299,2.0885 11.657,4.685 11.657,4.685 l 3.3571,-12.816 c 0,0 -8.3327,-3.0263 -12.085,-5.3286 -2.987,-1.8325 -8.1396,-6.6538 -8.1396,-6.6538 z"
       fill="#ffffef"
       id="path132"
       style="stroke:#000000;stroke-width:0.5;stroke-linecap:round;stroke-linejoin:round" /><path
       d="M 51.062,24.098 38.718,39.283 c 0,0 -12.289,-4.7423 -18.665,-6.3202 C 12.7699,31.1605 -2.173,29.406 -2.173,29.406 L 15.56,9.836 c 0,0 16.317,7.0419 24.591,10.279 3.6054,1.4107 10.911,3.9825 10.911,3.9825 z"
       fill="#daf0da"
       id="path134"
       style="stroke:#000000;stroke-width:0.5;stroke-linecap:round;stroke-linejoin:round" /><g
       fill="#ffffef"
       id="g142"
       transform="translate(-99.838,-88.142)"
       style="stroke:#000000;stroke-width:0.5;stroke-linecap:round;stroke-linejoin:round"><path
         d="m 231.99,28.03 c 0,0 9.3518,1.8998 13.481,4.148 3.304,1.7989 8.6417,7.2591 8.6417,7.2591 l -10.37,10.37 c 0,0 -11.103,-7.2427 -16.938,-10.37 -3.1351,-1.6804 -9.6787,-4.4937 -9.6787,-4.4937 z"
         id="path136" /><path
         d="m 281.55,105.61 c 0,0 -5.6932,7.6586 -9.4828,10.441 -3.0323,2.2266 -10.243,4.7387 -10.243,4.7387 l -4.9815,-13.794 c 0,0 11.274,-6.9737 16.584,-10.927 2.8532,-2.1241 8.1802,-6.8524 8.1802,-6.8524 z"
         id="path138" /><path
         d="m 70.728,110.58 c 0,0 -4.3744,2.6628 -6.82,3.2837 -1.9568,0.49681 -6.0494,0.294 -6.0494,0.294 l 0.30039,-7.8645 c 0,0 7.0124,-1.1981 10.45,-2.0949 1.847,-0.48187 5.4491,-1.7608 5.4491,-1.7608 z"
         id="path140" /></g><path
       d="m 54.062,2.938 c 0,0 8.484,-0.72579 12.524,-1.965 3.1196,-0.95689 8.8584,-4.1662 8.8584,-4.1662 l -7.3658,11.126 c 0,0 -8.5745,3.5697 -13.129,3.9489 -4.0775,0.33949 -12.178,-1.5431 -12.178,-1.5431 z"
       fill="#daf0da"
       id="path144"
       style="stroke:#000000;stroke-width:0.5;stroke-linecap:round;stroke-linejoin:round" /><path
       d="m -61.067,-0.515 c 0,0 8.484,-0.72579 12.524,-1.965 3.1196,-0.95689 8.8584,-4.1662 8.8584,-4.1662 l -7.3658,11.126 c 0,0 -8.5745,3.5697 -13.129,3.9489 -4.0775,0.33949 -12.178,-1.5431 -12.178,-1.5431 z"
       fill="#daf0da"
       id="path146"
       style="stroke:#000000;stroke-width:0.5;stroke-linecap:round;stroke-linejoin:round" /><g
       fill="#ffffef"
       id="g156"
       transform="translate(-99.838,-88.142)"
       style="stroke:#000000;stroke-width:0.5;stroke-linecap:round;stroke-linejoin:round"><path
         d="m 161.56,105.98 c 0,0 12.198,-7.5066 17.331,-12.424 3.9635,-3.797 10.159,-12.959 10.159,-12.959 l -2.6529,22.287 c 0,0 -10.183,11.848 -16.739,15.862 -5.8697,3.5938 -19.464,6.891 -19.464,6.891 z"
         id="path148" /><path
         d="m 275.96,0.24999 8.9874,32.493 c 0,0 -3.0558,2.5914 -4.8394,3.4567 -5.9381,2.8807 -19.012,5.5307 -19.012,5.5307 l -7.6047,-33.53 z"
         id="path150" /><path
         d="m 24.008,95.218 11.746,6.8149 c 0,0 -0.14859,1.6071 -0.41781,2.3589 -0.89635,2.5029 -3.9107,6.9512 -3.9107,6.9512 l -11.641,-7.5031 z"
         id="path152" /><path
         d="m 127.92,118.25 -11.662,-9.7647 c 0,0 0.47096,-1.7452 0.91168,-2.5235 1.4673,-2.5911 5.6437,-6.9245 5.6437,-6.9245 l 11.414,10.504 z"
         id="path154" /></g></g><path
     d="m 25.792,25.578 c 0,0 0.0509,18.21 0,27.315 -0.0466,8.3438 -0.27973,25.03 -0.27973,25.03 0,0 2.3512,0.54379 3.5432,0.65295 2.231,0.2043 6.7135,0 6.7135,0 0,0 0.32328,-20.388 0.18649,-30.58 -0.10133,-7.5498 -0.74594,-22.636 -0.74594,-22.636 0,0 -4.7274,-0.25519 -7.0864,-0.10872 -0.78149,0.0485 -2.3311,0.32643 -2.3311,0.32643 z"
     fill="#c4e5f8"
     filter="url(#am)"
     stroke-width="0.20275"
     id="path160"
     style="stroke:#000000;stroke-linecap:round;stroke-linejoin:round;stroke-opacity:0.59216" /><path
     d="m 75.792,1.7 c 0,0 0.0335,8.0199 0,12.03 -0.0306,3.6746 -0.18383,11.023 -0.18383,11.023 0,0 1.5452,0.23949 2.3286,0.28756 1.4662,0.09 4.412,0 4.412,0 0,0 0.21245,-8.9788 0.12254,-13.467 -0.0666,-3.325 -0.49023,-9.9688 -0.49023,-9.9688 0,0 -3.1068,-0.11242 -4.6571,-0.0479 -0.51359,0.0213 -1.532,0.14376 -1.532,0.14376 z"
     fill="#c4e5f8"
     filter="url(#ak)"
     id="path162"
     style="stroke:#000000;stroke-width:0.2;stroke-linecap:round;stroke-linejoin:round;stroke-opacity:0.59216" /><path
     d="m 74.862,1.36 c 0,0 -0.0297,8.0704 0,12.105 0.0272,3.6978 0.16307,11.093 0.16307,11.093 0,0 -1.3706,0.241 -2.0655,0.28937 -1.3006,0.0905 -3.9136,0 -3.9136,0 0,0 -0.18846,-9.0353 -0.10871,-13.552 0.0591,-3.3459 0.43485,-10.032 0.43485,-10.032 0,0 2.7559,-0.11313 4.1311,-0.0482 0.45557,0.0214 1.3589,0.14467 1.3589,0.14467 z"
     fill="#ffdbef"
     filter="url(#aj)"
     id="path164"
     style="stroke:#000000;stroke-width:0.2;stroke-linecap:round;stroke-linejoin:round;stroke-opacity:0.59216;fill:#ede8f8;fill-opacity:1" /><path
     d="m 68.322,24.838 c 0,0 -0.0379,-8.0584 0,-12.087 0.0347,-3.6923 0.20804,-11.076 0.20804,-11.076 0,0 -1.7487,-0.24065 -2.6353,-0.28895 -1.6593,-0.0904 -4.9931,0 -4.9931,0 0,0 -0.24044,9.0219 -0.13869,13.532 0.0754,3.341 0.55479,10.017 0.55479,10.017 0,0 3.516,0.11295 5.2705,0.0481 0.58123,-0.0214 1.7337,-0.14445 1.7337,-0.14445 z"
     fill="#c4e5f8"
     filter="url(#ai)"
     id="path166"
     style="stroke:#000000;stroke-width:0.2;stroke-linecap:round;stroke-linejoin:round;stroke-opacity:0.59216" /><path
     d="m 21.822,23.848 c 0,0 -0.0379,-8.0584 0,-12.087 0.0347,-3.6923 0.20804,-11.076 0.20804,-11.076 0,0 -1.7487,-0.24065 -2.6353,-0.28895 -1.6593,-0.0904 -4.9931,0 -4.9931,0 0,0 -0.24044,9.0219 -0.13869,13.532 0.0754,3.341 0.55479,10.017 0.55479,10.017 0,0 3.516,0.11295 5.2705,0.0481 0.58123,-0.0214 1.7337,-0.14445 1.7337,-0.14445 z"
     fill="#ffdbef"
     filter="url(#ah)"
     id="path168"
     style="stroke:#000000;stroke-width:0.2;stroke-linecap:round;stroke-linejoin:round;stroke-opacity:0.59216;fill:#ede8f8;fill-opacity:1" /><path
     d="m 3.732,23.888 c 0,0 -0.0171,-8.0927 0,-12.139 C 3.7477,8.041 3.8262,0.626 3.8262,0.626 c 0,0 -0.79155,-0.24168 -1.1929,-0.29018 -0.75108,-0.0908 -2.2602,0 -2.2602,0 0,0 -0.10884,9.0603 -0.0628,13.59 0.0341,3.3552 0.25113,10.059 0.25113,10.059 0,0 1.5915,0.11343 2.3857,0.0483 0.2631,-0.0215 0.78478,-0.14507 0.78478,-0.14507 z"
     fill="#c4e5f8"
     filter="url(#ag)"
     id="path170"
     style="stroke:#000000;stroke-width:0.2;stroke-linecap:round;stroke-linejoin:round;stroke-opacity:0.59216" /><path
     d="m 4.422,24.028 c 0,0 0.0171,-8.0927 0,-12.139 C 4.4063,8.181 4.3278,0.766 4.3278,0.766 c 0,0 0.79155,-0.24168 1.1929,-0.29018 0.75108,-0.0908 2.2602,0 2.2602,0 0,0 0.10884,9.0603 0.0628,13.59 -0.0341,3.3552 -0.25113,10.059 -0.25113,10.059 0,0 -1.5915,0.11343 -2.3857,0.0483 -0.2631,-0.0215 -0.78478,-0.14507 -0.78478,-0.14507 z"
     fill="#ffdbef"
     filter="url(#af)"
     id="path172"
     style="stroke:#000000;stroke-width:0.2;stroke-linecap:round;stroke-linejoin:round;stroke-opacity:0.59216;fill:#ede8f8;fill-opacity:1" /><path
     d="m 22.942,23.898 c 0,0 0.0171,-8.0927 0,-12.139 C 22.9263,8.051 22.8478,0.636 22.8478,0.636 c 0,0 0.79155,-0.24168 1.1929,-0.29018 0.75108,-0.0908 2.2602,0 2.2602,0 0,0 0.10884,9.0603 0.0628,13.59 -0.0341,3.3552 -0.25113,10.059 -0.25113,10.059 0,0 -1.5915,0.11343 -2.3857,0.0483 -0.2631,-0.0215 -0.78478,-0.14507 -0.78478,-0.14507 z"
     fill="#c4e5f8"
     filter="url(#ae)"
     id="path174"
     style="stroke:#000000;stroke-width:0.2;stroke-linecap:round;stroke-linejoin:round;stroke-opacity:0.59216" /><path
     d="m 8.582,23.878 c 0,0 0.0234,-8.0807 0,-12.121 C 8.5606,8.0545 8.45344,0.65 8.45344,0.65 c 0,0 1.0806,-0.24133 1.6285,-0.28976 1.0254,-0.0907 3.0856,0 3.0856,0 0,0 0.14858,9.0469 0.0857,13.57 -0.0466,3.3502 -0.34284,10.045 -0.34284,10.045 0,0 -2.1728,0.11326 -3.257,0.0482 C 9.29422,24.00194 8.582,23.87858 8.582,23.87858 Z"
     fill="#c4e5f8"
     filter="url(#ad)"
     stroke-width="0.24316"
     id="path178"
     style="stroke:#000000;stroke-linecap:round;stroke-linejoin:round;stroke-opacity:0.59216" /><path
     d="m 106.482,20.288 c 0,0 0.028,13.498 0,20.247 -0.0257,6.1848 -0.15411,18.553 -0.15411,18.553 0,0 1.2953,0.40309 1.952,0.48401 1.2291,0.15144 3.6986,0 3.6986,0 0,0 0.1781,-15.112 0.10274,-22.667 -0.0558,-5.5963 -0.41096,-16.779 -0.41096,-16.779 0,0 -2.6044,-0.18917 -3.9041,-0.0806 -0.43053,0.0359 -1.2842,0.24197 -1.2842,0.24197 z"
     fill="#ffdbef"
     filter="url(#ac)"
     stroke-width="0.2"
     id="path180"
     style="stroke:#000000;stroke-linecap:round;stroke-linejoin:round;stroke-opacity:0.59216;fill:#ede8f8;fill-opacity:1" /><path
     d="m 113.032,20.098 c 0,0 0.028,13.633 0,20.449 -0.0257,6.2465 -0.15407,18.738 -0.15407,18.738 0,0 1.2949,0.40711 1.9515,0.48883 1.2287,0.15295 3.6975,0 3.6975,0 0,0 0.17805,-15.263 0.10271,-22.893 -0.0558,-5.6522 -0.41084,-16.946 -0.41084,-16.946 0,0 -2.6037,-0.19105 -3.9029,-0.0814 -0.43041,0.0363 -1.2838,0.24438 -1.2838,0.24438 z"
     fill="#c4e5f8"
     filter="url(#ab)"
     stroke-width="0.2"
     id="path182"
     style="stroke:#000000;stroke-linecap:round;stroke-linejoin:round;stroke-opacity:0.59216" /><path
     d="m 119.682,20.498 c 0,0 0.0318,13.629 0,20.443 -0.0292,6.2445 -0.17492,18.732 -0.17492,18.732 0,0 1.4702,0.40698 2.2155,0.48867 1.395,0.1529 4.1978,0 4.1978,0 0,0 0.20214,-15.258 0.11661,-22.886 -0.0633,-5.6503 -0.46643,-16.94 -0.46643,-16.94 0,0 -2.956,-0.19098 -4.431,-0.0814 -0.48865,0.0363 -1.4576,0.2443 -1.4576,0.2443 z"
     fill="#ffdbef"
     filter="url(#aa)"
     stroke-width="0.21307"
     id="path184"
     style="stroke:#000000;stroke-linecap:round;stroke-linejoin:round;stroke-opacity:0.59216;fill:#ede8f8;fill-opacity:1" /><path
     d="m 95.272,27.358 c 0,0 0.0514,10.994 0,16.491 -0.0472,5.0373 -0.28276,15.111 -0.28276,15.111 0,0 2.3766,0.3283 3.5816,0.3942 2.2551,0.12334 6.7861,0 6.7861,0 0,0 0.32679,-12.308 0.18851,-18.462 -0.10242,-4.558 -0.75402,-13.666 -0.75402,-13.666 0,0 -4.7786,-0.15406 -7.1631,-0.0657 -0.78995,0.0293 -2.3563,0.19707 -2.3563,0.19707 z"
     fill="#c4e5f8"
     filter="url(#z)"
     stroke-width="0.2"
     id="path186"
     style="stroke:#000000;stroke-linecap:round;stroke-linejoin:round;stroke-opacity:0.59216" /><path
     d="m 24.292,30.818 c 0,0 -0.051,16.305 0,24.457 0.0467,7.4706 0.28047,22.41 0.28047,22.41 0,0 -2.3574,0.48689 -3.5526,0.58462 -2.2369,0.18292 -6.7313,0 -6.7313,0 0,0 -0.32413,-18.254 -0.18698,-27.38 0.1016,-6.7598 0.74792,-20.267 0.74792,-20.267 0,0 4.74,-0.22849 7.1052,-0.0974 0.78356,0.0434 2.3372,0.29227 2.3372,0.29227 z"
     fill="#ffdbef"
     filter="url(#y)"
     stroke-width="0.20265"
     id="path188"
     style="stroke:#000000;stroke-linecap:round;stroke-linejoin:round;stroke-opacity:0.59216;fill:#ede8f8;fill-opacity:1" /><path
     d="m 84.062,27.668 c 0,0 0.051,15.115 0,22.673 -0.0469,6.9258 -0.28086,20.776 -0.28086,20.776 0,0 2.3607,0.45137 3.5575,0.54197 2.24,0.16959 6.7406,0 6.7406,0 0,0 0.32459,-16.923 0.18724,-25.383 -0.10173,-6.2668 -0.74896,-18.789 -0.74896,-18.789 0,0 -4.7466,-0.21182 -7.1151,-0.0902 -0.78465,0.0403 -2.3405,0.27096 -2.3405,0.27096 z"
     fill="#ffdbef"
     filter="url(#x)"
     stroke-width="0.2"
     id="path190"
     style="stroke:#000000;stroke-linecap:round;stroke-linejoin:round;stroke-opacity:0.59216;fill:#ede8f8;fill-opacity:1" /><path
     d="m 12.832,78.048 c 0,0 -0.0623,-16.533 0,-24.8 0.0571,-7.5754 0.34255,-22.725 0.34255,-22.725 0,0 -2.8792,-0.49371 -4.339,-0.59283 -2.732,-0.18548 -8.2212,0 -8.2212,0 0,0 -0.39588,18.51 -0.22837,27.764 0.12408,6.8546 0.91347,20.551 0.91347,20.551 0,0 5.7891,0.2317 8.6779,0.0988 0.957,-0.0441 2.8546,-0.29636 2.8546,-0.29636 z"
     fill="#c4e5f8"
     filter="url(#w)"
     stroke-width="0.20304"
     id="path192"
     style="stroke:#000000;stroke-linecap:round;stroke-linejoin:round;stroke-opacity:0.59216" /><path
     d="m 36.952,45.178 c 0,0 15.685,0.013 23.527,0.07 7.1865,0.0522 21.558,0.24924 21.558,0.24924 0,0 0.47907,-1.5545 0.5785,-2.3431 0.1861,-1.4758 0.0305,-4.4427 0.0305,-4.4427 0,0 -17.559,-0.26617 -26.338,-0.20175 -6.5034,0.0477 -19.5,0.43564 -19.5,0.43564 0,0 -0.24128,3.1278 -0.12588,4.6892 0.0382,0.51728 0.27057,1.5434 0.27057,1.5434 z"
     fill="#c4e5f8"
     filter="url(#v)"
     id="path194"
     style="stroke:#000000;stroke-width:0.2;stroke-linecap:round;stroke-linejoin:round;stroke-opacity:0.59216" /><path
     d="m 82.152,37.788 c 0,0 -15.697,0.0108 -23.545,0.0585 -7.192,0.0436 -21.574,0.20807 -21.574,0.20807 0,0 -0.47943,-1.2978 -0.57894,-1.9561 -0.18624,-1.2321 -0.0304,-3.7089 -0.0304,-3.7089 0,0 17.572,-0.22219 26.358,-0.16842 6.5083,0.0398 19.515,0.36369 19.515,0.36369 0,0 0.24147,2.6112 0.12598,3.9147 -0.0383,0.43185 -0.27078,1.2885 -0.27078,1.2885 z"
     fill="#ffdbef"
     filter="url(#u)"
     id="path196"
     style="stroke:#000000;stroke-width:0.2;stroke-linecap:round;stroke-linejoin:round;stroke-opacity:0.59216;fill:#ede8f8;fill-opacity:1" /><path
     d="m 82.282,25.618 c 0,0 -15.694,-0.0113 -23.541,-0.061 -7.1907,-0.0455 -21.57,-0.21722 -21.57,-0.21722 0,0 -0.47935,1.3548 -0.57884,2.042 -0.18621,1.2862 -0.0304,3.8718 -0.0304,3.8718 0,0 17.569,0.23196 26.354,0.17583 6.5072,-0.0416 19.511,-0.37966 19.511,-0.37966 0,0 0.24142,-2.7259 0.12595,-4.0867 -0.0383,-0.45082 -0.27074,-1.3451 -0.27074,-1.3451 z"
     fill="#c4e5f8"
     filter="url(#t)"
     id="path198"
     style="stroke:#000000;stroke-width:0.2;stroke-linecap:round;stroke-linejoin:round;stroke-opacity:0.59216" /><path
     d="m 43.642,46.108 c 0,0 -0.035,11.137 0,16.706 0.032,5.1029 0.19232,15.308 0.19232,15.308 0,0 -1.6165,0.33259 -2.4361,0.39934 -1.5339,0.12495 -4.6157,0 -4.6157,0 0,0 -0.22226,-12.469 -0.12821,-18.702 0.0697,-4.6174 0.51286,-13.844 0.51286,-13.844 0,0 3.2502,-0.15607 4.8721,-0.0665 0.5373,0.0297 1.6027,0.19964 1.6027,0.19964 z"
     fill="#ffdbef"
     filter="url(#s)"
     stroke-width="0.20368"
     id="path202"
     style="stroke:#000000;stroke-linecap:round;stroke-linejoin:round;stroke-opacity:0.59216;fill:#ede8f8;fill-opacity:1" /><path
     d="m 44.632,45.828 c 0,0 0.035,11.215 0,16.822 -0.0321,5.1386 -0.19227,15.415 -0.19227,15.415 0,0 1.6161,0.33491 2.4354,0.40213 1.5334,0.12582 4.6145,0 4.6145,0 0,0 0.2222,-12.556 0.12818,-18.833 -0.0696,-4.6497 -0.51272,-13.94 -0.51272,-13.94 0,0 -3.2494,-0.15716 -4.8708,-0.0669 -0.53716,0.0299 -1.6023,0.20103 -1.6023,0.20103 z"
     fill="#ffdbef"
     filter="url(#r)"
     stroke-width="0.20262"
     id="path204"
     style="stroke:#000000;stroke-linecap:round;stroke-linejoin:round;stroke-opacity:0.59216;fill:#ede8f8;fill-opacity:1" /><path
     d="m 98.912,73.118 c 0,0 -10.934,-0.12239 -16.4,-0.22659 -5.0091,-0.0955 -15.025,-0.36513 -15.025,-0.36513 0,0 -0.35383,1.3195 -0.43321,1.9899 -0.14859,1.2546 -0.078,3.7806 -0.078,3.7806 0,0 12.237,0.35117 18.358,0.35868 4.5342,0.005 13.599,-0.23231 13.599,-0.23231 0,0 0.20815,-2.6601 0.14761,-3.9898 -0.02,-0.44049 -0.16889,-1.3154 -0.16889,-1.3154 z"
     fill="#c4e5f8"
     filter="url(#q)"
     stroke-width="0.20551"
     id="path206"
     style="stroke:#000000;stroke-linecap:round;stroke-linejoin:round;stroke-opacity:0.59216" /><path
     d="m 126.072,73.238 c 0,0 -9.0301,-0.12425 -13.544,-0.23001 -4.1368,-0.0969 -12.408,-0.37068 -12.408,-0.37068 0,0 -0.2922,1.3396 -0.35776,2.0201 -0.12272,1.2737 -0.0644,3.838 -0.0644,3.838 0,0 10.106,0.3565 15.161,0.36412 3.7446,0.005 11.231,-0.23584 11.231,-0.23584 0,0 0.17191,-2.7004 0.1219,-4.0503 -0.0166,-0.44718 -0.13946,-1.3354 -0.13946,-1.3354 z"
     fill="#c4e5f8"
     filter="url(#p)"
     stroke-width="0.20886"
     id="path208"
     style="stroke:#000000;stroke-linecap:round;stroke-linejoin:round;stroke-opacity:0.59216" /><path
     d="m 125.902,72.378 c 0,0 -10.465,-0.18763 -15.698,-0.24068 -4.7953,-0.0487 -14.386,-0.0712 -14.386,-0.0712 0,0 -0.30108,-1.2603 -0.35801,-1.8979 -0.1066,-1.1932 0.0326,-3.585 0.0326,-3.585 0,0 11.718,0.007 17.575,0.16986 4.3383,0.12091 13.005,0.59779 13.005,0.59779 0,0 0.1237,2.5268 0.028,3.7852 -0.0317,0.41688 -0.19889,1.2419 -0.19889,1.2419 z"
     fill="#ffdbef"
     filter="url(#o)"
     stroke-width="0.20149"
     id="path210"
     style="stroke:#000000;stroke-linecap:round;stroke-linejoin:round;stroke-opacity:0.59216;fill:#ede8f8;fill-opacity:1" /><path
     d="m 104.682,26.598 c 0,0 -7.2947,-0.23115 -10.942,-0.2965 -3.3426,-0.06 -10.028,-0.0876 -10.028,-0.0876 0,0 -0.20987,-1.5527 -0.24957,-2.3381 -0.0742,-1.4699 0.0227,-4.4166 0.0227,-4.4166 0,0 8.1682,0.009 12.251,0.20926 3.024,0.14895 9.0651,0.73645 9.0651,0.73645 0,0 0.0863,3.1129 0.0195,4.6632 -0.0221,0.51358 -0.13864,1.53 -0.13864,1.53 z"
     fill="#c4e5f8"
     filter="url(#n)"
     id="path212"
     style="stroke:#000000;stroke-width:0.2;stroke-linecap:round;stroke-linejoin:round;stroke-opacity:0.59216" /><path
     d="m 59.912,24.708 c 0,0 -11.239,-0.22904 -16.858,-0.29379 -5.1498,-0.0595 -15.449,-0.0868 -15.449,-0.0868 0,0 -0.32334,-1.5385 -0.3845,-2.3168 -0.11432,-1.4565 0.035,-4.3763 0.035,-4.3763 0,0 12.585,0.009 18.874,0.20735 4.6591,0.14759 13.966,0.72973 13.966,0.72973 0,0 0.13296,3.0844 0.03,4.6207 -0.0341,0.50889 -0.2136,1.516 -0.2136,1.516 z"
     fill="#ffdbef"
     filter="url(#m)"
     id="path214"
     style="stroke:#000000;stroke-width:0.2;stroke-linecap:round;stroke-linejoin:round;stroke-opacity:0.59216;fill:#ede8f8;fill-opacity:1" /><path
     d="m 27.292,16.888 c 0,0 11.239,0.23701 16.856,0.40525 5.1479,0.15402 15.44,0.55367 15.44,0.55367 0,0 0.38684,-1.5238 0.48021,-2.2989 0.1746,-1.4505 0.14645,-4.374 0.14645,-4.374 0,0 -12.574,-0.51265 -18.867,-0.57519 -4.6612,-0.0457 -13.985,0.15019 -13.985,0.15019 0,0 -0.2607,3.0763 -0.22154,4.6154 0.0129,0.50987 0.15057,1.5236 0.15057,1.5236 z"
     fill="#c4e5f8"
     filter="url(#l)"
     id="path216"
     style="stroke:#000000;stroke-width:0.2;stroke-linecap:round;stroke-linejoin:round;stroke-opacity:0.59216" /><path
     d="m 59.672,10.3 c 0,0 -11.25,-0.20803 -16.876,-0.27214 C 37.6408,9.96896 27.33,9.92474 27.33,9.92474 c 0,0 -0.31952,-1.2343 -0.37864,-1.8584 -0.1105,-1.168 0.0469,-3.5088 0.0469,-3.5088 0,0 12.598,0.0346 18.894,0.20721 4.6637,0.1284 13.979,0.61538 13.979,0.61538 0,0 0.12475,2.4733 0.0175,3.7048 -0.0355,0.40795 -0.21794,1.2151 -0.21794,1.2151 z"
     fill="#c4e5f8"
     filter="url(#k)"
     id="path218"
     style="stroke:#000000;stroke-width:0.2;stroke-linecap:round;stroke-linejoin:round;stroke-opacity:0.59216" /><path
     d="m 27.092,3.75 c 0,0 11.27,0.10071 16.905,0.17758 5.1637,0.0704 15.49,0.25989 15.49,0.25989 0,0 0.33737,-0.81287 0.40537,-1.2261 0.12711,-0.77334 0.002,-2.3311 0.002,-2.3311 0,0 -12.617,-0.24448 -18.925,-0.26356 -4.6724,-0.0137 -14.009,0.11186 -14.009,0.11186 0,0 -0.15975,1.6399 -0.0697,2.46 0.0298,0.27167 0.20115,0.81154 0.20115,0.81154 z"
     fill="#ffdbef"
     filter="url(#j)"
     id="path220"
     style="stroke:#000000;stroke-width:0.2;stroke-linecap:round;stroke-linejoin:round;stroke-opacity:0.59216;fill:#ede8f8;fill-opacity:1" /><path
     d="m 24.372,29.588 c 0,0 -8.2524,-0.16153 -12.379,-0.20721 -3.7814,-0.042 -11.344,-0.0612 -11.344,-0.0612 0,0 -0.23742,-1.0851 -0.28233,-1.634 -0.0839,-1.0272 0.0257,-3.0865 0.0257,-3.0865 0,0 9.2406,0.006 13.859,0.14624 3.4211,0.10404 10.255,0.51466 10.255,0.51466 0,0 0.0976,2.1754 0.0221,3.2588 -0.025,0.35892 -0.15684,1.0692 -0.15684,1.0692 z"
     fill="#c4e5f8"
     filter="url(#i)"
     stroke-width="0.21593"
     id="path224"
     style="stroke:#000000;stroke-linecap:round;stroke-linejoin:round;stroke-opacity:0.59216" /><path
     d="m 125.252,19.158 c 0,0 -14.3,-0.18607 -21.45,-0.23866 -6.5524,-0.0483 -19.657,-0.0706 -19.657,-0.0706 0,0 -0.41142,-1.2498 -0.48921,-1.882 -0.14566,-1.1832 0.0445,-3.555 0.0445,-3.555 0,0 16.012,0.007 24.015,0.16844 5.928,0.1199 17.501,-0.20075 17.501,-0.20075 0,0 0.43779,3.2991 0.30706,4.547 -0.0434,0.41338 -0.27177,1.2315 -0.27177,1.2315 z"
     fill="#ffdbef"
     filter="url(#h)"
     stroke-width="0.20155"
     id="path226"
     style="stroke:#000000;stroke-linecap:round;stroke-linejoin:round;stroke-opacity:0.59216;fill:#ede8f8;fill-opacity:1" /><path
     d="m 83.752,12.578 c 0,0 14.382,-0.13241 21.573,-0.16983 6.59,-0.0344 19.77,-0.0503 19.77,-0.0503 0,0 0.41377,-0.8893 0.49201,-1.3391 0.14648,-0.84189 -0.0447,-2.5296 -0.0447,-2.5296 0,0 -16.104,0.005 -24.153,0.11986 -5.962,0.0854 -17.602,-0.14285 -17.602,-0.14285 0,0 -0.4403,2.3475 -0.30883,3.2355 0.0436,0.29415 0.27334,0.87631 0.27334,0.87631 z"
     fill="#ffdbef"
     filter="url(#g)"
     stroke-width="0.20197"
     id="path228"
     style="stroke:#000000;stroke-linecap:round;stroke-linejoin:round;stroke-opacity:0.59216;fill:#ede8f8;fill-opacity:1" /><path
     d="m 125.312,7.72 c 0,0 -14.361,-0.19433 -21.541,-0.24927 -6.5804,-0.0505 -19.741,-0.0737 -19.741,-0.0737 0,0 -0.41316,-1.3053 -0.49128,-1.9656 -0.14628,-1.2357 0.0447,-3.7129 0.0447,-3.7129 0,0 16.08,0.008 24.117,0.17594 5.9533,0.12525 17.576,-0.20968 17.576,-0.20968 0,0 0.43966,3.4456 0.30838,4.749 -0.0436,0.43174 -0.27294,1.2862 -0.27294,1.2862 z"
     filter="url(#f)"
     stroke-width="0.20199"
     id="path230"
     style="fill:#c4e5f8;stroke:#000000;stroke-linecap:round;stroke-linejoin:round;stroke-opacity:0.59216" /><path
     d="m 125.832,66.138 c 0,0 -10.465,-0.18763 -15.698,-0.24068 -4.7953,-0.0487 -14.386,-0.0712 -14.386,-0.0712 0,0 -0.30108,-1.2603 -0.35801,-1.8979 -0.1066,-1.1932 0.0326,-3.585 0.0326,-3.585 0,0 11.718,0.007 17.575,0.16986 4.3383,0.12091 13.005,0.59779 13.005,0.59779 0,0 0.1237,2.5268 0.028,3.7852 -0.0317,0.41688 -0.19889,1.2419 -0.19889,1.2419 z"
     filter="url(#e)"
     stroke-width="0.20149"
     id="path232"
     style="fill:#c4e5f8;stroke:#000000;stroke-linecap:round;stroke-linejoin:round;stroke-opacity:0.59216" /><path
     d="m 52.372,46.278 c 0,0 0.0322,11.108 0,16.661 -0.0295,5.0894 -0.17678,15.267 -0.17678,15.267 0,0 1.4859,0.3317 2.2392,0.39828 1.4099,0.12461 4.2427,0 4.2427,0 0,0 0.2043,-12.436 0.11785,-18.652 -0.064,-4.6051 -0.47141,-13.807 -0.47141,-13.807 0,0 -2.9876,-0.15566 -4.4784,-0.0663 -0.49388,0.0296 -1.4732,0.19911 -1.4732,0.19911 z"
     filter="url(#d)"
     stroke-width="0.20161"
     id="path234"
     style="fill:#c4e5f8;stroke:#000000;stroke-linecap:round;stroke-linejoin:round;stroke-opacity:0.59216" /><path
     d="m 59.582,46.568 c 0,0 0.0322,11.04 0,16.56 -0.0295,5.0585 -0.1768,15.175 -0.1768,15.175 0,0 1.486,0.3297 2.2394,0.39587 1.41,0.12385 4.2431,0 4.2431,0 0,0 0.20432,-12.36 0.11786,-18.539 -0.064,-4.5772 -0.47146,-13.723 -0.47146,-13.723 0,0 -2.9879,-0.15472 -4.4788,-0.0659 -0.49393,0.0294 -1.4733,0.1979 -1.4733,0.1979 z"
     fill="#ffdbef"
     filter="url(#c)"
     stroke-width="0.20101"
     id="path238"
     style="stroke:#000000;stroke-linecap:round;stroke-linejoin:round;stroke-opacity:0.59216;fill:#ede8f8;fill-opacity:1" /><path
     d="m 72.052,71.598 c 0,0 -0.0279,-8.6938 0,-13.041 0.0256,-3.9834 0.15359,-11.95 0.15359,-11.95 0,0 -1.291,-0.25962 -1.9455,-0.31173 -1.225,-0.0975 -3.6862,0 -3.6862,0 0,0 -0.1775,9.7333 -0.1024,14.599 0.0556,3.6044 0.40958,10.807 0.40958,10.807 0,0 2.5957,0.12183 3.891,0.0518 0.4291,-0.0231 1.2799,-0.15584 1.2799,-0.15584 z"
     fill="#c4e5f8"
     filter="url(#b)"
     stroke-width="0.2"
     id="path240"
     style="stroke:#000000;stroke-linecap:round;stroke-linejoin:round;stroke-opacity:0.59216" /><path
     d="m 73.182,71.688 c 0,0 0.0481,-8.7094 0,-13.064 -0.044,-3.9906 -0.26432,-11.971 -0.26432,-11.971 0,0 2.2217,-0.26009 3.3481,-0.31228 2.1081,-0.0977 6.3437,0 6.3437,0 0,0 0.30547,9.7508 0.17621,14.625 -0.0957,3.6109 -0.70485,10.826 -0.70485,10.826 0,0 -4.467,0.12205 -6.6961,0.052 -0.73845,-0.0232 -2.2027,-0.15612 -2.2027,-0.15612 z"
     fill="#ffdbef"
     filter="url(#an)"
     stroke-width="0.2"
     id="path242"
     style="stroke:#000000;stroke-linecap:round;stroke-linejoin:round;stroke-opacity:0.59216;fill:#ede8f8;fill-opacity:1" /></svg>
