<svg width="126.13mm" height="78.765mm" version="1.1" viewBox="0 0 126.13 78.765" xml:space="preserve" xmlns="http://www.w3.org/2000/svg"><defs><filter id="al" x="-.028413" y="-.005572" width="1.0568" height="1.0111" color-interpolation-filters="sRGB"><feGaussianBlur stdDeviation="0.081792898"/></filter><filter id="ak" x="-.043034" y="-.012589" width="1.0861" height="1.0252" color-interpolation-filters="sRGB"><feGaussianBlur stdDeviation="0.081792898"/></filter><filter id="aj" x="-.048517" y="-.012511" width="1.097" height="1.025" color-interpolation-filters="sRGB"><feGaussianBlur stdDeviation="0.081792898"/></filter><filter id="ai" x="-.038029" y="-.012531" width="1.0761" height="1.0251" color-interpolation-filters="sRGB"><feGaussianBlur stdDeviation="0.081792898"/></filter><filter id="ah" x="-.038029" y="-.012531" width="1.0761" height="1.0251" color-interpolation-filters="sRGB"><feGaussianBlur stdDeviation="0.081792898"/></filter><filter id="ag" x="-.084008" y="-.012501" width="1.168" height="1.025" color-interpolation-filters="sRGB"><feGaussianBlur stdDeviation="0.081792898"/></filter><filter id="af" x="-.084006" y="-.012501" width="1.168" height="1.025" color-interpolation-filters="sRGB"><feGaussianBlur stdDeviation="0.081792898"/></filter><filter id="ae" x="-.084006" y="-.012501" width="1.168" height="1.025" color-interpolation-filters="sRGB"><feGaussianBlur stdDeviation="0.081792898"/></filter><filter id="ad" x="-.066015" y="-.013419" width="1.132" height="1.0268" color-interpolation-filters="sRGB"><feGaussianBlur stdDeviation="0.081792898"/></filter><filter id="ac" x="-.051335" y="-.0074863" width="1.1027" height="1.015" color-interpolation-filters="sRGB"><feGaussianBlur stdDeviation="0.081792898"/></filter><filter id="ab" x="-.05135" y="-.0074126" width="1.1027" height="1.0148" color-interpolation-filters="sRGB"><feGaussianBlur stdDeviation="0.081792898"/></filter><filter id="aa" x="-.046227" y="-.0075767" width="1.0925" height="1.0152" color-interpolation-filters="sRGB"><feGaussianBlur stdDeviation="0.081792898"/></filter><filter id="z" x="-.027979" y="-.0091828" width="1.056" height="1.0184" color-interpolation-filters="sRGB"><feGaussianBlur stdDeviation="0.081792898"/></filter><filter id="y" x="-.028334" y="-.0062213" width="1.0567" height="1.0124" color-interpolation-filters="sRGB"><feGaussianBlur stdDeviation="0.081792898"/></filter><filter id="x" x="-.028168" y="-.0066804" width="1.0563" height="1.0134" color-interpolation-filters="sRGB"><feGaussianBlur stdDeviation="0.081792898"/></filter><filter id="w" x="-.023215" y="-.0061406" width="1.0464" height="1.0123" color-interpolation-filters="sRGB"><feGaussianBlur stdDeviation="0.081792898"/></filter><filter id="v" x="-.0064396" y="-.042344" width="1.0129" height="1.0847" color-interpolation-filters="sRGB"><feGaussianBlur stdDeviation="0.081792898"/></filter><filter id="u" x="-.0064505" y="-.050721" width="1.0129" height="1.1014" color-interpolation-filters="sRGB"><feGaussianBlur stdDeviation="0.081792898"/></filter><filter id="t" x="-.0064499" y="-.048587" width="1.0129" height="1.0972" color-interpolation-filters="sRGB"><feGaussianBlur stdDeviation="0.081792898"/></filter><filter id="s" x="-.041392" y="-.0091237" width="1.0828" height="1.0183" color-interpolation-filters="sRGB"><feGaussianBlur stdDeviation="0.081792898"/></filter><filter id="r" x="-.041328" y="-.0090443" width="1.0827" height="1.0181" color-interpolation-filters="sRGB"><feGaussianBlur stdDeviation="0.081792898"/></filter><filter id="q" x="-.0093222" y="-.048791" width="1.0186" height="1.0976" color-interpolation-filters="sRGB"><feGaussianBlur stdDeviation="0.081792898"/></filter><filter id="p" x="-.011345" y="-.048332" width="1.0227" height="1.0967" color-interpolation-filters="sRGB"><feGaussianBlur stdDeviation="0.081792898"/></filter><filter id="o" x="-.0096839" y="-.051261" width="1.0194" height="1.1025" color-interpolation-filters="sRGB"><feGaussianBlur stdDeviation="0.081792898"/></filter><filter id="n" x="-.013845" y="-.041505" width="1.0277" height="1.083" color-interpolation-filters="sRGB"><feGaussianBlur stdDeviation="0.081792898"/></filter><filter id="m" x="-.0089917" y="-.041887" width="1.018" height="1.0838" color-interpolation-filters="sRGB"><feGaussianBlur stdDeviation="0.081792898"/></filter><filter id="l" x="-.0089585" y="-.040842" width="1.0179" height="1.0817" color-interpolation-filters="sRGB"><feGaussianBlur stdDeviation="0.081792898"/></filter><filter id="k" x="-.008987" y="-.051599" width="1.018" height="1.1032" color-interpolation-filters="sRGB"><feGaussianBlur stdDeviation="0.081792898"/></filter><filter id="j" x="-.0089743" y="-.077529" width="1.018" height="1.1551" color-interpolation-filters="sRGB"><feGaussianBlur stdDeviation="0.081792898"/></filter><filter id="i" x="-.012576" y="-.060988" width="1.0251" height="1.122" color-interpolation-filters="sRGB"><feGaussianBlur stdDeviation="0.081792898"/></filter><filter id="h" x="-.0071003" y="-.051411" width="1.0142" height="1.1028" color-interpolation-filters="sRGB"><feGaussianBlur stdDeviation="0.081792898"/></filter><filter id="g" x="-.0070666" y="-.0723" width="1.0141" height="1.1446" color-interpolation-filters="sRGB"><feGaussianBlur stdDeviation="0.081792898"/></filter><filter id="f" x="-.0070741" y="-.049261" width="1.0141" height="1.0985" color-interpolation-filters="sRGB"><feGaussianBlur stdDeviation="0.081792898"/></filter><filter id="e" x="-.0096839" y="-.051261" width="1.0194" height="1.1025" color-interpolation-filters="sRGB"><feGaussianBlur stdDeviation="0.081792898"/></filter><filter id="d" x="-.044873" y="-.0091171" width="1.0897" height="1.0182" color-interpolation-filters="sRGB"><feGaussianBlur stdDeviation="0.081792898"/></filter><filter id="c" x="-.044823" y="-.0091634" width="1.0896" height="1.0183" color-interpolation-filters="sRGB"><feGaussianBlur stdDeviation="0.081792898"/></filter><filter id="b" x="-.051509" y="-.011621" width="1.103" height="1.0232" color-interpolation-filters="sRGB"><feGaussianBlur stdDeviation="0.081792898"/></filter><filter id="a" x="-.02993" y="-.011593" width="1.0599" height="1.0232" color-interpolation-filters="sRGB"><feGaussianBlur stdDeviation="0.081792898"/></filter></defs><g transform="translate(-17.986 -144.39)" display="none" stroke="#000" stroke-linecap="round" stroke-linejoin="round" stroke-width=".5"><g fill="#daf0da"><path d="m285.07 63.985s-20.438 7.3536-31.11 7.6047c-9.6238 0.22641-28.345-5.5307-28.345-5.5307s-17.314 25.254-29.382 34.221c-6.1697 4.5842-21.086 9.3331-21.086 9.3331s38.23 14.571 58.072 13.481c9.0239-0.4958 25.58-8.9874 25.58-8.9874z"/><path d="m20.85 93.994s-3.6617-2.1244-5.0387-3.6841c-1.2417-1.4065-2.7331-4.9205-2.7331-4.9205s-5.9387 0.58825-8.7904-0.0857c-1.4579-0.34453-4.0382-1.9725-4.0382-1.9725s2.6258 7.5292 5.2789 10.351c1.2066 1.2833 4.5507 2.6859 4.5507 2.6859z"/><path d="m287.53 31.382-16.824-1.5532s-12.408 18.985-20.601 26.67c-5.0988 4.7826-17.383 11.733-17.383 11.733l19.672 22.789z"/></g><path d="m214.57 65.884s5.6176 24.439 12.098 34.913c3.9873 6.4438 15.901 16.246 15.901 16.246l-31.11-9.3331s-6.5639-10.894-8.2961-16.938c-4.0213-14.03-4.4937-43.554-4.4937-43.554s4.5463 9.1005 7.9504 12.79c2.2348 2.4219 7.9504 5.8764 7.9504 5.8764z" fill="#ffffef"/><path d="m55.627 101.72s8.4166 8.7395 13.713 11.47c3.2588 1.6802 10.642 2.78 10.642 2.78l-15.23 3.8757s-5.4361-2.8848-7.6597-4.9606c-5.1622-4.819-12.711-16.949-12.711-16.949s4.1523 2.6431 6.4833 3.3258c1.5302 0.4482 4.7616 0.45788 4.7616 0.45788z" fill="#daf0da"/><path d="m133.78 77.997s-9.6296-2.0645-14.518-2.074c-4.1878-8e-3 -12.444 1.7283-12.444 1.7283l3.4567 12.79s8.7348-1.5153 13.135-1.3827c3.5028 0.1056 10.37 1.7284 10.37 1.7284z" fill="#daf0da"/><path d="m70.934 94.554s7.33 6.5775 11.567 9.0153c3.6299 2.0885 11.657 4.685 11.657 4.685l3.3571-12.816s-8.3327-3.0263-12.085-5.3286c-2.987-1.8325-8.1396-6.6538-8.1396-6.6538z" fill="#ffffef"/><path d="m150.9 112.24-12.344 15.185s-12.289-4.7423-18.665-6.3202c-7.2831-1.8023-22.226-3.5568-22.226-3.5568l17.733-19.57s16.317 7.0419 24.591 10.279c3.6054 1.4107 10.911 3.9825 10.911 3.9825z" fill="#daf0da"/><g fill="#ffffef"><path d="m231.99 28.03s9.3518 1.8998 13.481 4.148c3.304 1.7989 8.6417 7.2591 8.6417 7.2591l-10.37 10.37s-11.103-7.2427-16.938-10.37c-3.1351-1.6804-9.6787-4.4937-9.6787-4.4937z"/><path d="m281.55 105.61s-5.6932 7.6586-9.4828 10.441c-3.0323 2.2266-10.243 4.7387-10.243 4.7387l-4.9815-13.794s11.274-6.9737 16.584-10.927c2.8532-2.1241 8.1802-6.8524 8.1802-6.8524z"/><path d="m70.728 110.58s-4.3744 2.6628-6.82 3.2837c-1.9568 0.49681-6.0494 0.294-6.0494 0.294l0.30039-7.8645s7.0124-1.1981 10.45-2.0949c1.847-0.48187 5.4491-1.7608 5.4491-1.7608z"/></g><path d="m153.9 91.08s8.484-0.72579 12.524-1.965c3.1196-0.95689 8.8584-4.1662 8.8584-4.1662l-7.3658 11.126s-8.5745 3.5697-13.129 3.9489c-4.0775 0.33949-12.178-1.5431-12.178-1.5431z" fill="#daf0da"/><path d="m38.771 87.627s8.484-0.72579 12.524-1.965c3.1196-0.95689 8.8584-4.1662 8.8584-4.1662l-7.3658 11.126s-8.5745 3.5697-13.129 3.9489c-4.0775 0.33949-12.178-1.5431-12.178-1.5431z" fill="#daf0da"/><g fill="#ffffef"><path d="m161.56 105.98s12.198-7.5066 17.331-12.424c3.9635-3.797 10.159-12.959 10.159-12.959l-2.6529 22.287s-10.183 11.848-16.739 15.862c-5.8697 3.5938-19.464 6.891-19.464 6.891z"/><path d="m275.96 0.24999 8.9874 32.493s-3.0558 2.5914-4.8394 3.4567c-5.9381 2.8807-19.012 5.5307-19.012 5.5307l-7.6047-33.53z"/><path d="m24.008 95.218 11.746 6.8149s-0.14859 1.6071-0.41781 2.3589c-0.89635 2.5029-3.9107 6.9512-3.9107 6.9512l-11.641-7.5031z"/><path d="m127.92 118.25-11.662-9.7647s0.47096-1.7452 0.91168-2.5235c1.4673-2.5911 5.6437-6.9245 5.6437-6.9245l11.414 10.504z"/></g></g><g transform="translate(-17.986 -144.39)" stroke="#000" stroke-linecap="round" stroke-linejoin="round" stroke-opacity=".59216"><path d="m43.583 169.77s0.05088 18.21 0 27.315c-0.04662 8.3438-0.27973 25.03-0.27973 25.03s2.3512 0.54379 3.5432 0.65295c2.231 0.2043 6.7135 0 6.7135 0s0.32328-20.388 0.18649-30.58c-0.10133-7.5498-0.74594-22.636-0.74594-22.636s-4.7274-0.25519-7.0864-0.10872c-0.78149 0.0485-2.3311 0.32643-2.3311 0.32643z" fill="#daf0da" filter="url(#al)" stroke-width=".20275"/><g stroke-width=".2"><path d="m93.584 145.89s0.03345 8.0199 0 12.03c-0.03064 3.6746-0.18383 11.023-0.18383 11.023s1.5452 0.23949 2.3286 0.28756c1.4662 0.09 4.412 0 4.412 0s0.21245-8.9788 0.12254-13.467c-0.0666-3.325-0.49023-9.9688-0.49023-9.9688s-3.1068-0.11242-4.6571-0.0479c-0.51359 0.0213-1.532 0.14376-1.532 0.14376z" fill="#daf0da" filter="url(#ak)"/><path d="m92.656 145.55s-0.02967 8.0704 0 12.105c0.02718 3.6978 0.16307 11.093 0.16307 11.093s-1.3706 0.241-2.0655 0.28937c-1.3006 0.0905-3.9136 0-3.9136 0s-0.18846-9.0353-0.10871-13.552c0.05906-3.3459 0.43485-10.032 0.43485-10.032s2.7559-0.11313 4.1311-0.0482c0.45557 0.0214 1.3589 0.14467 1.3589 0.14467z" fill="#ffffef" filter="url(#aj)"/><path d="m86.112 169.03s-0.03786-8.0584 0-12.087c0.03468-3.6923 0.20804-11.076 0.20804-11.076s-1.7487-0.24065-2.6353-0.28895c-1.6593-0.0904-4.9931 0-4.9931 0s-0.24044 9.0219-0.13869 13.532c0.07536 3.341 0.55479 10.017 0.55479 10.017s3.516 0.11295 5.2705 0.0481c0.58123-0.0214 1.7337-0.14445 1.7337-0.14445z" fill="#daf0da" filter="url(#ai)"/><path d="m39.611 168.04s-0.03786-8.0584 0-12.087c0.03468-3.6923 0.20804-11.076 0.20804-11.076s-1.7487-0.24065-2.6353-0.28895c-1.6593-0.0904-4.9931 0-4.9931 0s-0.24044 9.0219-0.13869 13.532c0.07536 3.341 0.55479 10.017 0.55479 10.017s3.516 0.11295 5.2705 0.0481c0.58123-0.0214 1.7337-0.14445 1.7337-0.14445z" fill="#ffffef" filter="url(#ah)"/><path d="m21.519 168.08s-0.01714-8.0927 0-12.139c0.0157-3.708 0.09417-11.123 0.09417-11.123s-0.79155-0.24168-1.1929-0.29018c-0.75108-0.0908-2.2602 0-2.2602 0s-0.10884 9.0603-0.06278 13.59c0.03411 3.3552 0.25113 10.059 0.25113 10.059s1.5915 0.11343 2.3857 0.0483c0.2631-0.0215 0.78478-0.14507 0.78478-0.14507z" fill="#daf0da" filter="url(#ag)"/><path d="m22.215 168.22s0.01714-8.0927 0-12.139c-0.0157-3.708-0.09417-11.123-0.09417-11.123s0.79155-0.24168 1.1929-0.29018c0.75108-0.0908 2.2602 0 2.2602 0s0.10884 9.0603 0.06278 13.59c-0.03411 3.3552-0.25113 10.059-0.25113 10.059s-1.5915 0.11343-2.3857 0.0483c-0.2631-0.0215-0.78478-0.14507-0.78478-0.14507z" fill="#ffffef" filter="url(#af)"/><path d="m40.736 168.09s0.01714-8.0927 0-12.139c-0.0157-3.708-0.09417-11.123-0.09417-11.123s0.79155-0.24168 1.1929-0.29018c0.75108-0.0908 2.2602 0 2.2602 0s0.10884 9.0603 0.06278 13.59c-0.03411 3.3552-0.25113 10.059-0.25113 10.059s-1.5915 0.11343-2.3857 0.0483c-0.2631-0.0215-0.78478-0.14507-0.78478-0.14507z" fill="#daf0da" filter="url(#ae)"/></g><path d="m26.368 168.07s0.0234-8.0807 0-12.121c-0.02143-3.7025-0.12856-11.107-0.12856-11.107s1.0806-0.24133 1.6285-0.28976c1.0254-0.0907 3.0856 0 3.0856 0s0.14858 9.0469 0.08571 13.57c-0.04657 3.3502-0.34284 10.045-0.34284 10.045s-2.1728 0.11326-3.257 0.0482c-0.35918-0.0215-1.0714-0.14486-1.0714-0.14486z" fill="#daf0da" filter="url(#ad)" stroke-width=".24316"/><path d="m124.27 164.48s0.028 13.498 0 20.247c-0.0257 6.1848-0.15411 18.553-0.15411 18.553s1.2953 0.40309 1.952 0.48401c1.2291 0.15144 3.6986 0 3.6986 0s0.1781-15.112 0.10274-22.667c-0.0558-5.5963-0.41096-16.779-0.41096-16.779s-2.6044-0.18917-3.9041-0.0806c-0.43053 0.0359-1.2842 0.24197-1.2842 0.24197z" fill="#ffffef" filter="url(#ac)" stroke-width=".2"/><path d="m130.82 164.29s0.028 13.633 0 20.449c-0.0257 6.2465-0.15407 18.738-0.15407 18.738s1.2949 0.40711 1.9515 0.48883c1.2287 0.15295 3.6975 0 3.6975 0s0.17805-15.263 0.10271-22.893c-0.0558-5.6522-0.41084-16.946-0.41084-16.946s-2.6037-0.19105-3.9029-0.0814c-0.43041 0.0363-1.2838 0.24438-1.2838 0.24438z" fill="#daf0da" filter="url(#ab)" stroke-width=".2"/><path d="m137.47 164.69s0.0318 13.629 0 20.443c-0.0292 6.2445-0.17492 18.732-0.17492 18.732s1.4702 0.40698 2.2155 0.48867c1.395 0.1529 4.1978 0 4.1978 0s0.20214-15.258 0.11661-22.886c-0.0633-5.6503-0.46643-16.94-0.46643-16.94s-2.956-0.19098-4.431-0.0814c-0.48865 0.0363-1.4576 0.2443-1.4576 0.2443z" fill="#ffffef" filter="url(#aa)" stroke-width=".21307"/><path d="m113.06 171.55s0.0514 10.994 0 16.491c-0.0472 5.0373-0.28276 15.111-0.28276 15.111s2.3766 0.3283 3.5816 0.3942c2.2551 0.12334 6.7861 0 6.7861 0s0.32679-12.308 0.18851-18.462c-0.10242-4.558-0.75402-13.666-0.75402-13.666s-4.7786-0.15406-7.1631-0.0657c-0.78995 0.0293-2.3563 0.19707-2.3563 0.19707z" fill="#daf0da" filter="url(#z)" stroke-width=".2"/><path d="m42.085 175.01s-0.05101 16.305 0 24.457c0.04674 7.4706 0.28047 22.41 0.28047 22.41s-2.3574 0.48689-3.5526 0.58462c-2.2369 0.18292-6.7313 0-6.7313 0s-0.32413-18.254-0.18698-27.38c0.1016-6.7598 0.74792-20.267 0.74792-20.267s4.74-0.22849 7.1052-0.0974c0.78356 0.0434 2.3372 0.29227 2.3372 0.29227z" fill="#ffffef" filter="url(#y)" stroke-width=".20265"/><path d="m101.85 171.86s0.051 15.115 0 22.673c-0.0469 6.9258-0.28086 20.776-0.28086 20.776s2.3607 0.45137 3.5575 0.54197c2.24 0.16959 6.7406 0 6.7406 0s0.32459-16.923 0.18724-25.383c-0.10173-6.2668-0.74896-18.789-0.74896-18.789s-4.7466-0.21182-7.1151-0.0902c-0.78465 0.0403-2.3405 0.27096-2.3405 0.27096z" fill="#ffffef" filter="url(#x)" stroke-width=".2"/><path d="m30.618 222.24s-0.06231-16.533 0-24.8c0.05709-7.5754 0.34255-22.725 0.34255-22.725s-2.8792-0.49371-4.339-0.59283c-2.732-0.18548-8.2212 0-8.2212 0s-0.39588 18.51-0.22837 27.764c0.12408 6.8546 0.91347 20.551 0.91347 20.551s5.7891 0.2317 8.6779 0.0988c0.957-0.0441 2.8546-0.29636 2.8546-0.29636z" fill="#daf0da" filter="url(#w)" stroke-width=".20304"/><g stroke-width=".2"><path d="m54.737 189.37s15.685 0.013 23.527 0.07c7.1865 0.0522 21.558 0.24924 21.558 0.24924s0.47907-1.5545 0.5785-2.3431c0.1861-1.4758 0.0305-4.4427 0.0305-4.4427s-17.559-0.26617-26.338-0.20175c-6.5034 0.0477-19.5 0.43564-19.5 0.43564s-0.24128 3.1278-0.12588 4.6892c0.03824 0.51728 0.27057 1.5434 0.27057 1.5434z" fill="#daf0da" filter="url(#v)"/><path d="m99.942 181.98s-15.697 0.0108-23.545 0.0585c-7.192 0.0436-21.574 0.20807-21.574 0.20807s-0.47943-1.2978-0.57894-1.9561c-0.18624-1.2321-0.03044-3.7089-0.03044-3.7089s17.572-0.22219 26.358-0.16842c6.5083 0.0398 19.515 0.36369 19.515 0.36369s0.24147 2.6112 0.12598 3.9147c-0.0383 0.43185-0.27078 1.2885-0.27078 1.2885z" fill="#ffffef" filter="url(#u)"/><path d="m100.07 169.81s-15.694-0.0113-23.541-0.061c-7.1907-0.0455-21.57-0.21722-21.57-0.21722s-0.47935 1.3548-0.57884 2.042c-0.18621 1.2862-0.03044 3.8718-0.03044 3.8718s17.569 0.23196 26.354 0.17583c6.5072-0.0416 19.511-0.37966 19.511-0.37966s0.24142-2.7259 0.12595-4.0867c-0.0383-0.45082-0.27074-1.3451-0.27074-1.3451z" fill="#daf0da" filter="url(#t)"/></g><path d="m61.429 190.3s-0.03498 11.137 0 16.706c0.03205 5.1029 0.19232 15.308 0.19232 15.308s-1.6165 0.33259-2.4361 0.39934c-1.5339 0.12495-4.6157 0-4.6157 0s-0.22226-12.469-0.12821-18.702c0.06966-4.6174 0.51286-13.844 0.51286-13.844s3.2502-0.15607 4.8721-0.0665c0.5373 0.0297 1.6027 0.19964 1.6027 0.19964z" fill="#ffffef" filter="url(#s)" stroke-width=".20368"/><path d="m62.422 190.02s0.03498 11.215 0 16.822c-0.03205 5.1386-0.19227 15.415-0.19227 15.415s1.6161 0.33491 2.4354 0.40213c1.5334 0.12582 4.6145 0 4.6145 0s0.2222-12.556 0.12818-18.833c-0.06964-4.6497-0.51272-13.94-0.51272-13.94s-3.2494-0.15716-4.8708-0.0669c-0.53716 0.0299-1.6023 0.20103-1.6023 0.20103z" fill="#ffffef" filter="url(#r)" stroke-width=".20262"/><path d="m116.7 217.31s-10.934-0.12239-16.4-0.22659c-5.0091-0.0955-15.025-0.36513-15.025-0.36513s-0.35383 1.3195-0.43321 1.9899c-0.14859 1.2546-0.07802 3.7806-0.07802 3.7806s12.237 0.35117 18.358 0.35868c4.5342 5e-3 13.599-0.23231 13.599-0.23231s0.20815-2.6601 0.14761-3.9898c-0.02-0.44049-0.16889-1.3154-0.16889-1.3154z" fill="#daf0da" filter="url(#q)" stroke-width=".20551"/><path d="m143.86 217.43s-9.0301-0.12425-13.544-0.23001c-4.1368-0.0969-12.408-0.37068-12.408-0.37068s-0.2922 1.3396-0.35776 2.0201c-0.12272 1.2737-0.0644 3.838-0.0644 3.838s10.106 0.3565 15.161 0.36412c3.7446 5e-3 11.231-0.23584 11.231-0.23584s0.17191-2.7004 0.1219-4.0503c-0.0166-0.44718-0.13946-1.3354-0.13946-1.3354z" fill="#daf0da" filter="url(#p)" stroke-width=".20886"/><path d="m143.69 216.57s-10.465-0.18763-15.698-0.24068c-4.7953-0.0487-14.386-0.0712-14.386-0.0712s-0.30108-1.2603-0.35801-1.8979c-0.1066-1.1932 0.0326-3.585 0.0326-3.585s11.718 7e-3 17.575 0.16986c4.3383 0.12091 13.005 0.59779 13.005 0.59779s0.1237 2.5268 0.028 3.7852c-0.0317 0.41688-0.19889 1.2419-0.19889 1.2419z" fill="#ffffef" filter="url(#o)" stroke-width=".20149"/><g stroke-width=".2"><path d="m122.47 170.79s-7.2947-0.23115-10.942-0.2965c-3.3426-0.06-10.028-0.0876-10.028-0.0876s-0.20987-1.5527-0.24957-2.3381c-0.0742-1.4699 0.0227-4.4166 0.0227-4.4166s8.1682 9e-3 12.251 0.20926c3.024 0.14895 9.0651 0.73645 9.0651 0.73645s0.0863 3.1129 0.0195 4.6632c-0.0221 0.51358-0.13864 1.53-0.13864 1.53z" fill="#daf0da" filter="url(#n)"/><path d="m77.697 168.9s-11.239-0.22904-16.858-0.29379c-5.1498-0.0595-15.449-0.0868-15.449-0.0868s-0.32334-1.5385-0.3845-2.3168c-0.11432-1.4565 0.03498-4.3763 0.03498-4.3763s12.585 9e-3 18.874 0.20735c4.6591 0.14759 13.966 0.72973 13.966 0.72973s0.13296 3.0844 0.03004 4.6207c-0.03405 0.50889-0.2136 1.516-0.2136 1.516z" fill="#ffffef" filter="url(#m)"/><path d="m45.081 161.08s11.239 0.23701 16.856 0.40525c5.1479 0.15402 15.44 0.55367 15.44 0.55367s0.38684-1.5238 0.48021-2.2989c0.1746-1.4505 0.14645-4.374 0.14645-4.374s-12.574-0.51265-18.867-0.57519c-4.6612-0.0457-13.985 0.15019-13.985 0.15019s-0.2607 3.0763-0.22154 4.6154c0.01293 0.50987 0.15057 1.5236 0.15057 1.5236z" fill="#daf0da" filter="url(#l)"/><path d="m77.459 154.49s-11.25-0.20803-16.876-0.27214c-5.1552-0.0589-15.466-0.10312-15.466-0.10312s-0.31952-1.2343-0.37864-1.8584c-0.1105-1.168 0.04687-3.5088 0.04687-3.5088s12.598 0.0346 18.894 0.20721c4.6637 0.1284 13.979 0.61538 13.979 0.61538s0.12475 2.4733 0.01755 3.7048c-0.03547 0.40795-0.21794 1.2151-0.21794 1.2151z" fill="#daf0da" filter="url(#k)"/><path d="m44.877 147.94s11.27 0.10071 16.905 0.17758c5.1637 0.0704 15.49 0.25989 15.49 0.25989s0.33737-0.81287 0.40537-1.2261c0.12711-0.77334 0.0025-2.3311 0.0025-2.3311s-12.617-0.24448-18.925-0.26356c-4.6724-0.0137-14.009 0.11186-14.009 0.11186s-0.15975 1.6399-0.06974 2.46c0.02978 0.27167 0.20115 0.81154 0.20115 0.81154z" fill="#ffffef" filter="url(#j)"/></g><path d="m42.16 173.78s-8.2524-0.16153-12.379-0.20721c-3.7814-0.042-11.344-0.0612-11.344-0.0612s-0.23742-1.0851-0.28233-1.634c-0.08394-1.0272 0.02568-3.0865 0.02568-3.0865s9.2406 6e-3 13.859 0.14624c3.4211 0.10404 10.255 0.51466 10.255 0.51466s0.09763 2.1754 0.02205 3.2588c-0.025 0.35892-0.15684 1.0692-0.15684 1.0692z" fill="#daf0da" filter="url(#i)" stroke-width=".21593"/><path d="m143.04 163.35s-14.3-0.18607-21.45-0.23866c-6.5524-0.0483-19.657-0.0706-19.657-0.0706s-0.41142-1.2498-0.48921-1.882c-0.14566-1.1832 0.0445-3.555 0.0445-3.555s16.012 7e-3 24.015 0.16844c5.928 0.1199 17.501-0.20075 17.501-0.20075s0.43779 3.2991 0.30706 4.547c-0.0434 0.41338-0.27177 1.2315-0.27177 1.2315z" fill="#ffffef" filter="url(#h)" stroke-width=".20155"/><path d="m101.54 156.77s14.382-0.13241 21.573-0.16983c6.59-0.0344 19.77-0.0503 19.77-0.0503s0.41377-0.8893 0.49201-1.3391c0.14648-0.84189-0.0447-2.5296-0.0447-2.5296s-16.104 5e-3 -24.153 0.11986c-5.962 0.0854-17.602-0.14285-17.602-0.14285s-0.4403 2.3475-0.30883 3.2355c0.0436 0.29415 0.27334 0.87631 0.27334 0.87631z" fill="#ffffef" filter="url(#g)" stroke-width=".20197"/><g fill="#daf0da"><path d="m143.1 151.91s-14.361-0.19433-21.541-0.24927c-6.5804-0.0505-19.741-0.0737-19.741-0.0737s-0.41316-1.3053-0.49128-1.9656c-0.14628-1.2357 0.0447-3.7129 0.0447-3.7129s16.08 8e-3 24.117 0.17594c5.9533 0.12525 17.576-0.20968 17.576-0.20968s0.43966 3.4456 0.30838 4.749c-0.0436 0.43174-0.27294 1.2862-0.27294 1.2862z" filter="url(#f)" stroke-width=".20199"/><path d="m143.62 210.33s-10.465-0.18763-15.698-0.24068c-4.7953-0.0487-14.386-0.0712-14.386-0.0712s-0.30108-1.2603-0.35801-1.8979c-0.1066-1.1932 0.0326-3.585 0.0326-3.585s11.718 7e-3 17.575 0.16986c4.3383 0.12091 13.005 0.59779 13.005 0.59779s0.1237 2.5268 0.028 3.7852c-0.0317 0.41688-0.19889 1.2419-0.19889 1.2419z" filter="url(#e)" stroke-width=".20149"/><path d="m70.163 190.47s0.03216 11.108 0 16.661c-0.02946 5.0894-0.17678 15.267-0.17678 15.267s1.4859 0.3317 2.2392 0.39828c1.4099 0.12461 4.2427 0 4.2427 0s0.2043-12.436 0.11785-18.652c-0.06403-4.6051-0.47141-13.807-0.47141-13.807s-2.9876-0.15566-4.4784-0.0663c-0.49388 0.0296-1.4732 0.19911-1.4732 0.19911z" filter="url(#d)" stroke-width=".20161"/></g><path d="m77.371 190.76s0.03216 11.04 0 16.56c-0.02947 5.0585-0.1768 15.175-0.1768 15.175s1.486 0.3297 2.2394 0.39587c1.41 0.12385 4.2431 0 4.2431 0s0.20432-12.36 0.11786-18.539c-0.06404-4.5772-0.47146-13.723-0.47146-13.723s-2.9879-0.15472-4.4788-0.0659c-0.49393 0.0294-1.4733 0.1979-1.4733 0.1979z" fill="#ffffef" filter="url(#c)" stroke-width=".20101"/><path d="m89.843 215.79s-0.02794-8.6938 0-13.041c0.0256-3.9834 0.15359-11.95 0.15359-11.95s-1.291-0.25962-1.9455-0.31173c-1.225-0.0975-3.6862 0-3.6862 0s-0.1775 9.7333-0.1024 14.599c0.05564 3.6044 0.40958 10.807 0.40958 10.807s2.5957 0.12183 3.891 0.0518c0.4291-0.0231 1.2799-0.15584 1.2799-0.15584z" fill="#daf0da" filter="url(#b)" stroke-width=".2"/><path d="m90.967 215.88s0.04809-8.7094 0-13.064c-0.04404-3.9906-0.26432-11.971-0.26432-11.971s2.2217-0.26009 3.3481-0.31228c2.1081-0.0977 6.3437 0 6.3437 0s0.30547 9.7508 0.17621 14.625c-0.0957 3.6109-0.70485 10.826-0.70485 10.826s-4.467 0.12205-6.6961 0.052c-0.73845-0.0232-2.2027-0.15612-2.2027-0.15612z" fill="#ffffef" filter="url(#a)" stroke-width=".2"/></g></svg>
