<?xml version="1.0" encoding="UTF-8" standalone="no"?>
<svg
   width="116.66741mm"
   height="108.12659mm"
   version="1.1"
   viewBox="0 0 116.66741 108.12659"
   xml:space="preserve"
   id="svg246"
   sodipodi:docname="logo2.svg"
   inkscape:version="1.2 (dc2aedaf03, 2022-05-15)"
   xmlns:inkscape="http://www.inkscape.org/namespaces/inkscape"
   xmlns:sodipodi="http://sodipodi.sourceforge.net/DTD/sodipodi-0.dtd"
   xmlns="http://www.w3.org/2000/svg"
   xmlns:svg="http://www.w3.org/2000/svg"><sodipodi:namedview
     id="namedview248"
     pagecolor="#ffffff"
     bordercolor="#000000"
     borderopacity="0.25"
     inkscape:showpageshadow="2"
     inkscape:pageopacity="0.0"
     inkscape:pagecheckerboard="0"
     inkscape:deskcolor="#d1d1d1"
     inkscape:document-units="mm"
     showgrid="false"
     inkscape:zoom="0.68488021"
     inkscape:cx="235.80766"
     inkscape:cy="175.94318"
     inkscape:window-width="1600"
     inkscape:window-height="871"
     inkscape:window-x="-9"
     inkscape:window-y="-9"
     inkscape:window-maximized="1"
     inkscape:current-layer="svg246" /><defs
     id="defs116"><filter
       id="am"
       x="-0.028412687"
       y="-0.0055719488"
       width="1.0568264"
       height="1.0111477"
       color-interpolation-filters="sRGB"><feGaussianBlur
         stdDeviation="0.081792898"
         id="feGaussianBlur2" /></filter><filter
       id="ak"
       x="-0.043033972"
       y="-0.012589091"
       width="1.086071"
       height="1.0251821"
       color-interpolation-filters="sRGB"><feGaussianBlur
         stdDeviation="0.081792898"
         id="feGaussianBlur5" /></filter><filter
       id="aj"
       x="-0.048517387"
       y="-0.012511092"
       width="1.0970321"
       height="1.0250272"
       color-interpolation-filters="sRGB"><feGaussianBlur
         stdDeviation="0.081792898"
         id="feGaussianBlur8" /></filter><filter
       id="ai"
       x="-0.038029023"
       y="-0.012530865"
       width="1.0760546"
       height="1.0250587"
       color-interpolation-filters="sRGB"><feGaussianBlur
         stdDeviation="0.081792898"
         id="feGaussianBlur11" /></filter><filter
       id="ah"
       x="-0.038029023"
       y="-0.012530865"
       width="1.0760546"
       height="1.0250587"
       color-interpolation-filters="sRGB"><feGaussianBlur
         stdDeviation="0.081792898"
         id="feGaussianBlur14" /></filter><filter
       id="ag"
       x="-0.084005363"
       y="-0.012500984"
       width="1.1680092"
       height="1.0249875"
       color-interpolation-filters="sRGB"><feGaussianBlur
         stdDeviation="0.081792898"
         id="feGaussianBlur17" /></filter><filter
       id="af"
       x="-0.084003821"
       y="-0.012500984"
       width="1.1680092"
       height="1.0249875"
       color-interpolation-filters="sRGB"><feGaussianBlur
         stdDeviation="0.081792898"
         id="feGaussianBlur20" /></filter><filter
       id="ae"
       x="-0.084003821"
       y="-0.012500984"
       width="1.1680092"
       height="1.0249875"
       color-interpolation-filters="sRGB"><feGaussianBlur
         stdDeviation="0.081792898"
         id="feGaussianBlur23" /></filter><filter
       id="ad"
       x="-0.066014975"
       y="-0.013418694"
       width="1.1320325"
       height="1.0268277"
       color-interpolation-filters="sRGB"><feGaussianBlur
         stdDeviation="0.081792898"
         id="feGaussianBlur26" /></filter><filter
       id="ac"
       x="-0.051335145"
       y="-0.0074863117"
       width="1.1026711"
       height="1.0149817"
       color-interpolation-filters="sRGB"><feGaussianBlur
         stdDeviation="0.081792898"
         id="feGaussianBlur29" /></filter><filter
       id="ab"
       x="-0.051349688"
       y="-0.0074126478"
       width="1.1027004"
       height="1.0148344"
       color-interpolation-filters="sRGB"><feGaussianBlur
         stdDeviation="0.081792898"
         id="feGaussianBlur32" /></filter><filter
       id="aa"
       x="-0.046227667"
       y="-0.0075768195"
       width="1.0924563"
       height="1.0151613"
       color-interpolation-filters="sRGB"><feGaussianBlur
         stdDeviation="0.081792898"
         id="feGaussianBlur35" /></filter><filter
       id="z"
       x="-0.027978633"
       y="-0.0091825509"
       width="1.0559598"
       height="1.0183674"
       color-interpolation-filters="sRGB"><feGaussianBlur
         stdDeviation="0.081792898"
         id="feGaussianBlur38" /></filter><filter
       id="y"
       x="-0.028333934"
       y="-0.006221293"
       width="1.0566667"
       height="1.012446"
       color-interpolation-filters="sRGB"><feGaussianBlur
         stdDeviation="0.081792898"
         id="feGaussianBlur41" /></filter><filter
       id="x"
       x="-0.028167745"
       y="-0.0066803121"
       width="1.0563368"
       height="1.0133638"
       color-interpolation-filters="sRGB"><feGaussianBlur
         stdDeviation="0.081792898"
         id="feGaussianBlur44" /></filter><filter
       id="w"
       x="-0.023214556"
       y="-0.0061406204"
       width="1.0464278"
       height="1.0122789"
       color-interpolation-filters="sRGB"><feGaussianBlur
         stdDeviation="0.081792898"
         id="feGaussianBlur47" /></filter><filter
       id="v"
       x="-0.0064396914"
       y="-0.042343859"
       width="1.0128887"
       height="1.0846874"
       color-interpolation-filters="sRGB"><feGaussianBlur
         stdDeviation="0.081792898"
         id="feGaussianBlur50" /></filter><filter
       id="u"
       x="-0.0064505544"
       y="-0.050721385"
       width="1.012888"
       height="1.1014425"
       color-interpolation-filters="sRGB"><feGaussianBlur
         stdDeviation="0.081792898"
         id="feGaussianBlur53" /></filter><filter
       id="t"
       x="-0.0064499467"
       y="-0.048587061"
       width="1.0128878"
       height="1.0971745"
       color-interpolation-filters="sRGB"><feGaussianBlur
         stdDeviation="0.081792898"
         id="feGaussianBlur56" /></filter><filter
       id="s"
       x="-0.041391958"
       y="-0.0091236541"
       width="1.0827821"
       height="1.0182523"
       color-interpolation-filters="sRGB"><feGaussianBlur
         stdDeviation="0.081792898"
         id="feGaussianBlur59" /></filter><filter
       id="r"
       x="-0.041327804"
       y="-0.0090444237"
       width="1.0826573"
       height="1.0180939"
       color-interpolation-filters="sRGB"><feGaussianBlur
         stdDeviation="0.081792898"
         id="feGaussianBlur62" /></filter><filter
       id="q"
       x="-0.0093223676"
       y="-0.048791837"
       width="1.0186328"
       height="1.0975837"
       color-interpolation-filters="sRGB"><feGaussianBlur
         stdDeviation="0.081792898"
         id="feGaussianBlur65" /></filter><filter
       id="p"
       x="-0.011345239"
       y="-0.048331458"
       width="1.0226806"
       height="1.096663"
       color-interpolation-filters="sRGB"><feGaussianBlur
         stdDeviation="0.081792898"
         id="feGaussianBlur68" /></filter><filter
       id="o"
       x="-0.0096836416"
       y="-0.051261298"
       width="1.0193636"
       height="1.1025219"
       color-interpolation-filters="sRGB"><feGaussianBlur
         stdDeviation="0.081792898"
         id="feGaussianBlur71" /></filter><filter
       id="n"
       x="-0.013844481"
       y="-0.041505348"
       width="1.0276873"
       height="1.0830086"
       color-interpolation-filters="sRGB"><feGaussianBlur
         stdDeviation="0.081792898"
         id="feGaussianBlur74" /></filter><filter
       id="m"
       x="-0.008991817"
       y="-0.041887499"
       width="1.0179811"
       height="1.0837727"
       color-interpolation-filters="sRGB"><feGaussianBlur
         stdDeviation="0.081792898"
         id="feGaussianBlur77" /></filter><filter
       id="l"
       x="-0.008958309"
       y="-0.040841859"
       width="1.0179209"
       height="1.081683"
       color-interpolation-filters="sRGB"><feGaussianBlur
         stdDeviation="0.081792898"
         id="feGaussianBlur80" /></filter><filter
       id="k"
       x="-0.0089871483"
       y="-0.051598337"
       width="1.0179719"
       height="1.1031966"
       color-interpolation-filters="sRGB"><feGaussianBlur
         stdDeviation="0.081792898"
         id="feGaussianBlur83" /></filter><filter
       id="j"
       x="-0.0089741321"
       y="-0.077529691"
       width="1.0179673"
       height="1.1550593"
       color-interpolation-filters="sRGB"><feGaussianBlur
         stdDeviation="0.081792898"
         id="feGaussianBlur86" /></filter><filter
       id="i"
       x="-0.012576642"
       y="-0.060988862"
       width="1.0251492"
       height="1.1219743"
       color-interpolation-filters="sRGB"><feGaussianBlur
         stdDeviation="0.081792898"
         id="feGaussianBlur89" /></filter><filter
       id="h"
       x="-0.0071003311"
       y="-0.051410247"
       width="1.0141928"
       height="1.1028203"
       color-interpolation-filters="sRGB"><feGaussianBlur
         stdDeviation="0.081792898"
         id="feGaussianBlur92" /></filter><filter
       id="g"
       x="-0.0070664966"
       y="-0.072300777"
       width="1.0141231"
       height="1.1446016"
       color-interpolation-filters="sRGB"><feGaussianBlur
         stdDeviation="0.081792898"
         id="feGaussianBlur95" /></filter><filter
       id="f"
       x="-0.0070741279"
       y="-0.049260538"
       width="1.0141408"
       height="1.0985205"
       color-interpolation-filters="sRGB"><feGaussianBlur
         stdDeviation="0.081792898"
         id="feGaussianBlur98" /></filter><filter
       id="e"
       x="-0.0096836416"
       y="-0.051261298"
       width="1.0193636"
       height="1.1025219"
       color-interpolation-filters="sRGB"><feGaussianBlur
         stdDeviation="0.081792898"
         id="feGaussianBlur101" /></filter><filter
       id="d"
       x="-0.04487304"
       y="-0.0091171907"
       width="1.0897475"
       height="1.0182402"
       color-interpolation-filters="sRGB"><feGaussianBlur
         stdDeviation="0.081792898"
         id="feGaussianBlur104" /></filter><filter
       id="c"
       x="-0.044823579"
       y="-0.0091635184"
       width="1.0896487"
       height="1.0183328"
       color-interpolation-filters="sRGB"><feGaussianBlur
         stdDeviation="0.081792898"
         id="feGaussianBlur107" /></filter><filter
       id="b"
       x="-0.051509593"
       y="-0.011621303"
       width="1.103017"
       height="1.0232366"
       color-interpolation-filters="sRGB"><feGaussianBlur
         stdDeviation="0.081792898"
         id="feGaussianBlur110" /></filter><filter
       id="an"
       x="-0.029929876"
       y="-0.011592859"
       width="1.0598634"
       height="1.0231836"
       color-interpolation-filters="sRGB"><feGaussianBlur
         stdDeviation="0.081792898"
         id="feGaussianBlur113" /></filter></defs><g
     id="g631"
     style="display:none"
     transform="translate(-0.19386751,16.20388)"><g
       fill="#daf0da"
       id="g124"
       transform="translate(-99.838,-88.142)"
       style="stroke:#000000;stroke-width:0.5;stroke-linecap:round;stroke-linejoin:round"><path
         d="m 285.07,63.985 c 0,0 -20.438,7.3536 -31.11,7.6047 -9.6238,0.22641 -28.345,-5.5307 -28.345,-5.5307 0,0 -17.314,25.254 -29.382,34.221 -6.1697,4.5842 -21.086,9.3331 -21.086,9.3331 0,0 38.23,14.571 58.072,13.481 9.0239,-0.4958 25.58,-8.9874 25.58,-8.9874 z"
         id="path118" /><path
         d="m 20.85,93.994 c 0,0 -3.6617,-2.1244 -5.0387,-3.6841 -1.2417,-1.4065 -2.7331,-4.9205 -2.7331,-4.9205 0,0 -5.9387,0.58825 -8.7904,-0.0857 -1.4579,-0.34453 -4.0382,-1.9725 -4.0382,-1.9725 0,0 2.6258,7.5292 5.2789,10.351 1.2066,1.2833 4.5507,2.6859 4.5507,2.6859 z"
         id="path120" /><path
         d="m 287.53,31.382 -16.824,-1.5532 c 0,0 -12.408,18.985 -20.601,26.67 -5.0988,4.7826 -17.383,11.733 -17.383,11.733 l 19.672,22.789 z"
         id="path122" /></g><path
       d="m 114.732,-22.258 c 0,0 5.6176,24.439 12.098,34.913 3.9873,6.4438 15.901,16.246 15.901,16.246 l -31.11,-9.3331 c 0,0 -6.5639,-10.894 -8.2961,-16.938 -4.0213,-14.03 -4.4937,-43.554 -4.4937,-43.554 0,0 4.5463,9.1005 7.9504,12.79 2.2348,2.4219 7.9504,5.8764 7.9504,5.8764 z"
       fill="#ffffef"
       id="path126"
       style="stroke:#000000;stroke-width:0.5;stroke-linecap:round;stroke-linejoin:round" /><path
       d="m -44.211,13.578 c 0,0 8.4166,8.7395 13.713,11.47 3.2588,1.6802 10.642,2.78 10.642,2.78 l -15.23,3.8757 c 0,0 -5.4361,-2.8848 -7.6597,-4.9606 -5.1622,-4.819 -12.711,-16.949 -12.711,-16.949 0,0 4.1523,2.6431 6.4833,3.3258 1.5302,0.4482 4.7616,0.45788 4.7616,0.45788 z"
       fill="#daf0da"
       id="path128"
       style="stroke:#000000;stroke-width:0.5;stroke-linecap:round;stroke-linejoin:round" /><path
       d="m 33.942,-10.145 c 0,0 -9.6296,-2.0645 -14.518,-2.074 -4.1878,-0.008 -12.444,1.7283 -12.444,1.7283 l 3.4567,12.79 c 0,0 8.7348,-1.5153 13.135,-1.3827 3.5028,0.1056 10.37,1.7284 10.37,1.7284 z"
       fill="#daf0da"
       id="path130"
       style="stroke:#000000;stroke-width:0.5;stroke-linecap:round;stroke-linejoin:round" /><path
       d="m -28.904,6.412 c 0,0 7.33,6.5775 11.567,9.0153 3.6299,2.0885 11.657,4.685 11.657,4.685 l 3.3571,-12.816 c 0,0 -8.3327,-3.0263 -12.085,-5.3286 -2.987,-1.8325 -8.1396,-6.6538 -8.1396,-6.6538 z"
       fill="#ffffef"
       id="path132"
       style="stroke:#000000;stroke-width:0.5;stroke-linecap:round;stroke-linejoin:round" /><path
       d="M 51.062,24.098 38.718,39.283 c 0,0 -12.289,-4.7423 -18.665,-6.3202 C 12.7699,31.1605 -2.173,29.406 -2.173,29.406 L 15.56,9.836 c 0,0 16.317,7.0419 24.591,10.279 3.6054,1.4107 10.911,3.9825 10.911,3.9825 z"
       fill="#daf0da"
       id="path134"
       style="stroke:#000000;stroke-width:0.5;stroke-linecap:round;stroke-linejoin:round" /><g
       fill="#ffffef"
       id="g142"
       transform="translate(-99.838,-88.142)"
       style="stroke:#000000;stroke-width:0.5;stroke-linecap:round;stroke-linejoin:round"><path
         d="m 231.99,28.03 c 0,0 9.3518,1.8998 13.481,4.148 3.304,1.7989 8.6417,7.2591 8.6417,7.2591 l -10.37,10.37 c 0,0 -11.103,-7.2427 -16.938,-10.37 -3.1351,-1.6804 -9.6787,-4.4937 -9.6787,-4.4937 z"
         id="path136" /><path
         d="m 281.55,105.61 c 0,0 -5.6932,7.6586 -9.4828,10.441 -3.0323,2.2266 -10.243,4.7387 -10.243,4.7387 l -4.9815,-13.794 c 0,0 11.274,-6.9737 16.584,-10.927 2.8532,-2.1241 8.1802,-6.8524 8.1802,-6.8524 z"
         id="path138" /><path
         d="m 70.728,110.58 c 0,0 -4.3744,2.6628 -6.82,3.2837 -1.9568,0.49681 -6.0494,0.294 -6.0494,0.294 l 0.30039,-7.8645 c 0,0 7.0124,-1.1981 10.45,-2.0949 1.847,-0.48187 5.4491,-1.7608 5.4491,-1.7608 z"
         id="path140" /></g><path
       d="m 54.062,2.938 c 0,0 8.484,-0.72579 12.524,-1.965 3.1196,-0.95689 8.8584,-4.1662 8.8584,-4.1662 l -7.3658,11.126 c 0,0 -8.5745,3.5697 -13.129,3.9489 -4.0775,0.33949 -12.178,-1.5431 -12.178,-1.5431 z"
       fill="#daf0da"
       id="path144"
       style="stroke:#000000;stroke-width:0.5;stroke-linecap:round;stroke-linejoin:round" /><path
       d="m -61.067,-0.515 c 0,0 8.484,-0.72579 12.524,-1.965 3.1196,-0.95689 8.8584,-4.1662 8.8584,-4.1662 l -7.3658,11.126 c 0,0 -8.5745,3.5697 -13.129,3.9489 -4.0775,0.33949 -12.178,-1.5431 -12.178,-1.5431 z"
       fill="#daf0da"
       id="path146"
       style="stroke:#000000;stroke-width:0.5;stroke-linecap:round;stroke-linejoin:round" /><g
       fill="#ffffef"
       id="g156"
       transform="translate(-99.838,-88.142)"
       style="stroke:#000000;stroke-width:0.5;stroke-linecap:round;stroke-linejoin:round"><path
         d="m 161.56,105.98 c 0,0 12.198,-7.5066 17.331,-12.424 3.9635,-3.797 10.159,-12.959 10.159,-12.959 l -2.6529,22.287 c 0,0 -10.183,11.848 -16.739,15.862 -5.8697,3.5938 -19.464,6.891 -19.464,6.891 z"
         id="path148" /><path
         d="m 275.96,0.24999 8.9874,32.493 c 0,0 -3.0558,2.5914 -4.8394,3.4567 -5.9381,2.8807 -19.012,5.5307 -19.012,5.5307 l -7.6047,-33.53 z"
         id="path150" /><path
         d="m 24.008,95.218 11.746,6.8149 c 0,0 -0.14859,1.6071 -0.41781,2.3589 -0.89635,2.5029 -3.9107,6.9512 -3.9107,6.9512 l -11.641,-7.5031 z"
         id="path152" /><path
         d="m 127.92,118.25 -11.662,-9.7647 c 0,0 0.47096,-1.7452 0.91168,-2.5235 1.4673,-2.5911 5.6437,-6.9245 5.6437,-6.9245 l 11.414,10.504 z"
         id="path154" /></g></g><path
     d="m 94.593109,69.484319 c 0,0 -9.6296,-2.0645 -14.518,-2.074 -4.1878,-0.008 -12.444,1.7283 -12.444,1.7283 l 3.4567,12.79 c 0,0 8.7348,-1.5153 13.135,-1.3827 3.5028,0.1056 10.37,1.7284 10.37,1.7284 z"
     fill="#daf0da"
     id="path4155"
     style="stroke:#000000;stroke-width:0.5;stroke-linecap:round;stroke-linejoin:round" /><path
     d="m 7.1151097,11.33132 c 0,0 5.0673993,19.966999 5.2916993,33.866999 0.2009,12.454 -1.5875,42.862 -1.5875,42.862 0,0 27.486,-0.85659 50.006,2.1167 18.811,2.4835 49.212001,17.462001 49.212001,17.462001 0,0 5.548,-21.075001 6.35,-42.598001 0.50587,-13.577 -5.5562,-40.480999 -5.5562,-40.480999 0,0 -35.064001,-19.7710009 -57.679001,-18.2560005 -14.109,0.94497 -46.0379993,5.0271005 -46.0379993,5.0271005 z"
     fill="#ffffff"
     stroke-width="0.5"
     id="path4185"
     style="stroke:#000000;stroke-linecap:round;stroke-linejoin:round;fill:#2a2a2a;fill-opacity:1;stroke-opacity:1" /><g
     fill="none"
     id="g4195"
     transform="translate(-39.186891,-8.5126809)"
     style="stroke:#ffffff;stroke-linecap:round;stroke-linejoin:round;stroke-opacity:1"><path
       d="m 64.799,27.452 0.21663,51.663"
       stroke-width="5"
       id="path4187"
       style="stroke:#ffffff;stroke-opacity:1" /><path
       d="m 66.359,46.934 c 6.8013,-1.2692 14.108,0.46443 19.614,4.6538 4.1567,3.1626 7.2743,7.6688 8.7684,12.674 1.4941,5.0048 1.3569,10.483 -0.38583,15.406"
       stroke-width="5"
       id="path4189"
       style="stroke:#ffffff;stroke-opacity:1" /><path
       d="m 138.3,50.264 0.56088,49.825 3.8949,0.0502"
       stroke-width="5"
       id="path4191"
       style="stroke:#ffffff;stroke-opacity:1" /><path
       d="m 137.92,50.699 c -3.7582,-2.454 -8.406,-3.5117 -12.856,-2.9255 -4.45,0.58621 -8.6654,2.8114 -11.66,6.155 -2.1491,2.3997 -3.6762,5.3682 -4.2841,8.5318 -0.60792,3.1635 -0.28227,6.5143 1.0116,9.4644 1.1958,2.7263 3.2106,5.0871 5.7152,6.6963 2.5046,1.6092 5.4892,2.4607 8.4659,2.4151 2.9767,-0.04553 5.9338,-0.98785 8.3881,-2.6729 2.4542,-1.6851 4.396,-4.1063 5.5078,-6.8679"
       stroke-width="5"
       id="path4193"
       style="stroke:#ffffff;stroke-opacity:1" /></g><path
     d="m 31.455109,107.97732 c 0,0 0.85222,-5.8833 2.4083,-9.411501 1.3942,-3.1611 5.9619,-10.057 5.9619,-10.057 0,0 -8.5363,-2.4249 -15.101,-5.3389 -5.4832,-2.434 -14.424,-9.4073 -14.424,-9.4073 0,0 -3.6367993,4.6439 -6.3987993,9.9965 -1.7423,3.3765 -2.1954,11.16 -2.1954,11.16 0,0 8.4507993,8.356901 15.5689993,10.148001 4.4408,1.1172 14.18,2.9106 14.18,2.9106 z"
     fill="#f2f3da"
     stroke-width="0.29776"
     id="path4197"
     style="fill:#c4e5f8;fill-opacity:1;stroke:#000000;stroke-linecap:round;stroke-linejoin:round" /><path
     d="m 9.7941097,95.397319 c 0,0 3.2323993,-2.733 5.7277993,-3.8785 2.2358,-1.0264 7.9264,-2.5444 7.9264,-2.5444 0,0 -3.4043,-5.3234 -5.5267,-9.9762 -1.7728,-3.8865 -3.245,-11.825 -3.245,-11.825 0,0 -4.1311,0.75757 -8.1307993,2.3059 -2.523,0.97669 -6.4398,4.9107 -6.4398,4.9107 0,0 0.55744,8.4444 3.5054,12.76 1.8391,2.6925 6.1828,8.2474 6.1828,8.2474 z"
     fill="#daf0da"
     stroke-width="0.21202"
     id="path4199"
     style="fill:#ede8f8;fill-opacity:1;stroke:#000000;stroke-linecap:round;stroke-linejoin:round" /><path
     d="m 5.0591097,77.358319 c 0,0 2.9391,-0.82009 4.9183998,-0.82124 1.7733995,-0.001 5.9584995,0.71342 5.9584995,0.71342 0,0 -0.63191,-4.511 -0.62522,-8.1975 0.006,-3.0793 1.4253,-8.7238 1.4253,-8.7238 0,0 -2.9347,-0.74439 -6.0208,-0.9311 -1.9466993,-0.11778 -5.6950993,1.2837 -5.6950993,1.2837 0,0 -2.1711,5.7011 -1.5356,9.4148 0.39646,2.3168 1.5744,7.2617 1.5744,7.2617 z"
     fill="#f2f3da"
     stroke-width="0.15284"
     id="path4201"
     style="fill:#c4e5f8;fill-opacity:1;stroke:#000000;stroke-linecap:round;stroke-linejoin:round" /><path
     d="m 68.463109,7.9503195 c 0,0 4.3457,5.6918005 6.099,9.7553005 1.5708,3.6409 3.7518,12.532999 3.7518,12.532999 0,0 9.0446,-3.1848 16.899,-4.713399 6.560701,-1.2769 19.833001,-0.7233 19.833001,-0.7233 0,0 -1.0112,-6.3372 -3.3434,-12.752 -1.4712,-4.0464005 -7.7706,-11.1570009 -7.7706,-11.1570009 0,0 -14.058001,-2.0726 -21.402001,0.786 -4.5816,1.7833 -14.067,6.2709004 -14.067,6.2709004 z"
     fill="#f2f3da"
     stroke-width="0.33281"
     id="path4203"
     style="fill:#c4e5f8;fill-opacity:1;stroke:#000000;stroke-linecap:round;stroke-linejoin:round" /><path
     d="m 95.593109,9.4693195 c 0,0 0.031,4.5521005 -0.6321,7.2862005 -0.59415,2.4497 -2.8861,7.7995 -2.8861,7.7995 0,0 5.8111,1.840399 10.385001,4.066899 3.8202,1.8598 10.349,7.2151 10.349,7.2151 0,0 1.9093,-3.6051 3.1772,-7.7546 0.79981,-2.617599 0.31882,-8.636899 0.31882,-8.636899 0,0 -6.3472,-6.4271 -11.17,-7.783 -3.0087,-0.8459 -9.541701,-2.1932005 -9.541701,-2.1932005 z"
     fill="#daf0da"
     stroke-width="0.21156"
     id="path4205"
     style="fill:#ede8f8;fill-opacity:1;stroke:#000000;stroke-linecap:round;stroke-linejoin:round" /></svg>
