<svg width="119.32mm" height="108.13mm" version="1.1" viewBox="0 0 119.32 108.13" xmlns="http://www.w3.org/2000/svg">
 <g transform="translate(-39.187 -8.5133)" display="none" stroke="#000" stroke-linecap="round" stroke-linejoin="round" stroke-width=".5">
  <g fill="#daf0da">
   <path d="m285.07 63.985s-20.438 7.3536-31.11 7.6047c-9.6238 0.22641-28.345-5.5307-28.345-5.5307s-17.314 25.254-29.382 34.221c-6.1697 4.5842-21.086 9.3331-21.086 9.3331s38.23 14.571 58.072 13.481c9.0239-0.4958 25.58-8.9874 25.58-8.9874z"/>
   <path d="m20.85 93.994s-3.6617-2.1244-5.0387-3.6841c-1.2417-1.4065-2.7331-4.9205-2.7331-4.9205s-5.9387 0.58825-8.7904-0.0857c-1.4579-0.34453-4.0382-1.9725-4.0382-1.9725s2.6258 7.5292 5.2789 10.351c1.2066 1.2833 4.5507 2.6859 4.5507 2.6859z"/>
   <path d="m287.53 31.382-16.824-1.5532s-12.408 18.985-20.601 26.67c-5.0988 4.7826-17.383 11.733-17.383 11.733l19.672 22.789z"/>
  </g>
  <path d="m214.57 65.884s5.6176 24.439 12.098 34.913c3.9873 6.4438 15.901 16.246 15.901 16.246l-31.11-9.3331s-6.5639-10.894-8.2961-16.938c-4.0213-14.03-4.4937-43.554-4.4937-43.554s4.5463 9.1005 7.9504 12.79c2.2348 2.4219 7.9504 5.8764 7.9504 5.8764z" fill="#ffffef"/>
  <path d="m55.627 101.72s8.4166 8.7395 13.713 11.47c3.2588 1.6802 10.642 2.78 10.642 2.78l-15.23 3.8757s-5.4361-2.8848-7.6597-4.9606c-5.1622-4.819-12.711-16.949-12.711-16.949s4.1523 2.6431 6.4833 3.3258c1.5302 0.4482 4.7616 0.45788 4.7616 0.45788z" fill="#daf0da"/>
  <path d="m133.78 77.997s-9.6296-2.0645-14.518-2.074c-4.1878-8e-3 -12.444 1.7283-12.444 1.7283l3.4567 12.79s8.7348-1.5153 13.135-1.3827c3.5028 0.1056 10.37 1.7284 10.37 1.7284z" fill="#daf0da"/>
  <path d="m70.934 94.554s7.33 6.5775 11.567 9.0153c3.6299 2.0885 11.657 4.685 11.657 4.685l3.3571-12.816s-8.3327-3.0263-12.085-5.3286c-2.987-1.8325-8.1396-6.6538-8.1396-6.6538z" fill="#ffffef"/>
  <path d="m150.9 112.24-12.344 15.185s-12.289-4.7423-18.665-6.3202c-7.2831-1.8023-22.226-3.5568-22.226-3.5568l17.733-19.57s16.317 7.0419 24.591 10.279c3.6054 1.4107 10.911 3.9825 10.911 3.9825z" fill="#daf0da"/>
  <g fill="#ffffef">
   <path d="m231.99 28.03s9.3518 1.8998 13.481 4.148c3.304 1.7989 8.6417 7.2591 8.6417 7.2591l-10.37 10.37s-11.103-7.2427-16.938-10.37c-3.1351-1.6804-9.6787-4.4937-9.6787-4.4937z"/>
   <path d="m281.55 105.61s-5.6932 7.6586-9.4828 10.441c-3.0323 2.2266-10.243 4.7387-10.243 4.7387l-4.9815-13.794s11.274-6.9737 16.584-10.927c2.8532-2.1241 8.1802-6.8524 8.1802-6.8524z"/>
   <path d="m70.728 110.58s-4.3744 2.6628-6.82 3.2837c-1.9568 0.49681-6.0494 0.294-6.0494 0.294l0.30039-7.8645s7.0124-1.1981 10.45-2.0949c1.847-0.48187 5.4491-1.7608 5.4491-1.7608z"/>
  </g>
  <path d="m153.9 91.08s8.484-0.72579 12.524-1.965c3.1196-0.95689 8.8584-4.1662 8.8584-4.1662l-7.3658 11.126s-8.5745 3.5697-13.129 3.9489c-4.0775 0.33949-12.178-1.5431-12.178-1.5431z" fill="#daf0da"/>
  <path d="m38.771 87.627s8.484-0.72579 12.524-1.965c3.1196-0.95689 8.8584-4.1662 8.8584-4.1662l-7.3658 11.126s-8.5745 3.5697-13.129 3.9489c-4.0775 0.33949-12.178-1.5431-12.178-1.5431z" fill="#daf0da"/>
  <g fill="#ffffef">
   <path d="m161.56 105.98s12.198-7.5066 17.331-12.424c3.9635-3.797 10.159-12.959 10.159-12.959l-2.6529 22.287s-10.183 11.848-16.739 15.862c-5.8697 3.5938-19.464 6.891-19.464 6.891z"/>
   <path d="m275.96 0.24999 8.9874 32.493s-3.0558 2.5914-4.8394 3.4567c-5.9381 2.8807-19.012 5.5307-19.012 5.5307l-7.6047-33.53z"/>
   <path d="m24.008 95.218 11.746 6.8149s-0.14859 1.6071-0.41781 2.3589c-0.89635 2.5029-3.9107 6.9512-3.9107 6.9512l-11.641-7.5031z"/>
   <path d="m127.92 118.25-11.662-9.7647s0.47096-1.7452 0.91168-2.5235c1.4673-2.5911 5.6437-6.9245 5.6437-6.9245l11.414 10.504z"/>
  </g>
 </g>
 <g transform="translate(-39.187 -8.5133)" stroke="#000" stroke-linecap="round" stroke-linejoin="round">
  <path d="m46.302 19.844s5.0674 19.967 5.2917 33.867c0.2009 12.454-1.5875 42.862-1.5875 42.862s27.486-0.85659 50.006 2.1167c18.811 2.4835 49.212 17.462 49.212 17.462s5.548-21.075 6.35-42.598c0.50587-13.577-5.5562-40.481-5.5562-40.481s-35.064-19.771-57.679-18.256c-14.109 0.94497-46.038 5.0271-46.038 5.0271z" fill="#fff" stroke-width=".5"/>
  <g fill="none">
   <path d="m64.799 27.452 0.21663 51.663" stroke-width="5"/>
   <path d="m66.359 46.934c6.8013-1.2692 14.108 0.46443 19.614 4.6538 4.1567 3.1626 7.2743 7.6688 8.7684 12.674 1.4941 5.0048 1.3569 10.483-0.38583 15.406" stroke-width="5"/>
   <path d="m138.3 50.264 0.56088 49.825 3.8949 0.0502" stroke-width="5"/>
   <path d="m137.92 50.699c-3.7582-2.454-8.406-3.5117-12.856-2.9255-4.45 0.58621-8.6654 2.8114-11.66 6.155-2.1491 2.3997-3.6762 5.3682-4.2841 8.5318-0.60792 3.1635-0.28227 6.5143 1.0116 9.4644 1.1958 2.7263 3.2106 5.0871 5.7152 6.6963 2.5046 1.6092 5.4892 2.4607 8.4659 2.4151 2.9767-0.04553 5.9338-0.98785 8.3881-2.6729 2.4542-1.6851 4.396-4.1063 5.5078-6.8679" stroke-width="5"/>
  </g>
  <g>
   <path d="m70.642 116.49s0.85222-5.8833 2.4083-9.4115c1.3942-3.1611 5.9619-10.057 5.9619-10.057s-8.5363-2.4249-15.101-5.3389c-5.4832-2.434-14.424-9.4073-14.424-9.4073s-3.6368 4.6439-6.3988 9.9965c-1.7423 3.3765-2.1954 11.16-2.1954 11.16s8.4508 8.3569 15.569 10.148c4.4408 1.1172 14.18 2.9106 14.18 2.9106z" fill="#f2f3da" stroke-width=".29776"/>
   <path d="m48.981 103.91s3.2324-2.733 5.7278-3.8785c2.2358-1.0264 7.9264-2.5444 7.9264-2.5444s-3.4043-5.3234-5.5267-9.9762c-1.7728-3.8865-3.245-11.825-3.245-11.825s-4.1311 0.75757-8.1308 2.3059c-2.523 0.97669-6.4398 4.9107-6.4398 4.9107s0.55744 8.4444 3.5054 12.76c1.8391 2.6925 6.1828 8.2474 6.1828 8.2474z" fill="#daf0da" stroke-width=".21202"/>
   <path d="m44.246 85.871s2.9391-0.82009 4.9184-0.82124c1.7734-1e-3 5.9585 0.71342 5.9585 0.71342s-0.63191-4.511-0.62522-8.1975c0.0056-3.0793 1.4253-8.7238 1.4253-8.7238s-2.9347-0.74439-6.0208-0.9311c-1.9467-0.11778-5.6951 1.2837-5.6951 1.2837s-2.1711 5.7011-1.5356 9.4148c0.39646 2.3168 1.5744 7.2617 1.5744 7.2617z" fill="#f2f3da" stroke-width=".15284"/>
   <path d="m107.65 16.463s4.3457 5.6918 6.099 9.7553c1.5708 3.6409 3.7518 12.533 3.7518 12.533s9.0446-3.1848 16.899-4.7134c6.5607-1.2769 19.833-0.7233 19.833-0.7233s-1.0112-6.3372-3.3434-12.752c-1.4712-4.0464-7.7706-11.157-7.7706-11.157s-14.058-2.0726-21.402 0.786c-4.5816 1.7833-14.067 6.2709-14.067 6.2709z" fill="#f2f3da" stroke-width=".33281"/>
   <path d="m134.78 17.982s0.031 4.5521-0.6321 7.2862c-0.59415 2.4497-2.8861 7.7995-2.8861 7.7995s5.8111 1.8404 10.385 4.0669c3.8202 1.8598 10.349 7.2151 10.349 7.2151s1.9093-3.6051 3.1772-7.7546c0.79981-2.6176 0.31882-8.6369 0.31882-8.6369s-6.3472-6.4271-11.17-7.783c-3.0087-0.8459-9.5417-2.1932-9.5417-2.1932z" fill="#daf0da" stroke-width=".21156"/>
  </g>
 </g>
</svg>
