<svg width="267.55mm" height="189.91mm" version="1.1" viewBox="0 0 267.55 189.91" xmlns="http://www.w3.org/2000/svg">
 <g stroke="#000" stroke-linecap="round" stroke-linejoin="round">
  <g>
   <path d="m37.542 29.604s31.287 11.257 47.625 11.642c14.733 0.34659 43.392-8.4667 43.392-8.4667s26.505 38.661 44.979 52.388c9.4448 7.0177 32.279 14.288 32.279 14.288s-58.524 22.306-88.9 20.637c-13.814-0.75899-39.158-13.758-39.158-13.758z" fill="#daf0da"/>
   <path d="m53.946 130.15 22.225-13.229s29.653 18.061 46.037 23.283c10.196 3.25 31.75 4.7625 31.75 4.7625l-12.171 44.45z" fill="#daf0da"/>
   <path d="m222.22 29.075s-8.5997 37.412-18.521 53.446c-6.1039 9.8644-24.342 24.871-24.342 24.871l47.625-14.288s10.048-16.678 12.7-25.929c6.156-21.478 6.8792-66.675 6.8792-66.675s-6.9596 13.932-12.171 19.579c-3.4211 3.7076-12.171 8.9958-12.171 8.9958z" fill="#ffffef"/>
  </g>
  <path d="m60.568 154.97s-12.884 13.379-20.993 17.559c-4.9887 2.5721-16.292 4.2557-16.292 4.2557l23.315 5.9331s8.3218-4.4162 11.726-7.5939c7.9025-7.3771 19.458-25.947 19.458-25.947s-6.3566 4.0462-9.9249 5.0914c-2.3426 0.68612-7.2893 0.70094-7.2893 0.70094z" fill="#daf0da" stroke-width=".48385"/>
  <g>
   <path d="m167.19 19.55s14.741-3.1604 22.225-3.175c6.4109-0.01247 19.05 2.6458 19.05 2.6458l-5.2917 19.579s-13.372-2.3197-20.108-2.1167c-5.3622 0.16164-15.875 2.6458-15.875 2.6458z" fill="#daf0da"/>
   <path d="m221.58 160.6s-11.221 10.069-17.708 13.801c-5.5569 3.1971-17.846 7.1721-17.846 7.1721l-5.1392-19.62s12.756-4.6328 18.501-8.1572c4.5727-2.8053 12.46-10.186 12.46-10.186z" fill="#ffffef"/>
   <path d="m169.83 151.31 28.575 8.9958s11.704-16.42 18.521-23.812c7.7865-8.4434 25.4-23.283 25.4-23.283l-39.158-10.054s-14.912 22.755-22.754 33.867c-3.4174 4.8423-10.583 14.288-10.583 14.288z" fill="#daf0da"/>
  </g>
 </g>
 <g fill="#ffffef" stroke="#000" stroke-linecap="round" stroke-linejoin="round">
  <g>
   <path d="m101.05 91.988s-14.316 2.9083-20.637 6.35c-5.058 2.7538-13.229 11.112-13.229 11.112l15.875 15.875s16.997-11.087 25.929-15.875c4.7993-2.5724 14.817-6.8792 14.817-6.8792z"/>
   <path d="m251.51 106.73s7.8496-12.321 9.7631-19.259c1.5311-5.5518 1.1915-17.236 1.1915-17.236l-22.447 0.39778s-3.8262 19.93-6.5845 29.681c-1.4821 5.2397-5.34 15.438-5.34 15.438z"/>
   <path d="m30.662 154.49s12.1 4.8491 17.462 8.4667c4.1412 2.7935 11.112 10.054 11.112 10.054l-5.8208-19.579s-10.963-9.054-17.462-11.642c-5.8194-2.3169-18.521-3.175-18.521-3.175z"/>
   <path d="m59.133 80.662s-11.101-6.8317-15.773-11.307c-3.6072-3.4556-9.2455-11.794-9.2455-11.794l2.4144 20.283s9.2678 10.783 15.234 14.436c5.3419 3.2707 17.714 6.2714 17.714 6.2714z"/>
   <path d="m14.258 66.646-13.758 49.742s4.6779 3.9671 7.4083 5.2917c9.0904 4.4099 29.104 8.4667 29.104 8.4667l11.642-51.329z"/>
  </g>
  <path d="m242.88 181.34 24.359-20.396s-0.98373-3.6454-1.9043-5.271c-3.0648-5.4121-11.788-14.464-11.788-14.464l-23.841 21.94z" stroke-width=".61559"/>
 </g>
</svg>
