<svg width="267.55mm" height="189.91mm" version="1.1" viewBox="0 0 267.55 189.91" xmlns="http://www.w3.org/2000/svg">
 <g stroke="#000" stroke-linecap="round" stroke-linejoin="round" stroke-width=".5">
  <path d="m47.703 63.117s20.438 7.3537 31.11 7.6047c9.6238 0.2264 28.345-5.5307 28.345-5.5307s17.314 25.254 29.382 34.221c6.1697 4.5842 21.086 9.3331 21.086 9.3331s-38.23 14.571-58.072 13.481c-9.0239-0.4958-25.58-8.9874-25.58-8.9874z" fill="#daf0da"/>
  <path d="m1.544 115.7 14.518-8.6417s19.37 11.798 30.073 15.209c6.6606 2.123 20.74 3.111 20.74 3.111l-7.9504 29.036z" fill="#daf0da"/>
  <path d="m66.566 61.275s-5.6176 24.439-12.098 34.913c-3.9873 6.4438-15.901 16.246-15.901 16.246l31.11-9.3331s6.5639-10.894 8.2961-16.938c4.0213-14.03 4.4937-43.554 4.4937-43.554s-4.5463 9.1005-7.9504 12.79c-2.2348 2.4219-7.9504 5.8764-7.9504 5.8764z" fill="#ffffef"/>
  <path d="m202.13 108.62s-19.291 16.021-30.797 20.416c-7.0788 2.7039-22.496 3.2698-22.496 3.2698l30.394 11.453s11.827-4.679 16.87-8.4327c11.708-8.7145 29.994-31.899 29.994-31.899s-9.1349 4.4769-14.079 5.3448c-3.2458 0.56973-9.8852-0.15129-9.8852-0.15129z" fill="#ffffef"/>
  <path d="m254.7 78.405s-8.4166 8.7395-13.713 11.47c-3.2588 1.6802-10.642 2.78-10.642 2.78l15.23 3.8757s5.4361-2.8848 7.6597-4.9606c5.1622-4.819 12.711-16.949 12.711-16.949s-4.1523 2.6431-6.4833 3.3258c-1.5302 0.4482-4.7616 0.45788-4.7616 0.45788z" fill="#daf0da"/>
  <path d="m200.49 87.98s9.6296-2.0645 14.518-2.074c4.1878-0.0081 12.444 1.7283 12.444 1.7283l-3.4567 12.79s-8.7348-1.5153-13.135-1.3827c-3.5028 0.10559-10.37 1.7283-10.37 1.7283z" fill="#daf0da"/>
  <path d="m255.48 67.494s-7.33 6.5775-11.567 9.0153c-3.6299 2.0885-11.657 4.685-11.657 4.685l-3.3571-12.816s8.3327-3.0263 12.085-5.3286c2.987-1.8325 8.1396-6.6538 8.1396-6.6538z" fill="#ffffef"/>
  <path d="m124.39 156.47 18.666 5.8764s7.6453-10.726 12.098-15.555c5.0864-5.5155 16.592-15.209 16.592-15.209l-25.58-6.5677s-9.7411 14.864-14.864 22.123c-2.2324 3.1631-6.9134 9.3331-6.9134 9.3331z" fill="#daf0da"/>
 </g>
 <g fill="#ffffef" stroke="#000" stroke-linecap="round" stroke-linejoin="round" stroke-width=".5">
  <path d="m138.95 76.553s-9.3518 1.8998-13.481 4.148c-3.304 1.7989-8.6417 7.2591-8.6417 7.2591l10.37 10.37s11.103-7.2427 16.938-10.37c3.1351-1.6804 9.6787-4.4937 9.6787-4.4937z"/>
  <path d="m14.558 81.172s5.6932 7.6586 9.4828 10.441c3.0323 2.2267 10.243 4.7387 10.243 4.7387l4.9815-13.794s-11.274-6.9737-16.584-10.927c-2.8532-2.1241-8.1802-6.8524-8.1802-6.8524z"/>
  <path d="m170.27 102.19s-8.484-0.72579-12.524-1.965c-3.1196-0.95689-8.8584-4.1662-8.8584-4.1662l7.3658 11.126s8.5745 3.5697 13.129 3.9489c4.0775 0.33949 12.178-1.5431 12.178-1.5431z"/>
  <path d="m52.597 34.769s-12.198-7.5067-17.331-12.424c-3.9635-3.797-10.159-12.959-10.159-12.959l2.6529 22.287s10.183 11.848 16.739 15.862c5.8697 3.5938 19.464 6.891 19.464 6.891z"/>
  <path d="m88.62 115-8.9874 32.493s3.0558 2.5914 4.8394 3.4567c5.9381 2.8807 19.012 5.5307 19.012 5.5307l7.6047-33.53z"/>
  <path d="m184.27 103.17 11.662-9.7647s-0.47096-1.7452-0.91168-2.5235c-1.4673-2.5911-5.6437-6.9245-5.6437-6.9245l-11.414 10.504z"/>
 </g>
</svg>
