<?xml version="1.0" encoding="UTF-8" standalone="no"?>
<!-- Created with Inkscape (http://www.inkscape.org/) -->

<svg
   width="287.78036mm"
   height="127.675mm"
   viewBox="0 0 287.78039 127.675"
   version="1.1"
   id="svg5"
   inkscape:version="1.2 (dc2aedaf03, 2022-05-15)"
   sodipodi:docname="papersCornerFlip2.svg"
   xml:space="preserve"
   xmlns:inkscape="http://www.inkscape.org/namespaces/inkscape"
   xmlns:sodipodi="http://sodipodi.sourceforge.net/DTD/sodipodi-0.dtd"
   xmlns="http://www.w3.org/2000/svg"
   xmlns:svg="http://www.w3.org/2000/svg"><sodipodi:namedview
     id="namedview7"
     pagecolor="#ffffff"
     bordercolor="#000000"
     borderopacity="0.25"
     inkscape:showpageshadow="2"
     inkscape:pageopacity="0.0"
     inkscape:pagecheckerboard="0"
     inkscape:deskcolor="#d1d1d1"
     inkscape:document-units="mm"
     showgrid="false"
     inkscape:zoom="0.5"
     inkscape:cx="599"
     inkscape:cy="277"
     inkscape:window-width="1600"
     inkscape:window-height="871"
     inkscape:window-x="-9"
     inkscape:window-y="-9"
     inkscape:window-maximized="1"
     inkscape:current-layer="layer4" /><defs
     id="defs2"><inkscape:path-effect
       effect="spiro"
       id="path-effect35134"
       is_visible="true"
       lpeversion="1" /><inkscape:path-effect
       effect="spiro"
       id="path-effect35130"
       is_visible="true"
       lpeversion="1" /><inkscape:path-effect
       effect="spiro"
       id="path-effect35126"
       is_visible="true"
       lpeversion="1" /><inkscape:path-effect
       effect="spiro"
       id="path-effect35122"
       is_visible="true"
       lpeversion="1" /><inkscape:path-effect
       effect="spiro"
       id="path-effect35118"
       is_visible="true"
       lpeversion="1" /><inkscape:path-effect
       effect="spiro"
       id="path-effect35114"
       is_visible="true"
       lpeversion="1" /><inkscape:path-effect
       effect="spiro"
       id="path-effect35110"
       is_visible="true"
       lpeversion="1" /><inkscape:path-effect
       effect="spiro"
       id="path-effect35106"
       is_visible="true"
       lpeversion="1" /><inkscape:path-effect
       effect="spiro"
       id="path-effect35102"
       is_visible="true"
       lpeversion="1" /><inkscape:path-effect
       effect="spiro"
       id="path-effect35098"
       is_visible="true"
       lpeversion="1" /><inkscape:path-effect
       effect="spiro"
       id="path-effect35094"
       is_visible="true"
       lpeversion="1" /><inkscape:path-effect
       effect="spiro"
       id="path-effect35090"
       is_visible="true"
       lpeversion="1" /><inkscape:path-effect
       effect="spiro"
       id="path-effect35026"
       is_visible="true"
       lpeversion="1" /><inkscape:path-effect
       effect="spiro"
       id="path-effect34272"
       is_visible="true"
       lpeversion="1" /><inkscape:path-effect
       effect="spiro"
       id="path-effect34268"
       is_visible="true"
       lpeversion="1" /><inkscape:path-effect
       effect="spiro"
       id="path-effect34264"
       is_visible="true"
       lpeversion="1" /><inkscape:path-effect
       effect="spiro"
       id="path-effect34260"
       is_visible="true"
       lpeversion="1" /><inkscape:path-effect
       effect="spiro"
       id="path-effect34256"
       is_visible="true"
       lpeversion="1" /><inkscape:path-effect
       effect="spiro"
       id="path-effect34252"
       is_visible="true"
       lpeversion="1" /><inkscape:path-effect
       effect="spiro"
       id="path-effect34248"
       is_visible="true"
       lpeversion="1" /><inkscape:path-effect
       effect="spiro"
       id="path-effect34244"
       is_visible="true"
       lpeversion="1" /><inkscape:path-effect
       effect="spiro"
       id="path-effect34240"
       is_visible="true"
       lpeversion="1" /></defs><g
     id="g34040"
     style="display:none"
     transform="translate(-14.402569,-42.527409)"><path
       style="opacity:1;fill:#daf0da;fill-opacity:1;stroke:#000000;stroke-width:0.5;stroke-linecap:round;stroke-linejoin:round;stroke-dasharray:none;stroke-dashoffset:0;stroke-opacity:1"
       d="m 285.07229,63.984808 c 0,0 -20.43779,7.35365 -31.11025,7.60472 -9.62382,0.22641 -28.34489,-5.53071 -28.34489,-5.53071 0,0 -17.31381,25.254413 -29.3819,34.221282 -6.16967,4.5842 -21.08582,9.33307 -21.08582,9.33307 0,0 38.23014,14.57131 58.07245,13.48111 9.02388,-0.4958 25.57953,-8.98741 25.57953,-8.98741 z"
       id="path18474"
       sodipodi:nodetypes="cscscscc" /><path
       style="fill:#daf0da;fill-opacity:1;stroke:#000000;stroke-width:0.5;stroke-linecap:round;stroke-linejoin:round;stroke-dasharray:none;stroke-dashoffset:0;stroke-opacity:1"
       d="m 20.850258,93.993721 c 0,0 -3.6617,-2.12435 -5.03868,-3.68413 -1.24169,-1.40653 -2.73306,-4.92051 -2.73306,-4.92051 0,0 -5.9386501,0.58825 -8.7903601,-0.0857 -1.45791,-0.34453 -4.03818004,-1.972534 -4.03818004,-1.972534 0,0 2.62582004,7.529164 5.27887004,10.350884 1.20656,1.28326 4.5506601,2.68594 4.5506601,2.68594 z"
       id="path18474-5"
       sodipodi:nodetypes="cscscscc" /><path
       style="opacity:1;fill:#daf0da;fill-opacity:1;stroke:#000000;stroke-width:0.5;stroke-linecap:round;stroke-linejoin:round;stroke-dasharray:none;stroke-dashoffset:0;stroke-opacity:1"
       d="m 287.53153,31.381968 -16.82388,-1.553183 c 0,0 -12.4081,18.985202 -20.60134,26.670422 -5.09875,4.7826 -17.38288,11.73323 -17.38288,11.73323 l 19.67161,22.789024 z"
       id="path18539"
       sodipodi:nodetypes="ccsccc" /><path
       style="opacity:1;fill:#ffffef;fill-opacity:1;stroke:#000000;stroke-width:0.5;stroke-linecap:round;stroke-linejoin:round;stroke-dasharray:none;stroke-dashoffset:0;stroke-opacity:1"
       d="m 214.57342,65.884204 c 0,0 5.61761,24.439087 12.09843,34.912616 3.98727,6.44375 15.9008,16.24646 15.9008,16.24646 L 211.4624,107.7102 c 0,0 -6.56393,-10.894329 -8.29607,-16.937799 -4.02127,-14.030287 -4.4937,-43.554357 -4.4937,-43.554357 0,0 4.54627,9.10054 7.9504,12.78978 2.23478,2.42194 7.95039,5.87638 7.95039,5.87638 z"
       id="path18541"
       sodipodi:nodetypes="csccscsc" /><path
       style="fill:#daf0da;fill-opacity:1;stroke:#000000;stroke-width:0.5;stroke-linecap:round;stroke-linejoin:round;stroke-dasharray:none;stroke-dashoffset:0;stroke-opacity:1"
       d="m 55.627268,101.72332 c 0,0 8.41657,8.73946 13.71336,11.47041 3.25881,1.6802 10.64227,2.77995 10.64227,2.77995 l -15.23017,3.8757 c 0,0 -5.43606,-2.88483 -7.65966,-4.96058 -5.1622,-4.81896 -12.71066,-16.949209 -12.71066,-16.949209 0,0 4.15234,2.643129 6.48326,3.325849 1.53023,0.4482 4.7616,0.45788 4.7616,0.45788 z"
       id="path18541-5"
       sodipodi:nodetypes="csccscsc" /><path
       style="opacity:1;fill:#daf0da;fill-opacity:1;stroke:#000000;stroke-width:0.5;stroke-linecap:round;stroke-linejoin:round;stroke-dasharray:none;stroke-dashoffset:0;stroke-opacity:1"
       d="m 133.77972,77.99683 c 0,0 -9.62962,-2.0645 -14.51811,-2.07401 -4.18784,-0.008 -12.4441,1.72834 -12.4441,1.72834 l 3.45669,12.789771 c 0,0 8.73477,-1.51533 13.13544,-1.38268 3.50278,0.1056 10.37008,1.72835 10.37008,1.72835 z"
       id="path18543"
       sodipodi:nodetypes="csccscc" /><path
       style="fill:#ffffef;fill-opacity:1;stroke:#000000;stroke-width:0.5;stroke-linecap:round;stroke-linejoin:round;stroke-dasharray:none;stroke-dashoffset:0;stroke-opacity:1"
       d="m 70.933778,94.553861 c 0,0 7.33001,6.577459 11.56725,9.015319 3.62993,2.08848 11.65733,4.68504 11.65733,4.68504 l 3.35706,-12.816279 c 0,0 -8.3327,-3.02631 -12.08543,-5.32859 -2.98705,-1.83253 -8.13961,-6.653763 -8.13961,-6.653763 z"
       id="path18543-1"
       sodipodi:nodetypes="csccscc" /><path
       style="opacity:1;fill:#daf0da;fill-opacity:1;stroke:#000000;stroke-width:0.5;stroke-linecap:round;stroke-linejoin:round;stroke-dasharray:none;stroke-dashoffset:0;stroke-opacity:1"
       d="m 150.89605,112.24377 -12.34367,15.18521 c 0,0 -12.28879,-4.74228 -18.66518,-6.32019 -7.2831,-1.80229 -22.225562,-3.55677 -22.225562,-3.55677 L 115.39495,97.982221 c 0,0 16.31712,7.041909 24.59051,10.279049 3.60541,1.41069 10.91059,3.9825 10.91059,3.9825 z"
       id="path18545"
       sodipodi:nodetypes="ccsccsc" /><path
       style="opacity:1;fill:#ffffef;fill-opacity:1;stroke:#000000;stroke-width:0.5;stroke-linecap:round;stroke-linejoin:round;stroke-dasharray:none;stroke-dashoffset:0;stroke-opacity:1"
       d="m 231.98949,28.029717 c 0,0 9.35185,1.899824 13.48111,4.148035 3.30402,1.798901 8.64173,7.259058 8.64173,7.259058 l -10.37008,10.370078 c 0,0 -11.10301,-7.242696 -16.9378,-10.370078 -3.13508,-1.680372 -9.67874,-4.493705 -9.67874,-4.493705 z"
       id="path18547"
       sodipodi:nodetypes="csccscc" /><path
       style="fill:#ffffef;fill-opacity:1;stroke:#000000;stroke-width:0.5;stroke-linecap:round;stroke-linejoin:round;stroke-dasharray:none;stroke-dashoffset:0;stroke-opacity:1"
       d="m 281.54824,105.61303 c 0,0 -5.69322,7.65858 -9.48283,10.44138 -3.03227,2.22665 -10.24295,4.73873 -10.24295,4.73873 l -4.98151,-13.79355 c 0,0 11.27389,-6.97374 16.58402,-10.926939 2.85318,-2.12408 8.18021,-6.8524 8.18021,-6.8524 z"
       id="path18547-2"
       sodipodi:nodetypes="csccscc" /><path
       style="fill:#ffffef;fill-opacity:1;stroke:#000000;stroke-width:0.5;stroke-linecap:round;stroke-linejoin:round;stroke-dasharray:none;stroke-dashoffset:0;stroke-opacity:1"
       d="m 70.727598,110.57862 c 0,0 -4.37445,2.66277 -6.81996,3.28368 -1.95678,0.49681 -6.04944,0.294 -6.04944,0.294 l 0.30039,-7.86446 c 0,0 7.01242,-1.19807 10.44999,-2.09489 1.84704,-0.48187 5.44914,-1.76084 5.44914,-1.76084 z"
       id="path18547-2-2"
       sodipodi:nodetypes="csccscc" /><path
       style="opacity:1;fill:#daf0da;fill-opacity:1;stroke:#000000;stroke-width:0.5;stroke-linecap:round;stroke-linejoin:round;stroke-dasharray:none;stroke-dashoffset:0;stroke-opacity:1"
       d="m 153.89668,91.079691 c 0,0 8.484,-0.72579 12.52395,-1.96498 3.11962,-0.95689 8.85842,-4.16621 8.85842,-4.16621 l -7.36578,11.12571 c 0,0 -8.57448,3.56974 -13.12859,3.948899 -4.07753,0.33949 -12.17753,-1.543109 -12.17753,-1.543109 z"
       id="path18549"
       sodipodi:nodetypes="csccscc" /><path
       style="fill:#daf0da;fill-opacity:1;stroke:#000000;stroke-width:0.5;stroke-linecap:round;stroke-linejoin:round;stroke-dasharray:none;stroke-dashoffset:0;stroke-opacity:1"
       d="m 38.771478,87.627331 c 0,0 8.484,-0.72579 12.52395,-1.96498 3.11962,-0.95689 8.85842,-4.166214 8.85842,-4.166214 l -7.36578,11.125714 c 0,0 -8.57448,3.56974 -13.12859,3.9489 -4.07753,0.33949 -12.17753,-1.54311 -12.17753,-1.54311 z"
       id="path18549-4"
       sodipodi:nodetypes="csccscc" /><path
       style="fill:#ffffef;fill-opacity:1;stroke:#000000;stroke-width:0.5;stroke-linecap:round;stroke-linejoin:round;stroke-dasharray:none;stroke-dashoffset:0;stroke-opacity:1"
       d="m 161.56414,105.98199 c 0,0 12.19817,-7.506649 17.33096,-12.423769 3.96349,-3.79697 10.15881,-12.958973 10.15881,-12.958973 l -2.65293,22.286662 c 0,0 -10.18331,11.84804 -16.73903,15.86185 -5.86968,3.59377 -19.46353,6.89095 -19.46353,6.89095 z"
       id="path18549-5"
       sodipodi:nodetypes="csccscc" /><path
       style="opacity:1;fill:#ffffef;fill-opacity:1;stroke:#000000;stroke-width:0.5;stroke-linecap:round;stroke-linejoin:round;stroke-dasharray:none;stroke-dashoffset:0;stroke-opacity:1"
       d="m 275.96023,0.24999249 8.9874,32.49291851 c 0,0 -3.05579,2.59145 -4.83937,3.4567 -5.93813,2.8807 -19.01183,5.53071 -19.01183,5.53071 L 253.4917,8.2003825 Z"
       id="path18551"
       sodipodi:nodetypes="ccsccc" /><path
       style="fill:#ffffef;fill-opacity:1;stroke:#000000;stroke-width:0.5;stroke-linecap:round;stroke-linejoin:round;stroke-dasharray:none;stroke-dashoffset:0;stroke-opacity:1"
       d="m 24.007738,95.218241 11.74642,6.814919 c 0,0 -0.14859,1.60711 -0.41781,2.35889 -0.89635,2.50294 -3.91074,6.95121 -3.91074,6.95121 l -11.64098,-7.50309 z"
       id="path18551-3"
       sodipodi:nodetypes="ccsccc" /><path
       style="fill:#ffffef;fill-opacity:1;stroke:#000000;stroke-width:0.5;stroke-linecap:round;stroke-linejoin:round;stroke-dasharray:none;stroke-dashoffset:0;stroke-opacity:1"
       d="m 127.92467,118.25396 -11.6619,-9.76471 c 0,0 0.47096,-1.74525 0.91168,-2.52351 1.46729,-2.59108 5.64367,-6.924509 5.64367,-6.924509 l 11.41408,10.504039 z"
       id="path18551-2"
       sodipodi:nodetypes="ccsccc" /></g><g
     inkscape:groupmode="layer"
     id="layer4"
     inkscape:label="Layer 1"
     transform="translate(-14.402569,-42.527409)"><path
       d="m 299.47374,106.51241 c 0,0 -20.438,7.3536 -31.11,7.6047 -9.6238,0.22641 -28.345,-5.5307 -28.345,-5.5307 0,0 -17.314,25.254 -29.38199,34.221 -6.1697,4.5842 -21.086,9.3331 -21.086,9.3331 0,0 38.22999,14.571 58.07199,13.481 9.0239,-0.4958 25.58,-8.9874 25.58,-8.9874 z"
       id="path16015"
       style="fill:#8fd3ff;fill-opacity:1;stroke:#000000;stroke-width:0.5;stroke-linecap:round;stroke-linejoin:round" /><path
       d="m 35.252946,136.52141 c 0,0 -3.6617,-2.1244 -5.0387,-3.6841 -1.2417,-1.4065 -2.7331,-4.9205 -2.7331,-4.9205 0,0 -5.9386,0.58825 -8.7904,-0.0857 -1.4579,-0.34453 -4.0382,-1.9725 -4.0382,-1.9725 0,0 2.6258,7.5292 5.2789,10.351 1.2066,1.2833 4.5507,2.6859 4.5507,2.6859 z"
       id="path16017"
       style="fill:#8fd3ff;fill-opacity:1;stroke:#000000;stroke-width:0.5;stroke-linecap:round;stroke-linejoin:round" /><path
       d="m 301.93296,73.909411 -16.824,-1.5532 c 0,0 -12.408,18.985 -20.601,26.67 -5.0987,4.782599 -17.383,11.732999 -17.383,11.732999 l 19.672,22.789 z"
       id="path16019"
       style="fill:#8fd3ff;fill-opacity:1;stroke:#000000;stroke-width:0.5;stroke-linecap:round;stroke-linejoin:round" /><path
       d="m 228.97494,108.41141 c 0,0 5.6176,24.439 12.098,34.913 3.9873,6.4438 15.901,16.246 15.901,16.246 l -31.11,-9.3331 c 0,0 -6.5639,-10.894 -8.2961,-16.938 -4.02129,-14.03 -4.49369,-43.553999 -4.49369,-43.553999 0,0 4.54629,9.1005 7.95039,12.789999 2.2348,2.4219 7.9504,5.8764 7.9504,5.8764 z"
       fill="#ffffef"
       id="path16023"
       style="fill:#ffdbef;fill-opacity:1;stroke:#000000;stroke-width:0.5;stroke-linecap:round;stroke-linejoin:round" /><path
       d="m 70.032946,144.24741 c 0,0 8.4166,8.7395 13.713,11.47 3.2588,1.6802 10.642,2.78 10.642,2.78 l -15.23,3.8757 c 0,0 -5.4361,-2.8848 -7.6597,-4.9606 -5.1622,-4.819 -12.711,-16.949 -12.711,-16.949 0,0 4.1523,2.6431 6.4833,3.3258 1.5302,0.4482 4.7616,0.45788 4.7616,0.45788 z"
       fill="#daf0da"
       id="path16025"
       style="fill:#8fd3ff;fill-opacity:1;stroke:#000000;stroke-width:0.5;stroke-linecap:round;stroke-linejoin:round" /><path
       d="m 148.18295,120.52441 c 0,0 -9.6296,-2.0645 -14.518,-2.074 -4.1878,-0.008 -12.444,1.7283 -12.444,1.7283 l 3.4567,12.79 c 0,0 8.7348,-1.5153 13.135,-1.3827 3.5028,0.1056 10.37,1.7284 10.37,1.7284 z"
       fill="#daf0da"
       id="path16027"
       style="fill:#8fd3ff;fill-opacity:1;stroke:#000000;stroke-width:0.5;stroke-linecap:round;stroke-linejoin:round" /><path
       d="m 85.332946,137.08141 c 0,0 7.33,6.5775 11.567,9.0153 3.629904,2.0885 11.657004,4.685 11.657004,4.685 l 3.3571,-12.816 c 0,0 -8.3327,-3.0263 -12.085004,-5.3286 -2.987,-1.8325 -8.1396,-6.6538 -8.1396,-6.6538 z"
       fill="#ffffef"
       id="path16029"
       style="fill:#ffdbef;fill-opacity:1;stroke:#000000;stroke-width:0.5;stroke-linecap:round;stroke-linejoin:round" /><path
       d="m 165.29295,154.76741 -12.344,15.185 c 0,0 -12.289,-4.7423 -18.665,-6.3202 -7.2831,-1.8023 -22.226,-3.5568 -22.226,-3.5568 l 17.733,-19.57 c 0,0 16.317,7.0419 24.591,10.279 3.6054,1.4107 10.911,3.9825 10.911,3.9825 z"
       fill="#daf0da"
       id="path16031"
       style="fill:#8fd3ff;fill-opacity:1;stroke:#000000;stroke-width:0.5;stroke-linecap:round;stroke-linejoin:round" /><path
       d="m 246.39094,70.557411 c 0,0 9.3518,1.8998 13.481,4.148 3.304,1.7989 8.6417,7.2591 8.6417,7.2591 l -10.37,10.37 c 0,0 -11.103,-7.2427 -16.938,-10.37 -3.1351,-1.6804 -9.6787,-4.4937 -9.6787,-4.4937 z"
       id="path16035"
       style="fill:#ffdbef;fill-opacity:1;stroke:#000000;stroke-width:0.5;stroke-linecap:round;stroke-linejoin:round" /><path
       d="m 295.94964,148.13741 c 0,0 -5.6932,7.6586 -9.4828,10.441 -3.0323,2.2266 -10.243,4.7387 -10.243,4.7387 l -4.9815,-13.794 c 0,0 11.274,-6.9737 16.584,-10.927 2.8532,-2.1241 8.1802,-6.8524 8.1802,-6.8524 z"
       id="path16037"
       style="fill:#ffdbef;fill-opacity:1;stroke:#000000;stroke-width:0.5;stroke-linecap:round;stroke-linejoin:round" /><path
       d="m 85.132946,153.10741 c 0,0 -4.3744,2.6628 -6.82,3.2837 -1.9568,0.49681 -6.0494,0.294 -6.0494,0.294 l 0.30039,-7.8645 c 0,0 7.0124,-1.1981 10.45,-2.0949 1.847,-0.48187 5.4491,-1.7608 5.4491,-1.7608 z"
       id="path16039"
       style="fill:#ffdbef;fill-opacity:1;stroke:#000000;stroke-width:0.5;stroke-linecap:round;stroke-linejoin:round" /><path
       d="m 168.30295,133.60741 c 0,0 8.484,-0.72579 12.524,-1.965 3.1196,-0.95689 8.8584,-4.1662 8.8584,-4.1662 l -7.3658,11.126 c 0,0 -8.5745,3.5697 -13.129,3.9489 -4.0775,0.33949 -12.178,-1.5431 -12.178,-1.5431 z"
       fill="#daf0da"
       stroke="#000000"
       stroke-linecap="round"
       stroke-linejoin="round"
       stroke-width="0.5"
       id="path16043"
       style="fill:#8fd3ff;fill-opacity:1" /><path
       d="m 53.172946,130.15441 c 0,0 8.484,-0.72579 12.524,-1.965 3.1196,-0.95689 8.8584,-4.1662 8.8584,-4.1662 l -7.3658,11.126 c 0,0 -8.5745,3.5697 -13.129,3.9489 -4.0775,0.33949 -12.178,-1.5431 -12.178,-1.5431 z"
       fill="#daf0da"
       stroke="#000000"
       stroke-linecap="round"
       stroke-linejoin="round"
       stroke-width="0.5"
       id="path16045"
       style="fill:#8fd3ff;fill-opacity:1" /><path
       d="m 175.96295,148.50741 c 0,0 12.198,-7.5066 17.331,-12.424 3.9635,-3.797 10.159,-12.959 10.159,-12.959 l -2.6529,22.287 c 0,0 -10.183,11.848 -16.739,15.862 -5.8697,3.5938 -19.464,6.891 -19.464,6.891 z"
       id="path16047"
       style="fill:#ffdbef;fill-opacity:1;stroke:#000000;stroke-width:0.5;stroke-linecap:round;stroke-linejoin:round" /><path
       d="m 290.36194,42.777401 8.9874,32.493 c 0,0 -3.0558,2.5914 -4.8394,3.4567 -5.9381,2.8807 -19.012,5.5307 -19.012,5.5307 l -7.6047,-33.53 z"
       id="path16049"
       style="fill:#ffdbef;fill-opacity:1;stroke:#000000;stroke-width:0.5;stroke-linecap:round;stroke-linejoin:round" /><path
       d="m 38.412946,137.74541 11.746,6.8149 c 0,0 -0.14859,1.6071 -0.41781,2.3589 -0.89635,2.5029 -3.9107,6.9512 -3.9107,6.9512 l -11.641,-7.5031 z"
       id="path16051"
       style="fill:#ffdbef;fill-opacity:1;stroke:#000000;stroke-width:0.5;stroke-linecap:round;stroke-linejoin:round" /><path
       d="m 142.32295,160.77741 -11.662,-9.7647 c 0,0 0.47096,-1.7452 0.91168,-2.5235 1.4673,-2.5911 5.6437,-6.9245 5.6437,-6.9245 l 11.414,10.504 z"
       id="path16053"
       style="fill:#ffdbef;fill-opacity:1;stroke:#000000;stroke-width:0.5;stroke-linecap:round;stroke-linejoin:round" /></g></svg>
