<svg width="287.78mm" height="127.68mm" version="1.1" viewBox="0 0 287.78 127.68" xmlns="http://www.w3.org/2000/svg">
 <g fill="#daf0da" stroke="#000" stroke-linecap="round" stroke-linejoin="round" stroke-width=".5">
  <path d="m285.07 63.985s-20.438 7.3536-31.11 7.6047c-9.6238 0.22641-28.345-5.5307-28.345-5.5307s-17.314 25.254-29.382 34.221c-6.1697 4.5842-21.086 9.3331-21.086 9.3331s38.23 14.571 58.072 13.481c9.0239-0.4958 25.58-8.9874 25.58-8.9874z"/>
  <path d="m20.85 93.994s-3.6617-2.1244-5.0387-3.6841c-1.2417-1.4065-2.7331-4.9205-2.7331-4.9205s-5.9387 0.58825-8.7904-0.0857c-1.4579-0.34453-4.0382-1.9725-4.0382-1.9725s2.6258 7.5292 5.2789 10.351c1.2066 1.2833 4.5507 2.6859 4.5507 2.6859z"/>
  <path d="m287.53 31.382-16.824-1.5532s-12.408 18.985-20.601 26.67c-5.0988 4.7826-17.383 11.733-17.383 11.733l19.672 22.789z"/>
 </g>
 <g stroke="#000" stroke-linecap="round" stroke-linejoin="round" stroke-width=".5">
  <path d="m214.57 65.884s5.6176 24.439 12.098 34.913c3.9873 6.4438 15.901 16.246 15.901 16.246l-31.11-9.3331s-6.5639-10.894-8.2961-16.938c-4.0213-14.03-4.4937-43.554-4.4937-43.554s4.5463 9.1005 7.9504 12.79c2.2348 2.4219 7.9504 5.8764 7.9504 5.8764z" fill="#ffffef"/>
  <path d="m55.627 101.72s8.4166 8.7395 13.713 11.47c3.2588 1.6802 10.642 2.78 10.642 2.78l-15.23 3.8757s-5.4361-2.8848-7.6597-4.9606c-5.1622-4.819-12.711-16.949-12.711-16.949s4.1523 2.6431 6.4833 3.3258c1.5302 0.4482 4.7616 0.45788 4.7616 0.45788z" fill="#daf0da"/>
  <path d="m133.78 77.997s-9.6296-2.0645-14.518-2.074c-4.1878-8e-3 -12.444 1.7283-12.444 1.7283l3.4567 12.79s8.7348-1.5153 13.135-1.3827c3.5028 0.1056 10.37 1.7284 10.37 1.7284z" fill="#daf0da"/>
  <path d="m70.934 94.554s7.33 6.5775 11.567 9.0153c3.6299 2.0885 11.657 4.685 11.657 4.685l3.3571-12.816s-8.3327-3.0263-12.085-5.3286c-2.987-1.8325-8.1396-6.6538-8.1396-6.6538z" fill="#ffffef"/>
  <path d="m150.9 112.24-12.344 15.185s-12.289-4.7423-18.665-6.3202c-7.2831-1.8023-22.226-3.5568-22.226-3.5568l17.733-19.57s16.317 7.0419 24.591 10.279c3.6054 1.4107 10.911 3.9825 10.911 3.9825z" fill="#daf0da"/>
 </g>
 <g fill="#ffffef" stroke="#000" stroke-linecap="round" stroke-linejoin="round" stroke-width=".5">
  <path d="m231.99 28.03s9.3518 1.8998 13.481 4.148c3.304 1.7989 8.6417 7.2591 8.6417 7.2591l-10.37 10.37s-11.103-7.2427-16.938-10.37c-3.1351-1.6804-9.6787-4.4937-9.6787-4.4937z"/>
  <path d="m281.55 105.61s-5.6932 7.6586-9.4828 10.441c-3.0323 2.2266-10.243 4.7387-10.243 4.7387l-4.9815-13.794s11.274-6.9737 16.584-10.927c2.8532-2.1241 8.1802-6.8524 8.1802-6.8524z"/>
  <path d="m70.728 110.58s-4.3744 2.6628-6.82 3.2837c-1.9568 0.49681-6.0494 0.294-6.0494 0.294l0.30039-7.8645s7.0124-1.1981 10.45-2.0949c1.847-0.48187 5.4491-1.7608 5.4491-1.7608z"/>
 </g>
 <path d="m153.9 91.08s8.484-0.72579 12.524-1.965c3.1196-0.95689 8.8584-4.1662 8.8584-4.1662l-7.3658 11.126s-8.5745 3.5697-13.129 3.9489c-4.0775 0.33949-12.178-1.5431-12.178-1.5431z" fill="#daf0da" stroke="#000" stroke-linecap="round" stroke-linejoin="round" stroke-width=".5"/>
 <path d="m38.771 87.627s8.484-0.72579 12.524-1.965c3.1196-0.95689 8.8584-4.1662 8.8584-4.1662l-7.3658 11.126s-8.5745 3.5697-13.129 3.9489c-4.0775 0.33949-12.178-1.5431-12.178-1.5431z" fill="#daf0da" stroke="#000" stroke-linecap="round" stroke-linejoin="round" stroke-width=".5"/>
 <g fill="#ffffef" stroke="#000" stroke-linecap="round" stroke-linejoin="round" stroke-width=".5">
  <path d="m161.56 105.98s12.198-7.5066 17.331-12.424c3.9635-3.797 10.159-12.959 10.159-12.959l-2.6529 22.287s-10.183 11.848-16.739 15.862c-5.8697 3.5938-19.464 6.891-19.464 6.891z"/>
  <path d="m275.96 0.24999 8.9874 32.493s-3.0558 2.5914-4.8394 3.4567c-5.9381 2.8807-19.012 5.5307-19.012 5.5307l-7.6047-33.53z"/>
  <path d="m24.008 95.218 11.746 6.8149s-0.14859 1.6071-0.41781 2.3589c-0.89635 2.5029-3.9107 6.9512-3.9107 6.9512l-11.641-7.5031z"/>
  <path d="m127.92 118.25-11.662-9.7647s0.47096-1.7452 0.91168-2.5235c1.4673-2.5911 5.6437-6.9245 5.6437-6.9245l11.414 10.504z"/>
 </g>
</svg>
