<svg width="371.31mm" height="63.081mm" version="1.1" viewBox="0 0 371.31 63.081" xml:space="preserve" xmlns="http://www.w3.org/2000/svg"><g transform="translate(-4.8344 -51.861)" display="none" stroke="#000" stroke-linecap="round" stroke-linejoin="round" stroke-width=".5"><g fill="#daf0da"><path d="m285.07 63.985s-20.438 7.3536-31.11 7.6047c-9.6238 0.22641-28.345-5.5307-28.345-5.5307s-17.314 25.254-29.382 34.221c-6.1697 4.5842-21.086 9.3331-21.086 9.3331s38.23 14.571 58.072 13.481c9.0239-0.4958 25.58-8.9874 25.58-8.9874z"/><path d="m20.85 93.994s-3.6617-2.1244-5.0387-3.6841c-1.2417-1.4065-2.7331-4.9205-2.7331-4.9205s-5.9387 0.58825-8.7904-0.0857c-1.4579-0.34453-4.0382-1.9725-4.0382-1.9725s2.6258 7.5292 5.2789 10.351c1.2066 1.2833 4.5507 2.6859 4.5507 2.6859z"/><path d="m287.53 31.382-16.824-1.5532s-12.408 18.985-20.601 26.67c-5.0988 4.7826-17.383 11.733-17.383 11.733l19.672 22.789z"/></g><path d="m214.57 65.884s5.6176 24.439 12.098 34.913c3.9873 6.4438 15.901 16.246 15.901 16.246l-31.11-9.3331s-6.5639-10.894-8.2961-16.938c-4.0213-14.03-4.4937-43.554-4.4937-43.554s4.5463 9.1005 7.9504 12.79c2.2348 2.4219 7.9504 5.8764 7.9504 5.8764z" fill="#ffffef"/><path d="m55.627 101.72s8.4166 8.7395 13.713 11.47c3.2588 1.6802 10.642 2.78 10.642 2.78l-15.23 3.8757s-5.4361-2.8848-7.6597-4.9606c-5.1622-4.819-12.711-16.949-12.711-16.949s4.1523 2.6431 6.4833 3.3258c1.5302 0.4482 4.7616 0.45788 4.7616 0.45788z" fill="#daf0da"/><path d="m133.78 77.997s-9.6296-2.0645-14.518-2.074c-4.1878-8e-3 -12.444 1.7283-12.444 1.7283l3.4567 12.79s8.7348-1.5153 13.135-1.3827c3.5028 0.1056 10.37 1.7284 10.37 1.7284z" fill="#daf0da"/><path d="m70.934 94.554s7.33 6.5775 11.567 9.0153c3.6299 2.0885 11.657 4.685 11.657 4.685l3.3571-12.816s-8.3327-3.0263-12.085-5.3286c-2.987-1.8325-8.1396-6.6538-8.1396-6.6538z" fill="#ffffef"/><path d="m150.9 112.24-12.344 15.185s-12.289-4.7423-18.665-6.3202c-7.2831-1.8023-22.226-3.5568-22.226-3.5568l17.733-19.57s16.317 7.0419 24.591 10.279c3.6054 1.4107 10.911 3.9825 10.911 3.9825z" fill="#daf0da"/><g fill="#ffffef"><path d="m231.99 28.03s9.3518 1.8998 13.481 4.148c3.304 1.7989 8.6417 7.2591 8.6417 7.2591l-10.37 10.37s-11.103-7.2427-16.938-10.37c-3.1351-1.6804-9.6787-4.4937-9.6787-4.4937z"/><path d="m281.55 105.61s-5.6932 7.6586-9.4828 10.441c-3.0323 2.2266-10.243 4.7387-10.243 4.7387l-4.9815-13.794s11.274-6.9737 16.584-10.927c2.8532-2.1241 8.1802-6.8524 8.1802-6.8524z"/><path d="m70.728 110.58s-4.3744 2.6628-6.82 3.2837c-1.9568 0.49681-6.0494 0.294-6.0494 0.294l0.30039-7.8645s7.0124-1.1981 10.45-2.0949c1.847-0.48187 5.4491-1.7608 5.4491-1.7608z"/></g><path d="m153.9 91.08s8.484-0.72579 12.524-1.965c3.1196-0.95689 8.8584-4.1662 8.8584-4.1662l-7.3658 11.126s-8.5745 3.5697-13.129 3.9489c-4.0775 0.33949-12.178-1.5431-12.178-1.5431z" fill="#daf0da"/><path d="m38.771 87.627s8.484-0.72579 12.524-1.965c3.1196-0.95689 8.8584-4.1662 8.8584-4.1662l-7.3658 11.126s-8.5745 3.5697-13.129 3.9489c-4.0775 0.33949-12.178-1.5431-12.178-1.5431z" fill="#daf0da"/><g fill="#ffffef"><path d="m161.56 105.98s12.198-7.5066 17.331-12.424c3.9635-3.797 10.159-12.959 10.159-12.959l-2.6529 22.287s-10.183 11.848-16.739 15.862c-5.8697 3.5938-19.464 6.891-19.464 6.891z"/><path d="m275.96 0.24999 8.9874 32.493s-3.0558 2.5914-4.8394 3.4567c-5.9381 2.8807-19.012 5.5307-19.012 5.5307l-7.6047-33.53z"/><path d="m24.008 95.218 11.746 6.8149s-0.14859 1.6071-0.41781 2.3589c-0.89635 2.5029-3.9107 6.9512-3.9107 6.9512l-11.641-7.5031z"/><path d="m127.92 118.25-11.662-9.7647s0.47096-1.7452 0.91168-2.5235c1.4673-2.5911 5.6437-6.9245 5.6437-6.9245l11.414 10.504z"/></g></g><g transform="translate(-4.8344 -51.861)" stroke="#000" stroke-linecap="round" stroke-linejoin="round"><path d="m57.231 91.307-2.1439-13.06s-16.842-5.6583-24.285-10.352c-4.632-2.9209-12.326-10.861-12.326-10.861l-13.392 19.411z" fill="#8fd3ff" stroke-width=".5"/><g fill="#ffdbef" stroke-width=".5"><path d="m184.3 113.74s5.0508-1.8082 7.1676-3.3906c1.6938-1.2662 4.2252-4.7329 4.2252-4.7329l-6.6026-4.9369s-5.596 4.9216-8.591 7.13c-1.6094 1.1867-5.0242 3.2775-5.0242 3.2775z"/><g><path d="m130.83 112.82s0.56015-3.867 1.5829-6.186c0.91636-2.0778 3.9186-6.6102 3.9186-6.6102s-5.6108-1.5939-9.9254-3.5091c-3.604-1.5998-9.4809-6.1832-9.4809-6.1832s-2.3904 3.0524-4.2058 6.5705c-1.1452 2.2193-1.443 7.335-1.443 7.335s5.5545 5.4929 10.233 6.67c2.9188 0.73434 9.3204 1.9131 9.3204 1.9131z"/><path d="m214.78 87.259s0.47492-2.7414 1.2486-4.3719c0.6932-1.4609 2.9195-4.6278 2.9195-4.6278s-3.9622-1.2451-6.9956-2.6934c-2.5338-1.2098-6.6265-4.588-6.6265-4.588s-1.7616 2.1255-3.1232 4.5939c-0.85889 1.5571-1.1717 5.1925-1.1717 5.1925s3.8454 4.0192 7.1524 4.9493c2.0631 0.58022 6.5964 1.5454 6.5964 1.5454z"/><path d="m344.42 78.036s-0.8895-1.4396-1.1949-2.4939c-0.27363-0.94467-0.53743-3.2844-0.53743-3.2844s-2.306 1.0313-4.2711 1.5954c-1.6414 0.4712-4.8673 0.58396-4.8673 0.58396s0.0553 1.6782 0.43105 3.3511c0.23701 1.0553 1.5609 2.8365 1.5609 2.8365s3.3717 0.27881 5.2524-0.63162c1.1733-0.56797 3.6264-1.957 3.6264-1.957z"/></g></g><g fill="#8fd3ff" stroke-width=".5"><path d="m124.38 75.297s1.7054 3.0458 2.2412 5.2458c0.48001 1.9711 0.81603 6.8164 0.81603 6.8164s4.844-1.9206 8.9439-2.9088c3.4248-0.82481 10.083-0.77141 10.083-0.77141s0.035-3.4634-0.59087-6.9445c-0.39479-2.1959-2.965-5.9842-2.965-5.9842s-6.924-0.87389-10.881 0.83544c-2.4684 1.0664-7.6472 3.7112-7.6472 3.7112z"/><path d="m304.39 66.56s1.3054 1.7098 1.8321 2.9304c0.47187 1.0937 1.127 3.7648 1.127 3.7648s2.7169-0.95668 5.0763-1.4159c1.9708-0.38356 5.9577-0.21727 5.9577-0.21727s-0.30374-1.9036-1.0043-3.8306c-0.44195-1.2155-2.3342-3.3513-2.3342-3.3513s-4.2228-0.62259-6.4289 0.23611c-1.3763 0.5357-4.2256 1.8837-4.2256 1.8837z"/><path d="m88.164 70.677s-3.9686-4.6574-5.6506-8.0442c-1.507-3.0345-3.7751-10.522-3.7751-10.522s-7.5713 3.1315-14.203 4.7955c-5.5393 1.3899-16.889 1.5254-16.889 1.5254s1.153 5.3608 3.4367 10.727c1.4406 3.3852 7.141 9.1632 7.141 9.1632s12.089 1.1246 18.225-1.6507c3.8275-1.7314 11.715-5.9947 11.715-5.9947z"/></g><path d="m149.6 66.213s0.0204 2.992-0.41547 4.7891c-0.39053 1.6101-1.897 5.1265-1.897 5.1265s3.8196 1.2097 6.8256 2.6731c2.5109 1.2224 6.8024 4.7424 6.8024 4.7424s1.2549-2.3696 2.0883-5.097c0.5257-1.7205 0.20955-5.6769 0.20955-5.6769s-4.1719-4.2244-7.3418-5.1157c-1.9775-0.556-6.2716-1.4415-6.2716-1.4415z" fill="#ffdbef" stroke-width=".5"/><path d="m52.691 99.515s-4.435-3.6306-6.5505-6.4716c-1.8954-2.5455-5.2353-9.0681-5.2353-9.0681s-6.456 4.1498-12.291 6.7901c-4.8737 2.2054-15.312 4.2241-15.312 4.2241s1.9572 4.7488 4.9577 9.314c1.8927 2.8798 8.111 7.2543 8.111 7.2543s11.331-0.98072 16.523-4.5626c3.2389-2.2345 9.7978-7.4802 9.7978-7.4802z" fill="#ffdbef" stroke-width=".57662"/><g stroke-width=".5"><path d="m156.79 92.09 5.0474-4.9808s9.0793 2.8605 13.783 3.1747c2.9275 0.19561 8.7643-0.8171 8.7643-0.8171l-0.32104 12.631z" fill="#8fd3ff"/><path d="m209.52 88.727s-8.8359 5.6957-13.846 6.9452c-3.0823 0.76871-9.5276 0.22747-9.5276 0.22747l12.073 6.2976s5.158-1.3516 7.446-2.6596c5.3117-3.037 14.09-11.765 14.09-11.765s-4.0274 1.4031-6.1288 1.5151c-1.3796 0.07359-4.1065-0.56102-4.1065-0.56102z" fill="#8fd3ff"/><path d="m41.522 72.987s16.972 2.5994 25.274 1.1212c5.1081-0.90944 14.356-6.0145 14.356-6.0145l-13.799 17.44s-8.5914 1.4246-12.875 1.0002c-9.9445-0.98555-28.853-8.1441-28.853-8.1441s6.9402-0.59386 10.148-1.8283c2.1059-0.81028 5.7483-3.5749 5.7483-3.5749z" fill="#ffdbef"/><path d="m144.54 96.392s-8.4684 8.7938-13.798 11.541c-3.279 1.6906-10.708 2.7972-10.708 2.7972l15.325 3.8997s5.4698-2.9027 7.7073-4.9913c5.1942-4.8488 12.789-17.055 12.789-17.055s-4.1781 2.6595-6.5235 3.3465c-1.5398 0.45098-4.7911 0.46072-4.7911 0.46072z" fill="#8fd3ff"/><path d="m290.99 68.017s6.206-1.3305 9.3567-1.3367c2.699-0.0053 8.02 1.1139 8.02 1.1139l-2.2278 8.2428s-5.6296-0.97659-8.4655-0.89113c-2.2575 0.06805-6.6834 1.1139-6.6834 1.1139z" fill="#ffdbef"/><path d="m371.6 63.443s1.5329-0.32864 2.3111-0.33016c0.66665-0.0013 1.9809 0.27513 1.9809 0.27513l-0.55026 2.0359s-1.3905-0.24122-2.091-0.22011c-0.5576 0.01681-1.6508 0.27513-1.6508 0.27513z" fill="#8fd3ff"/><path d="m273.28 87.197s-4.6814 4.2008-7.3878 5.7578c-2.3183 1.3338-7.4453 2.9922-7.4453 2.9922l-2.1441-8.1854s5.3218-1.9328 7.7186-3.4032c1.9077-1.1704 5.1983-4.2496 5.1983-4.2496z" fill="#8fd3ff"/><path d="m261.26 79.552 7.0999 6.2202s5.459-3.2506 8.363-4.5176c3.317-1.4472 10.28-3.4922 10.28-3.4922l-10.018-7.8682s-7.188 4.6707-10.86 6.8805c-1.6 0.96296-4.8651 2.778-4.8651 2.778z" fill="#ffdbef"/><path d="m183.41 88.229s6.0053 0.91317 8.9656 0.47402c2.3688-0.35132 6.7549-2.4452 6.7549-2.4452l-3.9261-8.4695s-8.2224 1.8962-12.395 2.4874c-2.2418 0.31752-6.7692 0.56543-6.7692 0.56543z" fill="#8fd3ff"/><path d="m153.37 98.545s7.9531 3.1872 11.477 5.565c2.7219 1.8361 7.3037 6.6083 7.3037 6.6083l-3.8259-12.869s-7.2058-5.951-11.477-7.6521c-3.825-1.5229-12.174-2.0869-12.174-2.0869z" fill="#ffdbef"/><path d="m54.932 99.695s11.43-4.5807 16.495-7.9981c3.912-2.6389 10.497-9.4975 10.497-9.4975l-5.4986 18.495s-10.356 8.5529-16.495 10.998c-5.4973 2.1887-17.496 2.9993-17.496 2.9993z" fill="#8fd3ff"/><path d="m253.95 79.996s3.7456-3.8178 5.9621-5.2786c1.7115-1.1278 5.5615-2.6228 5.5615-2.6228l-8.3344-0.8843s-5.1591 2.724-7.1647 4.7775c-1.7957 1.8387-4.1247 6.5144-4.1247 6.5144z" fill="#8fd3ff"/><path d="m348.61 71.486s2.1016-2.1421 3.3453-2.9618c0.96028-0.63282 3.1205-1.4716 3.1205-1.4716l-4.6764-0.49617s-2.8947 1.5284-4.02 2.6806c-1.0076 1.0317-2.3143 3.6552-2.3143 3.6552z" fill="#ffdbef"/></g><g fill="#8fd3ff" stroke-width=".5"><path d="m128.93 62.327s4.0966 4.0599 6.5208 5.6134c1.8718 1.1994 6.0826 2.7892 6.0826 2.7892l-9.1154 0.94038s-5.6425-2.8967-7.836-5.0805c-1.964-1.9553-4.5112-6.9276-4.5112-6.9276z"/><path d="m241.83 79.777-10.547 13.332s0.9113 1.8031 1.5701 2.5549c2.1936 2.5028 7.7471 6.2978 7.7471 6.2978l10.109-14.085z"/><path d="m321.74 85.773 10.195-8.5362s-0.41172-1.5257-0.797-2.206c-1.2827-2.2651-4.9336-6.0535-4.9336-6.0535l-9.978 9.1824z"/></g><g fill="#ffdbef" stroke-width=".5"><path d="m362.52 72.704 5.7381-0.96061s0.18284-0.66683 0.18829-1.0089c0.0182-1.1388-0.51942-3.3772-0.51942-3.3772l-5.7995 1.2524z"/><path d="m238.23 89.62s-4.4831 0.31365-6.5247 1.1568c-1.841 0.76042-4.9048 3.4129-4.9048 3.4129s-5.3858-3.3362-8.419-4.0266c-1.5507-0.35295-4.7711-0.0071-4.7711-0.0071s6.0217-5.9495 9.8694-7.3993c1.7498-0.65931 5.5929-0.43349 5.5929-0.43349z"/><path d="m54.794 94.891s7.1937-0.50329 10.47-1.8563c2.9541-1.2202 7.8703-5.4765 7.8703-5.4765s8.6422 5.3534 13.509 6.4612c2.4883 0.56635 7.6557 0.01123 7.6557 0.01123s-9.6625 9.5467-15.837 11.873c-2.8078 1.0579-8.9745 0.69559-8.9745 0.69559z"/></g><g stroke-width=".5"><path d="m87.348 86.382 5.8555 5.7782s10.533-3.3185 15.99-3.683c3.3962-0.22693 10.167 0.94791 10.167 0.94791l-0.37244-14.654z" fill="#8fd3ff"/><path d="m85.072 71.395s2.3432-4.185 3.0794-7.2078c0.65954-2.7084 1.1212-9.3659 1.1212-9.3659s6.6557 2.639 12.289 3.9967c4.7057 1.1333 13.854 1.0599 13.854 1.0599s0.0481 4.7588-0.81187 9.5419c-0.54245 3.0172-4.074 8.2225-4.074 8.2225s-9.5137 1.2007-14.95-1.1479c-3.3916-1.4652-10.507-5.0993-10.507-5.0993z" fill="#ffdbef"/><path d="m89.772 113.35s8.7776 1.3347 13.104 0.69284c3.4623-0.5135 9.8732-3.574 9.8732-3.574l-5.7385-12.379s-12.018 2.7716-18.117 3.6356c-3.2767 0.46412-9.894 0.82646-9.894 0.82646z" fill="#8fd3ff"/><path d="m348.77 73.99s1.8597-0.36275 2.6704-0.82099c0.73106-0.41325 1.8761-1.6814 1.8761-1.6814s2.4259 1.1179 3.7308 1.2501c0.66709 0.06761 1.9968-0.2434 1.9968-0.2434s-2.2125 2.8005-3.7476 3.6058c-0.69814 0.36624-2.3179 0.4702-2.3179 0.4702z" fill="#8fd3ff"/></g></g></svg>
