<?xml version="1.0" encoding="UTF-8" standalone="no"?>
<!-- Created with Inkscape (http://www.inkscape.org/) -->

<svg
   width="371.30835mm"
   height="63.081116mm"
   viewBox="0 0 371.30838 63.081117"
   version="1.1"
   id="svg5"
   inkscape:version="1.2 (dc2aedaf03, 2022-05-15)"
   sodipodi:docname="paperBanner.svg"
   xml:space="preserve"
   xmlns:inkscape="http://www.inkscape.org/namespaces/inkscape"
   xmlns:sodipodi="http://sodipodi.sourceforge.net/DTD/sodipodi-0.dtd"
   xmlns="http://www.w3.org/2000/svg"
   xmlns:svg="http://www.w3.org/2000/svg"><sodipodi:namedview
     id="namedview7"
     pagecolor="#ffffff"
     bordercolor="#000000"
     borderopacity="0.25"
     inkscape:showpageshadow="2"
     inkscape:pageopacity="0.0"
     inkscape:pagecheckerboard="0"
     inkscape:deskcolor="#d1d1d1"
     inkscape:document-units="mm"
     showgrid="false"
     inkscape:zoom="0.5"
     inkscape:cx="682"
     inkscape:cy="127"
     inkscape:window-width="1600"
     inkscape:window-height="871"
     inkscape:window-x="-9"
     inkscape:window-y="-9"
     inkscape:window-maximized="1"
     inkscape:current-layer="layer4" /><defs
     id="defs2"><inkscape:path-effect
       effect="spiro"
       id="path-effect35134"
       is_visible="true"
       lpeversion="1" /><inkscape:path-effect
       effect="spiro"
       id="path-effect35130"
       is_visible="true"
       lpeversion="1" /><inkscape:path-effect
       effect="spiro"
       id="path-effect35126"
       is_visible="true"
       lpeversion="1" /><inkscape:path-effect
       effect="spiro"
       id="path-effect35122"
       is_visible="true"
       lpeversion="1" /><inkscape:path-effect
       effect="spiro"
       id="path-effect35118"
       is_visible="true"
       lpeversion="1" /><inkscape:path-effect
       effect="spiro"
       id="path-effect35114"
       is_visible="true"
       lpeversion="1" /><inkscape:path-effect
       effect="spiro"
       id="path-effect35110"
       is_visible="true"
       lpeversion="1" /><inkscape:path-effect
       effect="spiro"
       id="path-effect35106"
       is_visible="true"
       lpeversion="1" /><inkscape:path-effect
       effect="spiro"
       id="path-effect35102"
       is_visible="true"
       lpeversion="1" /><inkscape:path-effect
       effect="spiro"
       id="path-effect35098"
       is_visible="true"
       lpeversion="1" /><inkscape:path-effect
       effect="spiro"
       id="path-effect35094"
       is_visible="true"
       lpeversion="1" /><inkscape:path-effect
       effect="spiro"
       id="path-effect35090"
       is_visible="true"
       lpeversion="1" /><inkscape:path-effect
       effect="spiro"
       id="path-effect35026"
       is_visible="true"
       lpeversion="1" /><inkscape:path-effect
       effect="spiro"
       id="path-effect34272"
       is_visible="true"
       lpeversion="1" /><inkscape:path-effect
       effect="spiro"
       id="path-effect34268"
       is_visible="true"
       lpeversion="1" /><inkscape:path-effect
       effect="spiro"
       id="path-effect34264"
       is_visible="true"
       lpeversion="1" /><inkscape:path-effect
       effect="spiro"
       id="path-effect34260"
       is_visible="true"
       lpeversion="1" /><inkscape:path-effect
       effect="spiro"
       id="path-effect34256"
       is_visible="true"
       lpeversion="1" /><inkscape:path-effect
       effect="spiro"
       id="path-effect34252"
       is_visible="true"
       lpeversion="1" /><inkscape:path-effect
       effect="spiro"
       id="path-effect34248"
       is_visible="true"
       lpeversion="1" /><inkscape:path-effect
       effect="spiro"
       id="path-effect34244"
       is_visible="true"
       lpeversion="1" /><inkscape:path-effect
       effect="spiro"
       id="path-effect34240"
       is_visible="true"
       lpeversion="1" /></defs><g
     id="g34040"
     style="display:none"
     transform="translate(-4.8344258,-51.860741)"><path
       style="opacity:1;fill:#daf0da;fill-opacity:1;stroke:#000000;stroke-width:0.5;stroke-linecap:round;stroke-linejoin:round;stroke-dasharray:none;stroke-dashoffset:0;stroke-opacity:1"
       d="m 285.07229,63.984808 c 0,0 -20.43779,7.35365 -31.11025,7.60472 -9.62382,0.22641 -28.34489,-5.53071 -28.34489,-5.53071 0,0 -17.31381,25.254413 -29.3819,34.221282 -6.16967,4.5842 -21.08582,9.33307 -21.08582,9.33307 0,0 38.23014,14.57131 58.07245,13.48111 9.02388,-0.4958 25.57953,-8.98741 25.57953,-8.98741 z"
       id="path18474"
       sodipodi:nodetypes="cscscscc" /><path
       style="fill:#daf0da;fill-opacity:1;stroke:#000000;stroke-width:0.5;stroke-linecap:round;stroke-linejoin:round;stroke-dasharray:none;stroke-dashoffset:0;stroke-opacity:1"
       d="m 20.850258,93.993721 c 0,0 -3.6617,-2.12435 -5.03868,-3.68413 -1.24169,-1.40653 -2.73306,-4.92051 -2.73306,-4.92051 0,0 -5.9386501,0.58825 -8.7903601,-0.0857 -1.45791,-0.34453 -4.03818004,-1.972534 -4.03818004,-1.972534 0,0 2.62582004,7.529164 5.27887004,10.350884 1.20656,1.28326 4.5506601,2.68594 4.5506601,2.68594 z"
       id="path18474-5"
       sodipodi:nodetypes="cscscscc" /><path
       style="opacity:1;fill:#daf0da;fill-opacity:1;stroke:#000000;stroke-width:0.5;stroke-linecap:round;stroke-linejoin:round;stroke-dasharray:none;stroke-dashoffset:0;stroke-opacity:1"
       d="m 287.53153,31.381968 -16.82388,-1.553183 c 0,0 -12.4081,18.985202 -20.60134,26.670422 -5.09875,4.7826 -17.38288,11.73323 -17.38288,11.73323 l 19.67161,22.789024 z"
       id="path18539"
       sodipodi:nodetypes="ccsccc" /><path
       style="opacity:1;fill:#ffffef;fill-opacity:1;stroke:#000000;stroke-width:0.5;stroke-linecap:round;stroke-linejoin:round;stroke-dasharray:none;stroke-dashoffset:0;stroke-opacity:1"
       d="m 214.57342,65.884204 c 0,0 5.61761,24.439087 12.09843,34.912616 3.98727,6.44375 15.9008,16.24646 15.9008,16.24646 L 211.4624,107.7102 c 0,0 -6.56393,-10.894329 -8.29607,-16.937799 -4.02127,-14.030287 -4.4937,-43.554357 -4.4937,-43.554357 0,0 4.54627,9.10054 7.9504,12.78978 2.23478,2.42194 7.95039,5.87638 7.95039,5.87638 z"
       id="path18541"
       sodipodi:nodetypes="csccscsc" /><path
       style="fill:#daf0da;fill-opacity:1;stroke:#000000;stroke-width:0.5;stroke-linecap:round;stroke-linejoin:round;stroke-dasharray:none;stroke-dashoffset:0;stroke-opacity:1"
       d="m 55.627268,101.72332 c 0,0 8.41657,8.73946 13.71336,11.47041 3.25881,1.6802 10.64227,2.77995 10.64227,2.77995 l -15.23017,3.8757 c 0,0 -5.43606,-2.88483 -7.65966,-4.96058 -5.1622,-4.81896 -12.71066,-16.949209 -12.71066,-16.949209 0,0 4.15234,2.643129 6.48326,3.325849 1.53023,0.4482 4.7616,0.45788 4.7616,0.45788 z"
       id="path18541-5"
       sodipodi:nodetypes="csccscsc" /><path
       style="opacity:1;fill:#daf0da;fill-opacity:1;stroke:#000000;stroke-width:0.5;stroke-linecap:round;stroke-linejoin:round;stroke-dasharray:none;stroke-dashoffset:0;stroke-opacity:1"
       d="m 133.77972,77.99683 c 0,0 -9.62962,-2.0645 -14.51811,-2.07401 -4.18784,-0.008 -12.4441,1.72834 -12.4441,1.72834 l 3.45669,12.789771 c 0,0 8.73477,-1.51533 13.13544,-1.38268 3.50278,0.1056 10.37008,1.72835 10.37008,1.72835 z"
       id="path18543"
       sodipodi:nodetypes="csccscc" /><path
       style="fill:#ffffef;fill-opacity:1;stroke:#000000;stroke-width:0.5;stroke-linecap:round;stroke-linejoin:round;stroke-dasharray:none;stroke-dashoffset:0;stroke-opacity:1"
       d="m 70.933778,94.553861 c 0,0 7.33001,6.577459 11.56725,9.015319 3.62993,2.08848 11.65733,4.68504 11.65733,4.68504 l 3.35706,-12.816279 c 0,0 -8.3327,-3.02631 -12.08543,-5.32859 -2.98705,-1.83253 -8.13961,-6.653763 -8.13961,-6.653763 z"
       id="path18543-1"
       sodipodi:nodetypes="csccscc" /><path
       style="opacity:1;fill:#daf0da;fill-opacity:1;stroke:#000000;stroke-width:0.5;stroke-linecap:round;stroke-linejoin:round;stroke-dasharray:none;stroke-dashoffset:0;stroke-opacity:1"
       d="m 150.89605,112.24377 -12.34367,15.18521 c 0,0 -12.28879,-4.74228 -18.66518,-6.32019 -7.2831,-1.80229 -22.225562,-3.55677 -22.225562,-3.55677 L 115.39495,97.982221 c 0,0 16.31712,7.041909 24.59051,10.279049 3.60541,1.41069 10.91059,3.9825 10.91059,3.9825 z"
       id="path18545"
       sodipodi:nodetypes="ccsccsc" /><path
       style="opacity:1;fill:#ffffef;fill-opacity:1;stroke:#000000;stroke-width:0.5;stroke-linecap:round;stroke-linejoin:round;stroke-dasharray:none;stroke-dashoffset:0;stroke-opacity:1"
       d="m 231.98949,28.029717 c 0,0 9.35185,1.899824 13.48111,4.148035 3.30402,1.798901 8.64173,7.259058 8.64173,7.259058 l -10.37008,10.370078 c 0,0 -11.10301,-7.242696 -16.9378,-10.370078 -3.13508,-1.680372 -9.67874,-4.493705 -9.67874,-4.493705 z"
       id="path18547"
       sodipodi:nodetypes="csccscc" /><path
       style="fill:#ffffef;fill-opacity:1;stroke:#000000;stroke-width:0.5;stroke-linecap:round;stroke-linejoin:round;stroke-dasharray:none;stroke-dashoffset:0;stroke-opacity:1"
       d="m 281.54824,105.61303 c 0,0 -5.69322,7.65858 -9.48283,10.44138 -3.03227,2.22665 -10.24295,4.73873 -10.24295,4.73873 l -4.98151,-13.79355 c 0,0 11.27389,-6.97374 16.58402,-10.926939 2.85318,-2.12408 8.18021,-6.8524 8.18021,-6.8524 z"
       id="path18547-2"
       sodipodi:nodetypes="csccscc" /><path
       style="fill:#ffffef;fill-opacity:1;stroke:#000000;stroke-width:0.5;stroke-linecap:round;stroke-linejoin:round;stroke-dasharray:none;stroke-dashoffset:0;stroke-opacity:1"
       d="m 70.727598,110.57862 c 0,0 -4.37445,2.66277 -6.81996,3.28368 -1.95678,0.49681 -6.04944,0.294 -6.04944,0.294 l 0.30039,-7.86446 c 0,0 7.01242,-1.19807 10.44999,-2.09489 1.84704,-0.48187 5.44914,-1.76084 5.44914,-1.76084 z"
       id="path18547-2-2"
       sodipodi:nodetypes="csccscc" /><path
       style="opacity:1;fill:#daf0da;fill-opacity:1;stroke:#000000;stroke-width:0.5;stroke-linecap:round;stroke-linejoin:round;stroke-dasharray:none;stroke-dashoffset:0;stroke-opacity:1"
       d="m 153.89668,91.079691 c 0,0 8.484,-0.72579 12.52395,-1.96498 3.11962,-0.95689 8.85842,-4.16621 8.85842,-4.16621 l -7.36578,11.12571 c 0,0 -8.57448,3.56974 -13.12859,3.948899 -4.07753,0.33949 -12.17753,-1.543109 -12.17753,-1.543109 z"
       id="path18549"
       sodipodi:nodetypes="csccscc" /><path
       style="fill:#daf0da;fill-opacity:1;stroke:#000000;stroke-width:0.5;stroke-linecap:round;stroke-linejoin:round;stroke-dasharray:none;stroke-dashoffset:0;stroke-opacity:1"
       d="m 38.771478,87.627331 c 0,0 8.484,-0.72579 12.52395,-1.96498 3.11962,-0.95689 8.85842,-4.166214 8.85842,-4.166214 l -7.36578,11.125714 c 0,0 -8.57448,3.56974 -13.12859,3.9489 -4.07753,0.33949 -12.17753,-1.54311 -12.17753,-1.54311 z"
       id="path18549-4"
       sodipodi:nodetypes="csccscc" /><path
       style="fill:#ffffef;fill-opacity:1;stroke:#000000;stroke-width:0.5;stroke-linecap:round;stroke-linejoin:round;stroke-dasharray:none;stroke-dashoffset:0;stroke-opacity:1"
       d="m 161.56414,105.98199 c 0,0 12.19817,-7.506649 17.33096,-12.423769 3.96349,-3.79697 10.15881,-12.958973 10.15881,-12.958973 l -2.65293,22.286662 c 0,0 -10.18331,11.84804 -16.73903,15.86185 -5.86968,3.59377 -19.46353,6.89095 -19.46353,6.89095 z"
       id="path18549-5"
       sodipodi:nodetypes="csccscc" /><path
       style="opacity:1;fill:#ffffef;fill-opacity:1;stroke:#000000;stroke-width:0.5;stroke-linecap:round;stroke-linejoin:round;stroke-dasharray:none;stroke-dashoffset:0;stroke-opacity:1"
       d="m 275.96023,0.24999249 8.9874,32.49291851 c 0,0 -3.05579,2.59145 -4.83937,3.4567 -5.93813,2.8807 -19.01183,5.53071 -19.01183,5.53071 L 253.4917,8.2003825 Z"
       id="path18551"
       sodipodi:nodetypes="ccsccc" /><path
       style="fill:#ffffef;fill-opacity:1;stroke:#000000;stroke-width:0.5;stroke-linecap:round;stroke-linejoin:round;stroke-dasharray:none;stroke-dashoffset:0;stroke-opacity:1"
       d="m 24.007738,95.218241 11.74642,6.814919 c 0,0 -0.14859,1.60711 -0.41781,2.35889 -0.89635,2.50294 -3.91074,6.95121 -3.91074,6.95121 l -11.64098,-7.50309 z"
       id="path18551-3"
       sodipodi:nodetypes="ccsccc" /><path
       style="fill:#ffffef;fill-opacity:1;stroke:#000000;stroke-width:0.5;stroke-linecap:round;stroke-linejoin:round;stroke-dasharray:none;stroke-dashoffset:0;stroke-opacity:1"
       d="m 127.92467,118.25396 -11.6619,-9.76471 c 0,0 0.47096,-1.74525 0.91168,-2.52351 1.46729,-2.59108 5.64367,-6.924509 5.64367,-6.924509 l 11.41408,10.504039 z"
       id="path18551-2"
       sodipodi:nodetypes="ccsccc" /></g><g
     inkscape:groupmode="layer"
     id="layer4"
     inkscape:label="Layer 1"
     transform="translate(-4.8344258,-51.860741)"><path
       d="M 57.231251,91.307032 55.087386,78.246829 c 0,0 -16.841667,-5.658288 -24.28464,-10.352105 C 26.170761,64.97378 18.476581,57.033595 18.476581,57.033595 L 5.0844104,76.444868 Z"
       fill="#daf0da"
       id="path43847-8"
       style="fill:#daf0da;fill-opacity:1;stroke:#000000;stroke-width:0.5;stroke-linecap:round;stroke-linejoin:round;stroke-dasharray:none" /><path
       d="m 184.30159,113.74328 c 0,0 5.05076,-1.80821 7.16755,-3.39061 1.69383,-1.26625 4.22515,-4.73289 4.22515,-4.73289 l -6.60259,-4.93689 c 0,0 -5.59597,4.92156 -8.59104,7.13 -1.60936,1.18673 -5.02415,3.27747 -5.02415,3.27747 z"
       id="path43867"
       style="fill:#ffffef;stroke:#000000;stroke-width:0.5;stroke-linecap:round;stroke-linejoin:round;stroke-dasharray:none" /><path
       style="fill:#ffffef;fill-opacity:1;stroke:#000000;stroke-width:0.5;stroke-linecap:round;stroke-linejoin:round;stroke-dasharray:none;stroke-dashoffset:0;stroke-opacity:1"
       d="m 130.83157,112.81546 c 0,0 0.56015,-3.86701 1.5829,-6.18599 0.91636,-2.07777 3.91864,-6.61023 3.91864,-6.61023 0,0 -5.61077,-1.593854 -9.92543,-3.509139 -3.60402,-1.599823 -9.48088,-6.183246 -9.48088,-6.183246 0,0 -2.39038,3.052351 -4.20585,6.570546 -1.14521,2.219293 -1.44301,7.334999 -1.44301,7.334999 0,0 5.55454,5.49286 10.23325,6.66997 2.91884,0.73434 9.32038,1.91309 9.32038,1.91309 z"
       id="path35300-7"
       sodipodi:nodetypes="cscscscsc" /><path
       style="fill:#daf0da;fill-opacity:1;stroke:#000000;stroke-width:0.5;stroke-linecap:round;stroke-linejoin:round;stroke-dasharray:none;stroke-dashoffset:0;stroke-opacity:1"
       d="m 214.78424,87.258566 c 0,0 0.47492,-2.741426 1.24861,-4.371886 0.6932,-1.460857 2.91951,-4.627812 2.91951,-4.627812 0,0 -3.96223,-1.245074 -6.99559,-2.693384 -2.53375,-1.209757 -6.62647,-4.587996 -6.62647,-4.587996 0,0 -1.76158,2.125494 -3.12315,4.593904 -0.85889,1.557088 -1.17169,5.192494 -1.17169,5.192494 0,0 3.84537,4.019208 7.15239,4.949273 2.06311,0.580224 6.59639,1.545407 6.59639,1.545407 z"
       id="path35300-7-6"
       sodipodi:nodetypes="cscscscsc" /><path
       style="fill:#daf0da;fill-opacity:1;stroke:#000000;stroke-width:0.5;stroke-linecap:round;stroke-linejoin:round;stroke-dasharray:none;stroke-dashoffset:0;stroke-opacity:1"
       d="m 344.41773,78.03613 c 0,0 -0.8895,-1.439615 -1.19489,-2.493945 -0.27363,-0.944667 -0.53743,-3.284399 -0.53743,-3.284399 0,0 -2.30602,1.031283 -4.27114,1.595384 -1.64145,0.471198 -4.86726,0.583963 -4.86726,0.583963 0,0 0.0553,1.67816 0.43105,3.351093 0.23701,1.055294 1.56089,2.836507 1.56089,2.836507 0,0 3.37173,0.278809 5.2524,-0.631615 1.17327,-0.56797 3.62638,-1.956988 3.62638,-1.956988 z"
       id="path35300-7-6-8"
       sodipodi:nodetypes="cscscscsc" /><path
       style="fill:#ffffef;fill-opacity:1;stroke:#000000;stroke-width:0.5;stroke-linecap:round;stroke-linejoin:round;stroke-dasharray:none;stroke-dashoffset:0;stroke-opacity:1"
       d="m 124.38401,75.297289 c 0,0 1.70538,3.045832 2.24117,5.2458 0.48001,1.971117 0.81603,6.816441 0.81603,6.816441 0,0 4.84397,-1.920645 8.94391,-2.908771 3.42478,-0.824811 10.08267,-0.771409 10.08267,-0.771409 0,0 0.035,-3.463411 -0.59087,-6.944486 -0.39479,-2.195859 -2.96503,-5.984244 -2.96503,-5.984244 0,0 -6.92396,-0.873891 -10.88064,0.835443 -2.46838,1.066377 -7.64724,3.711226 -7.64724,3.711226 z"
       id="path35300-7-6-4"
       sodipodi:nodetypes="cscscscsc" /><path
       style="fill:#ffffef;fill-opacity:1;stroke:#000000;stroke-width:0.5;stroke-linecap:round;stroke-linejoin:round;stroke-dasharray:none;stroke-dashoffset:0;stroke-opacity:1"
       d="m 304.39429,66.560466 c 0,0 1.30542,1.70976 1.83208,2.930415 0.47187,1.093679 1.127,3.764797 1.127,3.764797 0,0 2.71693,-0.956682 5.0763,-1.415872 1.97076,-0.383557 5.95768,-0.217274 5.95768,-0.217274 0,0 -0.30374,-1.903649 -1.00434,-3.830574 -0.44195,-1.215511 -2.33422,-3.351313 -2.33422,-3.351313 0,0 -4.22284,-0.622588 -6.42892,0.236106 -1.37627,0.535698 -4.22558,1.883715 -4.22558,1.883715 z"
       id="path35300-7-1"
       sodipodi:nodetypes="cscscscsc" /><path
       style="fill:#daf0da;fill-opacity:1;stroke:#000000;stroke-width:0.5;stroke-linecap:round;stroke-linejoin:round;stroke-dasharray:none;stroke-dashoffset:0;stroke-opacity:1"
       d="m 88.163943,70.676661 c 0,0 -3.968557,-4.657375 -5.650555,-8.044241 -1.507023,-3.034544 -3.775072,-10.521688 -3.775072,-10.521688 0,0 -7.571288,3.131529 -14.202816,4.795494 -5.539267,1.389888 -16.889025,1.525377 -16.889025,1.525377 0,0 1.15295,5.360807 3.436686,10.727226 1.440604,3.385155 7.140999,9.163203 7.140999,9.163203 0,0 12.089438,1.124629 18.224654,-1.65071 3.827468,-1.731392 11.715129,-5.994661 11.715129,-5.994661 z"
       id="path35300-7-1-7-9"
       sodipodi:nodetypes="cscscscsc" /><path
       style="fill:#daf0da;fill-opacity:1;stroke:#000000;stroke-width:0.5;stroke-linecap:round;stroke-linejoin:round;stroke-dasharray:none;stroke-dashoffset:0;stroke-opacity:1"
       d="m 149.60328,66.213312 c 0,0 0.0204,2.992049 -0.41547,4.789108 -0.39053,1.610117 -1.89699,5.12651 -1.89699,5.12651 0,0 3.81955,1.209684 6.82559,2.673102 2.51092,1.222386 6.80238,4.742388 6.80238,4.742388 0,0 1.25494,-2.36957 2.08833,-5.096995 0.5257,-1.720474 0.20955,-5.676902 0.20955,-5.676902 0,0 -4.17192,-4.224442 -7.34181,-5.115668 -1.97754,-0.555997 -6.27158,-1.441543 -6.27158,-1.441543 z"
       id="path35300-7-1-7"
       sodipodi:nodetypes="cscscscsc" /><path
       style="fill:#ffffef;fill-opacity:1;stroke:#000000;stroke-width:0.576621;stroke-linecap:round;stroke-linejoin:round;stroke-dasharray:none;stroke-dashoffset:0;stroke-opacity:1"
       d="m 52.691332,99.5148 c 0,0 -4.43505,-3.630572 -6.550527,-6.471644 -1.895417,-2.54553 -5.235262,-9.068111 -5.235262,-9.068111 0,0 -6.456043,4.149784 -12.290791,6.790061 -4.873731,2.20539 -15.312406,4.224148 -15.312406,4.224148 0,0 1.957231,4.748776 4.957673,9.314036 1.892687,2.87977 8.111009,7.25431 8.111009,7.25431 0,0 11.330717,-0.98072 16.522552,-4.56256 3.23894,-2.23452 9.797752,-7.48024 9.797752,-7.48024 z"
       id="path35300-7-1-7-1"
       sodipodi:nodetypes="cscscscsc" /><path
       d="m 156.78909,92.090429 5.04741,-4.980813 c 0,0 9.0793,2.860532 13.78346,3.17474 2.92749,0.19561 8.76427,-0.817097 8.76427,-0.817097 l -0.32104,12.631351 z"
       fill="#daf0da"
       id="path43847"
       style="stroke:#000000;stroke-width:0.5;stroke-linecap:round;stroke-linejoin:round;stroke-dasharray:none" /><path
       d="m 209.51534,88.726647 c 0,0 -8.83586,5.695723 -13.84595,6.945243 -3.08233,0.768707 -9.52758,0.22747 -9.52758,0.22747 l 12.07267,6.29761 c 0,0 5.15801,-1.35164 7.44597,-2.659633 5.31174,-3.03695 14.09009,-11.764914 14.09009,-11.764914 0,0 -4.02744,1.403123 -6.1288,1.515054 -1.37958,0.07359 -4.10651,-0.56102 -4.10651,-0.56102 z"
       fill="#ffffef"
       id="path43849"
       style="fill:#daf0da;fill-opacity:1;stroke:#000000;stroke-width:0.5;stroke-linecap:round;stroke-linejoin:round;stroke-dasharray:none" /><path
       d="m 41.521923,72.986725 c 0,0 16.971651,2.59939 25.274443,1.121232 C 71.904432,73.198519 81.1527,68.093459 81.1527,68.093459 L 67.353263,85.533418 c 0,0 -8.591427,1.424553 -12.874796,1.00024 -9.944501,-0.985554 -28.852516,-8.144062 -28.852516,-8.144062 0,0 6.940196,-0.593855 10.147751,-1.828307 2.105887,-0.810282 5.748258,-3.57492 5.748258,-3.57492 z"
       fill="#ffffef"
       id="path43849-5"
       style="stroke:#000000;stroke-width:0.5;stroke-linecap:round;stroke-linejoin:round;stroke-dasharray:none" /><path
       d="m 144.54296,96.392314 c 0,0 -8.46844,8.793786 -13.79835,11.541226 -3.27898,1.6906 -10.70845,2.7972 -10.70845,2.7972 l 15.32455,3.89973 c 0,0 5.46978,-2.90269 7.70731,-4.99134 5.19418,-4.84885 12.78941,-17.054526 12.78941,-17.054526 0,0 -4.17808,2.6595 -6.52347,3.34649 -1.53975,0.45098 -4.79113,0.46072 -4.79113,0.46072 z"
       fill="#daf0da"
       stroke-width="0.318026"
       id="path43853"
       style="fill:#daf0da;fill-opacity:1;stroke:#000000;stroke-width:0.5;stroke-linecap:round;stroke-linejoin:round;stroke-dasharray:none" /><path
       d="m 290.98733,68.017071 c 0,0 6.20596,-1.330528 9.35672,-1.336674 2.69899,-0.0053 8.02005,1.113881 8.02005,1.113881 l -2.22781,8.242756 c 0,0 -5.62961,-0.976593 -8.46546,-0.891131 -2.25748,0.06805 -6.68337,1.113882 -6.68337,1.113882 z"
       fill="#daf0da"
       id="path43855"
       style="stroke:#000000;stroke-width:0.5;stroke-linecap:round;stroke-linejoin:round;stroke-dasharray:none" /><path
       d="m 371.60076,63.442742 c 0,0 1.53286,-0.328638 2.31109,-0.330156 0.66665,-0.0013 1.98094,0.275127 1.98094,0.275127 l -0.55026,2.035947 c 0,0 -1.3905,-0.241217 -2.09095,-0.220108 -0.5576,0.01681 -1.65079,0.275127 -1.65079,0.275127 z"
       fill="#daf0da"
       id="path43855-3"
       style="fill:#ffffef;fill-opacity:1;stroke:#000000;stroke-width:0.5;stroke-linecap:round;stroke-linejoin:round;stroke-dasharray:none" /><path
       d="m 273.28461,87.196857 c 0,0 -4.68139,4.200779 -7.38776,5.757769 -2.31834,1.33382 -7.44534,2.99219 -7.44534,2.99219 l -2.14407,-8.185447 c 0,0 5.32179,-1.932799 7.7186,-3.403176 1.90773,-1.170371 5.1983,-4.249591 5.1983,-4.249591 z"
       fill="#ffffef"
       id="path43857"
       style="stroke:#000000;stroke-width:0.5;stroke-linecap:round;stroke-linejoin:round;stroke-dasharray:none" /><path
       d="m 261.25812,79.551978 7.09989,6.220161 c 0,0 5.45896,-3.250649 8.36297,-4.51761 3.31702,-1.447182 10.27982,-3.49221 10.27982,-3.49221 l -10.01786,-7.868156 c 0,0 -7.18799,4.670678 -10.85962,6.880469 -1.60002,0.962956 -4.86514,2.777991 -4.86514,2.777991 z"
       fill="#daf0da"
       id="path43859"
       style="stroke:#000000;stroke-width:0.5;stroke-linecap:round;stroke-linejoin:round;stroke-dasharray:none" /><path
       d="m 183.41451,88.229397 c 0,0 6.00532,0.913173 8.96562,0.47402 2.36878,-0.351318 6.75488,-2.4452 6.75488,-2.4452 l -3.92609,-8.469496 c 0,0 -8.22238,1.896241 -12.39471,2.48737 -2.24181,0.317522 -6.76915,0.565427 -6.76915,0.565427 z"
       id="path43865"
       style="fill:#ffffef;stroke:#000000;stroke-width:0.5;stroke-linecap:round;stroke-linejoin:round;stroke-dasharray:none" /><path
       d="m 153.373,98.54496 c 0,0 7.95313,3.18723 11.47748,5.56502 2.72194,1.83612 7.30373,6.60833 7.30373,6.60833 L 168.3283,97.84936 c 0,0 -7.2058,-5.951045 -11.47748,-7.652094 -3.825,-1.522859 -12.17355,-2.086874 -12.17355,-2.086874 z"
       id="path43869"
       style="fill:#ffffef;stroke:#000000;stroke-width:0.5;stroke-linecap:round;stroke-linejoin:round;stroke-dasharray:none" /><path
       d="m 54.932417,99.695276 c 0,0 11.43025,-4.580697 16.495451,-7.998068 3.911975,-2.638874 10.496931,-9.4975 10.496931,-9.4975 l -5.498603,18.495282 c 0,0 -10.356187,8.55286 -16.495451,10.99761 -5.497296,2.18866 -17.495844,2.99926 -17.495844,2.99926 z"
       id="path43869-4"
       style="fill:#daf0da;fill-opacity:1;stroke:#000000;stroke-width:0.5;stroke-linecap:round;stroke-linejoin:round;stroke-dasharray:none" /><path
       d="m 253.95264,79.996291 c 0,0 3.74563,-3.817772 5.96214,-5.278573 1.71146,-1.127849 5.56154,-2.622834 5.56154,-2.622834 l -8.33444,-0.884295 c 0,0 -5.15912,2.723966 -7.16472,4.777526 -1.79572,1.838684 -4.12471,6.514411 -4.12471,6.514411 z"
       id="path43871"
       style="fill:#ffffef;stroke:#000000;stroke-width:0.5;stroke-linecap:round;stroke-linejoin:round;stroke-dasharray:none" /><path
       d="m 348.61192,71.485525 c 0,0 2.10163,-2.142114 3.3453,-2.961755 0.96028,-0.632825 3.12052,-1.471646 3.12052,-1.471646 l -4.67637,-0.496169 c 0,0 -2.89473,1.52839 -4.02005,2.680622 -1.00756,1.031668 -2.31434,3.655171 -2.31434,3.655171 z"
       id="path43871-9"
       style="fill:#daf0da;fill-opacity:1;stroke:#000000;stroke-width:0.5;stroke-linecap:round;stroke-linejoin:round;stroke-dasharray:none" /><path
       d="m 128.93214,62.327277 c 0,0 4.09659,4.059902 6.52079,5.61335 1.87181,1.19938 6.08263,2.789181 6.08263,2.789181 l -9.11535,0.940378 c 0,0 -5.64252,-2.896726 -7.83604,-5.080527 -1.96397,-1.955298 -4.51118,-6.927569 -4.51118,-6.927569 z"
       id="path43871-2"
       style="fill:#daf0da;fill-opacity:1;stroke:#000000;stroke-width:0.5;stroke-linecap:round;stroke-linejoin:round;stroke-dasharray:none" /><path
       d="m 241.83245,79.776507 -10.54744,13.33186 c 0,0 0.9113,1.80313 1.57014,2.55487 2.19357,2.50279 7.74706,6.297823 7.74706,6.297823 l 10.10864,-14.08452 z"
       id="path43873"
       style="fill:#daf0da;fill-opacity:1;stroke:#000000;stroke-width:0.5;stroke-linecap:round;stroke-linejoin:round;stroke-dasharray:none" /><path
       d="m 321.73534,85.773333 10.19484,-8.53622 c 0,0 -0.41172,-1.525688 -0.797,-2.206042 -1.28269,-2.265099 -4.93356,-6.053536 -4.93356,-6.053536 l -9.97804,9.182424 z"
       stroke-width="0.257639"
       id="path43877"
       style="fill:#ffffef;stroke:#000000;stroke-width:0.5;stroke-linecap:round;stroke-linejoin:round;stroke-dasharray:none" /><path
       d="m 362.52122,72.703804 5.73807,-0.960613 c 0,0 0.18284,-0.666827 0.18829,-1.00889 0.0182,-1.138816 -0.51942,-3.377226 -0.51942,-3.377226 l -5.79951,1.252447 z"
       stroke-width="0.112729"
       id="path43877-7"
       style="fill:#daf0da;fill-opacity:1;stroke:#000000;stroke-width:0.5;stroke-linecap:round;stroke-linejoin:round;stroke-dasharray:none" /><path
       d="m 238.23442,89.620315 c 0,0 -4.48312,0.313647 -6.52469,1.156818 -1.84098,0.760417 -4.90481,3.412942 -4.90481,3.412942 0,0 -5.38585,-3.336225 -8.41901,-4.026645 -1.5507,-0.352949 -4.77107,-0.0071 -4.77107,-0.0071 0,0 6.02168,-5.94952 9.86938,-7.399279 1.74981,-0.659306 5.59292,-0.433488 5.59292,-0.433488 z"
       fill="#daf0da"
       id="path43845"
       style="fill:#ffffef;fill-opacity:1;stroke:#000000;stroke-width:0.5;stroke-linecap:round;stroke-linejoin:round;stroke-dasharray:none" /><path
       d="m 54.794486,94.890877 c 0,0 7.193686,-0.503288 10.469621,-1.856252 2.954066,-1.220182 7.870336,-5.476458 7.870336,-5.476458 0,0 8.64222,5.353352 13.509277,6.461211 2.488278,0.566349 7.655735,0.01123 7.655735,0.01123 0,0 -9.662483,9.546692 -15.836564,11.873002 -2.807773,1.05794 -8.974488,0.69559 -8.974488,0.69559 z"
       fill="#daf0da"
       id="path43845-9"
       style="fill:#ffffef;fill-opacity:1;stroke:#000000;stroke-width:0.5;stroke-linecap:round;stroke-linejoin:round;stroke-dasharray:none" /><path
       d="m 87.348219,86.382226 5.85548,5.778222 c 0,0 10.532851,-3.318492 15.990131,-3.683004 3.39617,-0.226926 10.1674,0.947911 10.1674,0.947911 l -0.37244,-14.653586 z"
       fill="#daf0da"
       id="path43847-5"
       style="stroke:#000000;stroke-width:0.5;stroke-linecap:round;stroke-linejoin:round;stroke-dasharray:none" /><path
       style="fill:#ffffef;fill-opacity:1;stroke:#000000;stroke-width:0.5;stroke-linecap:round;stroke-linejoin:round;stroke-dasharray:none;stroke-dashoffset:0;stroke-opacity:1"
       d="m 85.071594,71.394505 c 0,0 2.343228,-4.185036 3.079414,-7.207838 0.659544,-2.708356 1.121242,-9.365932 1.121242,-9.365932 0,0 6.655718,2.639006 12.28912,3.996712 4.70572,1.133307 13.8538,1.059932 13.8538,1.059932 0,0 0.0481,4.758799 -0.81187,9.541868 -0.54245,3.017156 -4.07401,8.222476 -4.07401,8.222476 0,0 -9.51366,1.200745 -14.950232,-1.147916 -3.391603,-1.465224 -10.507464,-5.099302 -10.507464,-5.099302 z"
       id="path35300-7-6-4-9"
       sodipodi:nodetypes="cscscscsc" /><path
       d="m 89.77196,113.34553 c 0,0 8.777606,1.33474 13.1045,0.69284 3.46229,-0.5135 9.87319,-3.57399 9.87319,-3.57399 l -5.73853,-12.379347 c 0,0 -12.018143,2.771627 -18.116582,3.635627 -3.276715,0.46412 -9.894048,0.82646 -9.894048,0.82646 z"
       id="path43865-6"
       style="fill:#daf0da;fill-opacity:1;stroke:#000000;stroke-width:0.5;stroke-linecap:round;stroke-linejoin:round;stroke-dasharray:none" /><path
       d="m 348.76844,73.990305 c 0,0 1.85973,-0.362749 2.67045,-0.820991 0.73106,-0.413254 1.87611,-1.681388 1.87611,-1.681388 0,0 2.42594,1.117879 3.73078,1.250146 0.66709,0.06761 1.99676,-0.2434 1.99676,-0.2434 0,0 -2.21247,2.800468 -3.74763,3.605796 -0.69814,0.366239 -2.3179,0.470205 -2.3179,0.470205 z"
       fill="#daf0da"
       id="path43845-7"
       style="fill:#ffffef;fill-opacity:1;stroke:#000000;stroke-width:0.5;stroke-linecap:round;stroke-linejoin:round;stroke-dasharray:none" /></g></svg>
