<svg width="287.78mm" height="127.68mm" version="1.1" viewBox="0 0 287.78 127.68" xmlns="http://www.w3.org/2000/svg">
 <g fill="#daf0da" stroke="#000" stroke-linecap="round" stroke-linejoin="round" stroke-width=".5">
  <path d="m2.7092 63.985s20.438 7.3536 31.11 7.6047c9.6238 0.22641 28.345-5.5307 28.345-5.5307s17.314 25.254 29.382 34.221c6.1697 4.5842 21.086 9.3331 21.086 9.3331s-38.23 14.571-58.072 13.481c-9.0239-0.4958-25.58-8.9874-25.58-8.9874z"/>
  <path d="m266.93 93.994s3.6617-2.1244 5.0387-3.6841c1.2417-1.4065 2.7331-4.9205 2.7331-4.9205s5.9386 0.58825 8.7904-0.0857c1.4579-0.34453 4.0382-1.9725 4.0382-1.9725s-2.6258 7.5292-5.2789 10.351c-1.2066 1.2833-4.5507 2.6859-4.5507 2.6859z"/>
  <path d="m0.24998 31.382 16.824-1.5532s12.408 18.985 20.601 26.67c5.0987 4.7826 17.383 11.733 17.383 11.733l-19.672 22.789z"/>
 </g>
 <g stroke="#000" stroke-linecap="round" stroke-linejoin="round" stroke-width=".5">
  <path d="m73.208 65.884s-5.6176 24.439-12.098 34.913c-3.9873 6.4438-15.901 16.246-15.901 16.246l31.11-9.3331s6.5639-10.894 8.2961-16.938c4.0213-14.03 4.4937-43.554 4.4937-43.554s-4.5463 9.1005-7.9504 12.79c-2.2348 2.4219-7.9504 5.8764-7.9504 5.8764z" fill="#ffffef"/>
  <path d="m232.15 101.72s-8.4166 8.7395-13.713 11.47c-3.2588 1.6802-10.642 2.78-10.642 2.78l15.23 3.8757s5.4361-2.8848 7.6597-4.9606c5.1622-4.819 12.711-16.949 12.711-16.949s-4.1523 2.6431-6.4833 3.3258c-1.5302 0.4482-4.7616 0.45788-4.7616 0.45788z" fill="#daf0da"/>
  <path d="m154 77.997s9.6296-2.0645 14.518-2.074c4.1878-8e-3 12.444 1.7283 12.444 1.7283l-3.4567 12.79s-8.7348-1.5153-13.135-1.3827c-3.5028 0.1056-10.37 1.7284-10.37 1.7284z" fill="#daf0da"/>
  <path d="m216.85 94.554s-7.33 6.5775-11.567 9.0153c-3.6299 2.0885-11.657 4.685-11.657 4.685l-3.3571-12.816s8.3327-3.0263 12.085-5.3286c2.987-1.8325 8.1396-6.6538 8.1396-6.6538z" fill="#ffffef"/>
  <path d="m136.89 112.24 12.344 15.185s12.289-4.7423 18.665-6.3202c7.2831-1.8023 22.226-3.5568 22.226-3.5568l-17.733-19.57s-16.317 7.0419-24.591 10.279c-3.6054 1.4107-10.911 3.9825-10.911 3.9825z" fill="#daf0da"/>
 </g>
 <g fill="#ffffef" stroke="#000" stroke-linecap="round" stroke-linejoin="round" stroke-width=".5">
  <path d="m55.792 28.03s-9.3518 1.8998-13.481 4.148c-3.304 1.7989-8.6417 7.2591-8.6417 7.2591l10.37 10.37s11.103-7.2427 16.938-10.37c3.1351-1.6804 9.6787-4.4937 9.6787-4.4937z"/>
  <path d="m6.2333 105.61s5.6932 7.6586 9.4828 10.441c3.0323 2.2266 10.243 4.7387 10.243 4.7387l4.9815-13.794s-11.274-6.9737-16.584-10.927c-2.8532-2.1241-8.1802-6.8524-8.1802-6.8524z"/>
  <path d="m217.05 110.58s4.3744 2.6628 6.82 3.2837c1.9568 0.49681 6.0494 0.294 6.0494 0.294l-0.30039-7.8645s-7.0124-1.1981-10.45-2.0949c-1.847-0.48187-5.4491-1.7608-5.4491-1.7608z"/>
 </g>
 <path d="m133.88 91.08s-8.484-0.72579-12.524-1.965c-3.1196-0.95689-8.8584-4.1662-8.8584-4.1662l7.3658 11.126s8.5745 3.5697 13.129 3.9489c4.0775 0.33949 12.178-1.5431 12.178-1.5431z" fill="#daf0da" stroke="#000" stroke-linecap="round" stroke-linejoin="round" stroke-width=".5"/>
 <path d="m249.01 87.627s-8.484-0.72579-12.524-1.965c-3.1196-0.95689-8.8584-4.1662-8.8584-4.1662l7.3658 11.126s8.5745 3.5697 13.129 3.9489c4.0775 0.33949 12.178-1.5431 12.178-1.5431z" fill="#daf0da" stroke="#000" stroke-linecap="round" stroke-linejoin="round" stroke-width=".5"/>
 <g fill="#ffffef" stroke="#000" stroke-linecap="round" stroke-linejoin="round" stroke-width=".5">
  <path d="m126.22 105.98s-12.198-7.5066-17.331-12.424c-3.9635-3.797-10.159-12.959-10.159-12.959l2.6529 22.287s10.183 11.848 16.739 15.862c5.8697 3.5938 19.464 6.891 19.464 6.891z"/>
  <path d="m11.821 0.24999-8.9874 32.493s3.0558 2.5914 4.8394 3.4567c5.9381 2.8807 19.012 5.5307 19.012 5.5307l7.6047-33.53z"/>
  <path d="m263.77 95.218-11.746 6.8149s0.14859 1.6071 0.41781 2.3589c0.89635 2.5029 3.9107 6.9512 3.9107 6.9512l11.641-7.5031z"/>
  <path d="m159.86 118.25 11.662-9.7647s-0.47096-1.7452-0.91168-2.5235c-1.4673-2.5911-5.6437-6.9245-5.6437-6.9245l-11.414 10.504z"/>
 </g>
</svg>
